<?xml version="1.0" encoding="UTF-8"?> <svg xmlns="http://www.w3.org/2000/svg" width="61" height="61" viewBox="0 0 61 61" fill="none"> <rect y="29.3213" width="61" height="2.35749" fill="#63AF4F"></rect> <rect x="31.6787" width="61" height="2.35749" transform="rotate(90 31.6787 0)" fill="#63AF4F"></rect> <rect x="29.0734" y="20.6914" width="40.6791" height="2.32133" transform="rotate(75 29.0734 20.6914)" fill="#63AF4F"></rect> <rect x="16.2709" y="3.49707" width="61" height="2.35749" transform="rotate(60 16.2709 3.49707)" fill="#63AF4F"></rect> <rect x="9.76672" y="8.09961" width="61" height="2.35749" transform="rotate(45 9.76672 8.09961)" fill="#63AF4F"></rect> <rect x="4.67554" y="14.229" width="61" height="2.35749" transform="rotate(30 4.67554 14.229)" fill="#63AF4F"></rect> <rect x="1.34436" y="21.4673" width="61" height="2.35749" transform="rotate(15 1.34436 21.4673)" fill="#63AF4F"></rect> <rect x="0.734131" y="37.2554" width="61" height="2.35749" transform="rotate(-15 0.734131 37.2554)" fill="#63AF4F"></rect> <rect x="50.9589" y="17.3271" width="6.19563" height="2.35749" transform="rotate(-30 50.9589 17.3271)" fill="#63AF4F"></rect> <rect x="3.49683" y="44.729" width="40.372" height="2.35749" transform="rotate(-30 3.49683 44.729)" fill="#63AF4F"></rect> <rect x="8.09973" y="51.2334" width="61" height="2.35749" transform="rotate(-45 8.09973 51.2334)" fill="#63AF4F"></rect> <rect x="38.7915" y="13.7812" width="11.8754" height="2.35749" transform="rotate(-60 38.7915 13.7812)" fill="#63AF4F"></rect> <rect x="14.2291" y="56.3242" width="40.372" height="2.35749" transform="rotate(-60 14.2291 56.3242)" fill="#63AF4F"></rect> <rect x="21.4674" y="59.6558" width="61" height="2.35749" transform="rotate(-75 21.4674 59.6558)" fill="#63AF4F"></rect> </svg> 