<?xml version="1.0" encoding="UTF-8"?> <svg xmlns="http://www.w3.org/2000/svg" width="91" height="263" viewBox="0 0 91 263" fill="none"> <path d="M10.948 196.47C7.41042 206.65 11.5389 223.171 13.4555 230.546C15.372 237.921 15.9629 246.778 15.9629 246.778C23.4813 247.957 28.9355 246.479 28.9355 246.479L25.8411 231.297C28.0531 222.3 25.8411 198.252 25.8411 198.252C25.8411 198.252 30.852 188.959 31.2952 174.796C31.7304 160.853 35.1642 156.35 35.2879 156.211C42.3631 159.898 51.3588 199.439 51.3588 199.439C50.6202 209.028 51.5066 223.778 54.4532 231.744C56.2405 236.805 56.9927 242.173 56.6652 247.529C57.6954 248.4 59.1288 248.548 60.678 248.301C64.8744 247.601 69.9091 243.974 69.9091 243.974C69.9091 243.974 68.3121 200.901 67.1143 199.275C65.9165 197.649 67.1143 188.356 67.1143 188.356L65.2018 173.31C65.2018 173.31 65.4932 147.785 62.6943 143.346C60.2747 139.523 59.7197 132.807 59.6119 131.045C59.6119 130.765 59.588 130.609 59.588 130.609L55.3237 125.495C55.3237 125.495 14.0384 122.399 10.944 125.495C10.1814 126.258 9.71432 127.984 9.43482 130.162C8.58432 136.854 9.55852 147.769 9.55852 147.769C9.55852 147.769 10.7963 155.883 12.5651 164.149C13.6305 169.108 13.6305 174.236 12.5651 179.195C13.1522 185.004 12.603 190.872 10.948 196.47Z" fill="#3F3927"></path> <path d="M13.5274 261.16C15.372 263.593 26.2084 262.559 28.053 261.804C29.179 261.336 29.0912 259.219 28.7877 257.033C28.5961 255.643 28.3126 254.237 28.1968 253.194C27.9013 250.537 29.0832 245.152 29.0832 245.152C29.0832 245.152 26.6476 247.732 26.0607 245.152C25.8011 244.025 24.8948 243.446 23.9565 243.154C22.6924 242.774 21.3343 242.859 20.1274 243.394C18.2149 244.225 15.0166 245.999 15.5916 248.396C16.3901 251.784 13.5274 256.59 13.5274 256.59C13.3055 256.872 13.1253 257.184 12.9923 257.517C12.7397 258.115 12.656 258.771 12.7503 259.413C12.8447 260.056 13.1135 260.66 13.5274 261.16Z" fill="#A27772"></path> <path opacity="0.1" d="M13.5274 261.16C15.372 263.594 26.2084 262.559 28.0531 261.804C29.179 261.336 29.0912 259.219 28.7877 257.033C27.6259 257.577 25.6454 258.032 22.3474 257.724C21.5764 257.653 20.8016 257.629 20.0276 257.653C17.682 257.76 15.3318 257.714 12.9923 257.513C12.7389 258.111 12.6548 258.768 12.7492 259.412C12.8435 260.055 13.1127 260.66 13.5274 261.16Z" fill="black"></path> <path opacity="0.1" d="M51.346 199.422C50.6073 209.011 51.4937 223.761 54.4404 231.728C56.2276 236.788 56.9799 242.156 56.6524 247.513C57.6825 248.384 59.1159 248.532 60.6651 248.284C59.7747 242.051 55.9856 215.252 53.538 194.073C50.791 169.954 37.8544 153.358 37.8544 153.358L35.2751 156.198C42.3583 159.882 51.346 199.422 51.346 199.422Z" fill="black"></path> <path d="M17.9503 44.3719L19.7511 53.2219L28.5671 68.0479L39.4394 63.4019C39.4394 63.4019 54.2127 47.9119 44.9295 45.6989C43.8174 45.4609 42.7673 44.9929 41.847 44.3239C40.0224 42.9499 39.4514 40.9479 39.4514 38.9907C39.4514 35.7585 40.9607 32.6423 40.9607 32.6423L21.9431 26.6494C22.7286 29.15 23.1876 31.7418 23.3086 34.3602C23.4524 39.554 21.5279 42.0949 19.9507 43.3139C19.3604 43.7949 18.6805 44.1549 17.9503 44.3719Z" fill="#FBBEBE"></path> <path opacity="0.1" d="M21.9308 26.6689C22.7163 29.1695 23.1753 31.7612 23.2963 34.3796C23.642 34.7922 24.0113 35.1844 24.4023 35.5542C26.3653 37.4319 28.7996 38.7427 31.447 39.3476C34.0944 39.9526 36.8561 39.829 39.4391 38.9901C39.4391 35.758 40.9483 32.6417 40.9483 32.6417L21.9308 26.6689Z" fill="black"></path> <path d="M19.7517 24.2357C19.7525 27.212 20.6355 30.1212 22.2889 32.5953C23.9424 35.0695 26.292 36.9973 29.0406 38.135C31.7893 39.2727 34.8133 39.5692 37.7303 38.9869C40.6474 38.4046 43.3263 36.9697 45.4281 34.8637C47.53 32.7577 48.9605 30.0753 49.5386 27.1557C50.1166 24.2361 49.8163 21.2106 48.6757 18.4618C47.535 15.713 45.6052 13.3645 43.1304 11.7133C40.6556 10.0621 37.747 9.18252 34.7725 9.18562C32.7965 9.17932 30.8388 9.56442 29.0122 10.3187C27.1856 11.0731 25.5263 12.1817 24.13 13.5808C22.7337 14.9798 21.6279 16.6416 20.8764 18.4703C20.125 20.299 19.7428 22.2584 19.7517 24.2357Z" fill="#FBBEBE"></path> <path opacity="0.1" d="M17.9503 44.372L19.7511 53.221L28.5671 68.048L39.4394 63.401C39.4394 63.401 54.2127 47.912 44.9295 45.698C43.8174 45.461 42.7673 44.992 41.847 44.324C43.524 48.938 36.6006 58.535 36.6006 58.535C35.802 59.734 33.9454 58.974 33.9454 58.974C29.4894 58.303 21.2763 45.467 19.9387 43.333C19.3503 43.806 18.6747 44.159 17.9503 44.372Z" fill="black"></path> <path opacity="0.1" d="M9.43726 130.185C12.0526 130.781 26.5384 133.993 32.0324 133.19C38.0735 132.303 49.8282 131.715 49.8282 131.715C49.8282 131.715 57.3106 132.115 59.6144 131.068C59.6144 130.789 59.5905 130.633 59.5905 130.633L55.3262 125.519C55.3262 125.519 14.041 122.423 10.9466 125.519C10.184 126.274 9.71676 128 9.43726 130.185Z" fill="black"></path> <path d="M36.6006 58.9748C36.6006 58.9748 44.3785 48.1878 41.4478 43.9968L54.588 49.3858C54.588 49.3858 62.4977 48.4268 65.3685 60.2368C65.8267 62.1998 65.9922 64.2188 65.8596 66.2298C65.7558 68.0118 65.9953 71.1478 68.0237 75.2028C71.2701 81.6958 70.5311 96.5938 63.8951 98.0718C57.2591 99.5498 54.9034 98.8068 54.9034 98.8068C54.9034 98.8068 55.7858 125.807 59.6189 128.903C63.4519 132 49.8486 131.264 49.8486 131.264C49.8486 131.264 38.0939 131.856 32.0488 132.739C26.0038 133.622 9.05039 129.642 9.05039 129.642C9.05039 129.642 11.5579 118.28 12.4403 111.053C13.3227 103.825 15.391 88.4318 15.391 88.4318L0.350188 68.0558C0.350188 68.0558 -2.30101 55.7388 6.98619 50.2808C16.2734 44.8238 19.7631 43.4888 19.7631 43.4888C19.7631 43.4888 29.0822 58.6708 33.9454 59.4178C33.9454 59.4178 35.794 60.1608 36.6006 58.9748Z" fill="#FF8925"></path> <path opacity="0.1" d="M53.8492 63.2529C53.8492 63.2529 53.9969 68.1229 53.1145 70.0449C52.2321 71.9669 48.986 82.5859 48.986 82.5859H56.3566C56.3566 82.5859 52.3639 78.3069 52.6713 76.2419C52.9787 74.1759 53.8492 63.2529 53.8492 63.2529Z" fill="black"></path> <path d="M32.0289 99.99C32.0289 99.99 48.3114 95.995 49.8286 92.611C51.3459 89.227 55.5343 81.628 55.5343 81.628L53.8174 79.311L45.8957 85.531C45.8957 85.531 36.4608 93.054 32.0368 93.793C27.6129 94.532 32.0289 99.99 32.0289 99.99Z" fill="#FBBEBE"></path> <path opacity="0.05" d="M32.0289 99.99C32.0289 99.99 48.3114 95.995 49.8286 92.611C51.3459 89.227 55.5343 81.628 55.5343 81.628L53.8174 79.311L45.8957 85.531C45.8957 85.531 36.4608 93.054 32.0368 93.793C27.6129 94.532 32.0289 99.99 32.0289 99.99Z" fill="black"></path> <path d="M17.9517 80.8118V89.6488H19.3731C26.3878 89.6508 33.2868 91.4378 39.4208 94.8428L42.08 96.3208L42.7947 96.7208L47.3664 86.4208L43.0901 82.5858H42.8705C41.8244 82.6858 37.3006 83.0648 35.3841 82.4178C33.5634 81.7988 31.3035 79.8368 25.9412 81.2188C23.298 81.8948 21.0421 84.8588 18.4787 83.9318L17.9517 80.8118Z" fill="#FBBEBE"></path> <path opacity="0.1" d="M3.72353 64.7318L0.772827 68.0478V76.0898C0.772827 76.0898 3.28033 101.464 11.2419 104.268C19.2034 107.073 33.4137 102.642 33.4137 102.642C33.4137 102.642 37.0871 92.9059 35.3702 92.3189C33.6533 91.7309 20.1977 88.1718 20.1977 88.1718C20.1977 88.1718 20.3853 73.2848 17.4387 68.8588C17.4387 68.8588 19.3552 54.9948 12.7192 54.6998C6.08323 54.4038 3.72353 64.7318 3.72353 64.7318Z" fill="black"></path> <path d="M3.28139 64.7318L0.330688 68.0478V76.0898C0.330688 76.0898 2.83019 101.464 10.8157 104.268C18.8013 107.073 32.9916 102.642 32.9916 102.642C32.9916 102.642 36.6609 92.9059 34.944 92.3189C33.2271 91.7309 19.7715 88.1718 19.7715 88.1718C19.7715 88.1718 19.9632 73.2848 17.0125 68.8588C17.0125 68.8588 18.929 54.9948 12.293 54.6998C5.65699 54.4038 3.28139 64.7318 3.28139 64.7318Z" fill="#FF8925"></path> <path opacity="0.1" d="M23.8767 30.6286C23.8168 29.6577 23.7968 28.631 24.212 27.756C24.6273 26.8811 25.6015 26.1819 26.5518 26.4056C27.8135 26.7013 28.3565 28.3433 29.5943 28.7388C30.6364 29.0704 31.7743 28.3393 32.2694 27.3565C32.7645 26.3737 32.7805 25.239 32.7845 24.1603C32.7845 22.9298 32.7845 21.6953 32.7845 20.4647C32.7845 19.1223 32.8284 17.6681 33.6549 16.6213C34.6811 15.3069 37.0967 14.7356 38.7097 14.7875C39.7842 14.8 40.8147 15.2164 41.5965 15.9541C42.4589 16.6852 43.4571 17.2286 44.635 17.0328C45.1243 16.9586 45.5827 16.7474 45.9571 16.4237C46.3316 16.0999 46.6068 15.6767 46.7512 15.203V15.1551C45.4976 13.4978 43.9145 12.1185 42.1016 11.1039C40.2888 10.0893 38.2855 9.4616 36.2182 9.2602C34.1508 9.0589 32.0642 9.2883 30.0898 9.9341C28.1155 10.5798 26.2963 11.6278 24.7469 13.0121C23.1974 14.3964 21.9514 16.0868 21.0874 17.9769C20.2234 19.867 19.7601 21.9157 19.7268 23.9938C19.6934 26.072 20.0907 28.1345 20.8936 30.0513C21.6965 31.9682 22.8875 33.6978 24.3917 35.1312C24.1356 33.6412 23.9636 32.1379 23.8767 30.6286Z" fill="black"></path> <path d="M44.6417 16.5767C45.1313 16.5017 45.5898 16.2898 45.9642 15.9653C46.3387 15.6408 46.6138 15.2171 46.7579 14.7429C46.8817 14.2675 46.8497 13.7601 46.9895 13.2846C47.3328 12.126 48.5866 11.5227 49.3851 10.6438C51.0461 8.87786 50.9383 5.97736 49.7604 3.85186C48.8102 2.14196 46.9655 0.699663 45.045 1.03126C43.8472 1.23896 42.821 2.08996 41.6112 2.16586C40.4014 2.24176 39.3873 1.58656 38.3252 1.10316C35.7692 -0.0551376 32.8957 -0.31014 30.1759 0.38006C29.3399 0.54806 28.5647 0.93866 27.932 1.51066C27.504 2.05026 27.1042 2.61176 26.7342 3.19266C25.3567 4.94656 22.8971 5.29016 20.7051 5.68566C18.5131 6.08126 16.0375 6.94816 15.3149 9.05766C14.8397 10.456 15.3149 11.9742 15.5744 13.4285C15.6668 13.7248 15.6469 14.0448 15.5185 14.3274C15.1751 14.8947 14.3207 14.659 13.6738 14.7948C12.4281 15.0545 12.1087 16.6566 12.0767 17.9271C12.0235 19.3813 11.9835 20.8356 11.9569 22.2899C11.883 22.9642 11.97 23.6464 12.2109 24.2806C12.4517 24.9147 12.8395 25.4826 13.3424 25.9375L18.2096 31.7905C20.3697 34.3874 22.6615 37.4118 22.2263 40.7599C23.2485 41.2189 24.4623 40.3323 24.7977 39.2616C25.1331 38.1908 24.8615 37.0402 24.638 35.9415C24.244 34.042 23.9865 32.1167 23.8674 30.1804C23.8075 29.2056 23.7875 28.1828 24.2028 27.3079C24.618 26.4329 25.5922 25.7098 26.5425 25.9535C27.8042 26.2491 28.3472 27.8912 29.585 28.2867C30.6231 28.6183 31.7651 27.8872 32.2602 26.9043C32.7553 25.9215 32.7712 24.7869 32.7752 23.7082V20.0086C32.7752 18.6702 32.8191 17.2119 33.6456 16.1652C34.6718 14.8508 37.0874 14.2794 38.7005 14.3314C39.7748 14.3447 40.805 14.761 41.5873 15.498C42.4657 16.2291 43.4638 16.7685 44.6417 16.5767Z" fill="#FE5757"></path> <path opacity="0.1" d="M41.2452 62.8857L36.6296 81.8627C36.6296 81.8627 32.9882 81.8427 41.2452 62.8857Z" fill="black"></path> <path opacity="0.1" d="M25.4684 59.7139C25.4684 59.7139 31.5134 69.6219 29.1537 79.8619L28.0277 79.9459C28.0277 79.9459 30.0401 75.2029 25.4684 59.7139Z" fill="black"></path> <path opacity="0.1" d="M21.6358 115.775C21.6358 115.775 14.2133 113.318 13.6742 119.019C13.6742 119.019 15.0757 115.112 21.6358 115.775Z" fill="black"></path> <path opacity="0.1" d="M43.0898 83.042C43.0898 83.042 44.5631 93.37 41.892 97.501C41.892 97.501 47.2902 99.714 54.8684 99.271L55.7668 83.042H43.0898Z" fill="black"></path> <path opacity="0.1" d="M42.0798 96.318L42.7946 96.717L47.3663 86.418L43.09 82.582H42.8704C42.9383 83.078 44.1281 91.947 42.0798 96.318Z" fill="black"></path> <path d="M43.0893 82.582C43.0893 82.582 44.5626 92.906 41.8914 97.037C41.8914 97.037 47.2897 99.25 54.8679 98.807L60.0265 82.582H43.0893Z" fill="#FF8925"></path> <path d="M55.8426 254.88C55.9281 255.616 56.2558 256.302 56.7741 256.831C57.2925 257.36 57.9719 257.701 58.7054 257.8C62.6982 258.4 72.3531 259.926 74.7881 261.084C77.8831 262.559 90.1201 261.528 90.7111 260.054C90.8781 259.458 90.8021 258.82 90.5001 258.28C90.0741 257.378 89.3751 256.633 88.5031 256.15C88.2221 255.988 87.9251 255.854 87.6171 255.751C85.3131 254.98 80.9611 253.354 79.7831 251.636C79.7831 251.636 74.3571 246.885 72.8121 244.317C72.5201 243.812 72.1091 243.387 71.6151 243.079C71.1201 242.771 70.5581 242.59 69.9771 242.551C68.6834 242.491 67.246 243.142 66.659 245.975C66.659 245.975 59.5838 250.014 57.6713 246.47C57.6713 246.47 57.3758 251.911 56.202 253.398C56.0468 253.609 55.9351 253.848 55.8734 254.103C55.8117 254.357 55.8013 254.621 55.8426 254.88Z" fill="#A27772"></path> <path opacity="0.1" d="M55.8427 254.881C55.9281 255.616 56.256 256.303 56.7743 256.831C57.2926 257.36 57.9721 257.701 58.7056 257.801C62.6983 258.4 72.3532 259.927 74.7882 261.085C77.8832 262.559 90.1202 261.529 90.7112 260.054C90.8782 259.458 90.8022 258.821 90.5002 258.281C90.0742 257.379 89.3752 256.634 88.5032 256.151C86.5072 257.477 82.0791 258.772 72.3371 257.25C63.0456 255.8 58.4461 254.377 56.2021 253.406C56.048 253.616 55.9369 253.855 55.8752 254.108C55.8135 254.361 55.8024 254.623 55.8427 254.881Z" fill="black"></path> <g opacity="0.1"> <path opacity="0.1" d="M15.6076 13.6446V13.5727C15.396 12.466 15.0806 11.3234 15.1525 10.2207C15.2471 11.1257 15.3991 12.0238 15.6076 12.9095C15.6634 13.1514 15.6634 13.4028 15.6076 13.6446Z" fill="black"></path> <path opacity="0.1" d="M24.2153 27.4524C23.9828 27.9844 23.8593 28.5577 23.852 29.1384C23.7836 28.3375 23.9082 27.5319 24.2153 26.7892C24.6146 25.9062 25.6008 25.2111 26.551 25.4348C27.8128 25.7304 28.3558 27.3725 29.5936 27.768C30.6357 28.0996 31.7736 27.3685 32.2727 26.3857C32.7718 25.4028 32.7798 24.2682 32.7838 23.1895C32.7838 21.9549 32.7838 20.7244 32.7838 19.4899C32.7838 18.1515 32.8277 16.6932 33.6542 15.6465C34.6803 14.3321 37.1 13.7607 38.709 13.8127C39.7835 13.8252 40.814 14.2416 41.5958 14.9793C42.4623 15.7144 43.4565 16.2538 44.6343 16.062C45.1239 15.987 45.5824 15.7751 45.9568 15.4506C46.3313 15.1261 46.6064 14.7024 46.7505 14.2282C46.8743 13.7527 46.8423 13.2454 46.9821 12.7699C47.3294 11.6113 48.5792 11.008 49.3777 10.1291C50.1541 9.27279 50.5951 8.16469 50.6195 7.00879C50.681 7.69079 50.6026 8.37819 50.3891 9.02889C50.1755 9.67949 49.8314 10.2796 49.3777 10.7923C48.5472 11.6712 47.3135 12.2785 46.9821 13.4371C46.8423 13.9086 46.8743 14.416 46.7505 14.8914C46.6064 15.3656 46.3313 15.7893 45.9568 16.1138C45.5824 16.4383 45.1239 16.6502 44.6343 16.7252C43.4365 16.917 42.4623 16.3776 41.5958 15.6425C40.814 14.9048 39.7835 14.4884 38.709 14.4759C37.1119 14.424 34.6803 14.9993 33.6542 16.3097C32.8277 17.3644 32.7878 18.8147 32.7838 20.1531C32.7838 21.3876 32.7838 22.6182 32.7838 23.8527C32.7838 24.9474 32.7838 26.086 32.2727 27.0489C31.7616 28.0117 30.6357 28.7628 29.5936 28.4312C28.3558 28.0317 27.8128 26.3936 26.551 26.098C25.5888 25.8783 24.6265 26.5694 24.2153 27.4524Z" fill="black"></path> <path opacity="0.1" d="M12.0963 23.389C12.3653 24.147 12.7928 24.8389 13.35 25.4186C14.9711 27.3709 16.5935 29.3219 18.2172 31.2716C20.2655 33.7366 22.4376 36.5892 22.2779 39.7335C22.1302 36.8489 20.1218 34.224 18.2172 31.9348L13.35 26.0858C12.7935 25.5039 12.3663 24.8109 12.0963 24.0522C11.9758 23.5286 11.9327 22.9902 11.9685 22.4541C11.9726 22.7698 12.0155 23.0838 12.0963 23.389Z" fill="black"></path> <path opacity="0.1" d="M24.7901 38.7424C24.8687 38.4826 24.917 38.2144 24.9338 37.9434C24.9756 38.4329 24.9269 38.9259 24.7901 39.3976C24.4547 40.4684 23.2369 41.3509 22.2147 40.8919C22.2427 40.6759 22.2587 40.4604 22.2666 40.2446C23.2968 40.6681 24.4786 39.7972 24.7901 38.7424Z" fill="black"></path> </g> <path opacity="0.1" d="M73.7981 245.648C73.7981 245.648 72.2571 248.36 66.6749 245.971L73.7981 245.648Z" fill="black"></path> <path opacity="0.1" d="M26.5871 246.315C26.5871 246.315 21.7718 251.988 15.7028 248.172L26.5871 246.315Z" fill="black"></path> <path opacity="0.1" d="M12.569 179.206C12.569 179.206 15.9748 181.336 16.0826 182.554C16.1904 183.773 14.3258 181.667 14.3258 181.667L12.569 179.206Z" fill="black"></path> <path opacity="0.1" d="M11.2141 195.52C12.3975 196.505 13.8687 197.08 15.4065 197.158C17.95 197.27 17.7383 200.59 16.0773 199.591C14.4163 198.592 11.2141 195.52 11.2141 195.52Z" fill="black"></path> <path opacity="0.1" d="M10.5796 197.649C10.5796 197.649 12.2126 205.679 13.5382 204.129L10.5796 197.649Z" fill="black"></path> </svg> 