<?xml version="1.0" encoding="UTF-8"?> <svg xmlns="http://www.w3.org/2000/svg" width="101" height="284" viewBox="0 0 101 284" fill="none"> <path d="M92.4644 54.3201C82.2458 48.4398 78.3853 46.9816 78.3638 46.973L78.1574 46.8224C77.0429 45.9659 76.1569 44.8474 75.5781 43.5661C75.5781 43.3295 75.5781 43.0972 75.5781 42.865V42.9338C75.7414 39.8194 77.9554 36.9847 80.0576 34.5113L85.427 28.1879C86.0393 27.5637 86.5113 26.8157 86.8112 25.9941C86.922 25.5542 86.9712 25.1011 86.9574 24.6477C86.9574 24.4627 86.9574 24.2778 86.9574 24.0971C86.9316 22.527 86.8843 20.9526 86.8284 19.3654C86.7769 17.9931 86.4243 16.2639 85.053 15.98C84.3393 15.8337 83.3979 16.0918 83.0196 15.4767C82.8927 15.2254 82.8606 14.9368 82.9293 14.6637C82.9272 14.6852 82.9272 14.7068 82.9293 14.7282V14.6508C83.1962 13.5915 83.3675 12.5103 83.4409 11.4203C83.4679 10.8663 83.3921 10.3121 83.2173 9.7857C82.422 7.50585 79.6879 6.5724 77.2676 6.14224C74.8473 5.71209 72.1389 5.34215 70.6214 3.44945C70.1528 2.86443 69.8347 2.15897 69.3016 1.62988C68.6014 1.00919 67.7479 0.58738 66.8297 0.408225C63.8279 -0.334098 60.6649 -0.0587502 57.8363 1.19111C56.667 1.7116 55.4934 2.41707 54.2123 2.33964C52.9312 2.26221 51.7404 1.33737 50.4249 1.11369C48.3012 0.752352 46.2678 2.31383 45.2232 4.15921C44.6027 5.25685 44.2713 6.49433 44.2602 7.75534C44.2602 7.82417 44.2602 7.8973 44.2602 7.96612C44.2288 9.32174 44.7234 10.6368 45.6402 11.6354C46.5559 12.586 47.9229 13.2399 48.3012 14.4916C48.456 14.9992 48.4173 15.5498 48.5549 16.066C48.5549 16.1306 48.5935 16.1951 48.615 16.2553L48.5463 16.3456C46.3542 19.1567 45.1674 22.6221 45.1759 26.1877C45.1983 29.6465 46.3196 33.0086 48.3775 35.7878C50.4355 38.5669 53.3235 40.6191 56.624 41.6476C56.624 41.8068 56.624 41.9702 56.624 42.1294C56.624 44.0823 56.0694 46.074 54.4014 47.5408L39.9312 53.3652C39.9312 53.3652 31.2086 52.3285 28.0617 65.087C27.5554 67.2052 27.3728 69.3879 27.5201 71.5609C27.6361 73.4837 27.3696 76.8734 25.1342 81.2567C21.5531 88.2683 22.3699 104.365 29.6867 105.961C36.5952 107.466 39.2992 106.821 39.5743 106.765V107.045C39.4626 110.056 38.3663 136.119 34.3812 139.272C33.2807 140.133 33.487 140.735 34.3812 141.131C34.3812 141.131 34.3812 141.298 34.3554 141.599C34.2351 143.505 33.6203 150.762 30.9549 154.891C27.864 159.67 28.1864 187.248 28.1864 187.248L26.11 203.521C26.11 203.521 27.3997 213.561 26.11 215.316C24.9493 216.877 23.4017 254.03 23.1008 262.079H22.9632C22.3264 262.117 21.7086 262.31 21.1638 262.643C20.619 262.975 20.1638 263.435 19.8378 263.984C18.1183 266.763 12.1427 271.895 12.1427 271.895C10.853 273.74 6.0425 275.504 3.50182 276.338C3.16129 276.448 2.83287 276.592 2.52168 276.768C1.57253 277.287 0.810096 278.09 0.342103 279.066C0.176678 279.353 0.0705237 279.671 0.0299149 280.001C-0.0106939 280.33 0.015044 280.665 0.10564 280.984C0.759081 282.576 14.2578 283.69 17.6712 282.098C20.358 280.842 30.9979 279.195 35.4129 278.549C36.2146 278.447 36.9599 278.082 37.5317 277.511C38.1035 276.939 38.4697 276.194 38.5727 275.392C38.6117 275.113 38.5936 274.828 38.5197 274.556C38.4459 274.284 38.3176 274.03 38.1428 273.809C37.283 272.759 36.8531 269.899 36.6683 268.032C37.0273 267.887 37.3621 267.688 37.6613 267.443C37.2988 261.652 38.1284 255.848 40.0988 250.391C43.3531 241.788 44.329 225.842 43.538 215.484C43.538 215.484 53.46 172.769 61.2669 168.781C61.3872 168.932 65.1746 173.801 65.6561 188.861C66.1462 204.162 71.6746 214.202 71.6746 214.202C71.6746 214.202 69.2328 240.183 71.6746 249.905L68.4805 265.245C68.2484 265.042 68.0979 264.887 68.0979 264.887C68.0979 264.887 68.1925 265.318 68.3257 265.997L68.257 266.32L68.3945 266.354C68.7556 268.273 69.293 271.615 69.0738 273.577C68.9448 274.691 68.6439 276.222 68.4203 277.723C68.085 280.085 67.9904 282.373 69.2328 282.885C71.2662 283.703 83.2216 284.821 85.255 282.193C85.7111 281.657 86.0084 281.004 86.1132 280.307C86.2181 279.611 86.1263 278.899 85.8483 278.253C85.7002 277.891 85.5003 277.554 85.255 277.25C85.255 277.25 82.0824 272.058 82.9766 268.398C83.0614 268.04 83.0715 267.668 83.0065 267.306C82.9414 266.944 82.8024 266.6 82.5983 266.294C82.7359 264.496 83.4581 256.181 85.3367 249.118C87.3701 241.448 91.6648 224.633 88.505 213.574C88.3847 213.144 88.2471 212.713 88.1009 212.283C86.2776 206.247 85.6698 199.909 86.3125 193.636C85.1395 188.279 85.1395 182.732 86.3125 177.376C88.2643 168.45 89.6271 159.683 89.6271 159.683C89.6271 159.683 90.7061 147.893 89.7646 140.662L89.7001 140.197L90.216 140.081C90.216 140.081 87.4518 127.809 86.4759 120.001C86.2438 118.156 85.9428 115.82 85.6161 113.325C86.5172 113.181 87.4046 112.961 88.2686 112.667C97.0212 109.626 99.7726 82.216 99.7726 82.216V73.5267C99.7726 73.5267 102.713 60.2176 92.4644 54.3201ZM27.0343 265.989C26.7635 265.851 26.6044 265.761 26.6044 265.761L27.0343 265.989Z" fill="url(#paint0_linear)"></path> <path d="M87.1638 212.516C90.9727 223.476 86.5276 241.263 84.4641 249.204C82.4006 257.145 81.7643 266.681 81.7643 266.681C73.6694 267.95 67.797 266.359 67.797 266.359L71.1287 250.013C68.7471 240.325 71.1287 214.434 71.1287 214.434C71.1287 214.434 65.7335 204.429 65.2563 189.179C64.7878 174.167 61.0907 169.319 60.9574 169.168C53.3396 173.139 43.6541 215.712 43.6541 215.712C44.4494 226.036 43.495 241.917 40.3224 250.494C38.3981 255.943 37.5882 261.722 37.9408 267.49C36.8316 268.428 35.2883 268.587 33.6203 268.32C29.1021 267.567 23.6812 263.662 23.6812 263.662C23.6812 263.662 25.4007 217.286 26.6904 215.535C27.9801 213.785 26.6904 203.779 26.6904 203.779L28.7496 187.579C28.7496 187.579 28.4358 160.096 31.4494 155.317C34.0545 151.201 34.6521 143.97 34.7681 142.073C34.7681 141.772 34.7939 141.604 34.7939 141.604L39.3852 136.098C39.3852 136.098 83.8364 132.764 87.1681 136.098C87.9892 136.919 88.4922 138.778 88.7931 141.122C89.7088 148.327 88.6599 160.079 88.6599 160.079C88.6599 160.079 87.3272 168.816 85.4227 177.716C84.2757 183.055 84.2757 188.577 85.4227 193.915C84.7906 200.17 85.382 206.487 87.1638 212.516Z" fill="#65617D"></path> <path d="M84.3867 282.167C82.4006 284.787 70.7332 283.672 68.7471 282.859C67.5348 282.356 67.6293 280.076 67.9561 277.723C68.1624 276.226 68.4676 274.712 68.5923 273.59C68.9104 270.729 67.6379 264.93 67.6379 264.93C67.6379 264.93 70.2603 267.709 70.8923 264.93C71.1717 263.717 72.1476 263.094 73.1578 262.78C74.5188 262.371 75.9811 262.462 77.2805 263.038C79.3397 263.932 82.7832 265.842 82.1642 268.423C81.3044 272.071 84.3867 277.246 84.3867 277.246C84.6255 277.549 84.8196 277.885 84.9628 278.244C85.2348 278.888 85.3249 279.594 85.2233 280.286C85.1217 280.978 84.8323 281.628 84.3867 282.167Z" fill="#A27772"></path> <path opacity="0.1" d="M84.3864 282.167C82.4003 284.786 70.733 283.672 68.7469 282.859C67.5346 282.356 67.6291 280.076 67.9559 277.723C69.2069 278.308 71.3391 278.799 74.8901 278.467C75.7202 278.39 76.5544 278.364 77.3878 278.39C79.9133 278.506 82.4437 278.456 84.9625 278.239C85.2354 278.884 85.3259 279.591 85.2244 280.284C85.1228 280.976 84.8329 281.628 84.3864 282.167Z" fill="black"></path> <path opacity="0.1" d="M43.667 215.694C44.4623 226.018 43.508 241.9 40.3353 250.477C38.4111 255.925 37.6011 261.705 37.9537 267.473C36.8446 268.41 35.3013 268.569 33.6333 268.303C34.592 261.592 38.6717 232.737 41.3069 209.934C44.2646 183.966 58.1932 166.097 58.1932 166.097L60.9703 169.155C53.344 173.121 43.667 215.694 43.667 215.694Z" fill="black"></path> <path d="M79.6233 48.7537L77.6845 58.2818L68.1924 74.245L56.4864 69.2422C56.4864 69.2422 40.5803 52.565 50.5753 50.1819C51.7727 49.926 52.9033 49.4219 53.8941 48.7021C55.8587 47.2224 56.4735 45.0673 56.4735 42.9595C56.4735 39.4795 54.8485 36.1243 54.8485 36.1243L75.3244 29.6719C74.4786 32.3642 73.9844 35.1547 73.8542 37.9739C73.6994 43.566 75.7715 46.3018 77.4696 47.6138C78.1052 48.1324 78.8372 48.5199 79.6233 48.7537Z" fill="#FBBEBE"></path> <path opacity="0.1" d="M75.3372 29.6934C74.4914 32.3857 73.9973 35.1762 73.867 37.9954C73.4948 38.4396 73.0972 38.8619 72.6762 39.2601C70.5627 41.2817 67.9417 42.6931 65.0912 43.3444C62.2408 43.9957 59.2673 43.8627 56.4863 42.9595C56.4863 39.4795 54.8613 36.1242 54.8613 36.1242L75.3372 29.6934Z" fill="black"></path> <path d="M77.6847 27.0737C77.6838 30.2783 76.7331 33.4106 74.9529 36.0744C73.1727 38.7383 70.6428 40.814 67.6834 42.0389C64.724 43.2639 61.4681 43.5831 58.3274 42.9561C55.1866 42.3292 52.3023 40.7843 50.0392 38.5168C47.7762 36.2493 46.236 33.3612 45.6136 30.2177C44.9912 27.0742 45.3145 23.8167 46.5427 20.8571C47.7708 17.8975 49.8486 15.3689 52.5132 13.5911C55.1777 11.8133 58.3094 10.8662 61.512 10.8696C63.6396 10.8628 65.7474 11.2774 67.7141 12.0896C69.6807 12.9017 71.4672 14.0954 72.9706 15.6017C74.4741 17.1081 75.6646 18.8973 76.4737 20.8662C77.2828 22.8351 77.6943 24.9449 77.6847 27.0737Z" fill="#FBBEBE"></path> <path opacity="0.1" d="M79.6233 48.7539L77.6845 58.2819L68.1924 74.2452L56.4864 69.2424C56.4864 69.2424 40.5803 52.5651 50.5753 50.182C51.7727 49.9261 52.9033 49.4221 53.8941 48.7023C52.0886 53.6706 59.5429 64.0031 59.5429 64.0031C60.4027 65.2935 62.4017 64.4762 62.4017 64.4762C67.1994 63.7536 76.0423 49.9325 77.4825 47.6355C78.116 48.145 78.8434 48.5249 79.6233 48.7539Z" fill="black"></path> <path opacity="0.1" d="M88.7886 141.148C85.9728 141.789 70.3762 145.247 64.4608 144.383C57.9565 143.428 45.3004 142.795 45.3004 142.795C45.3004 142.795 37.2442 143.226 34.7637 142.099C34.7637 141.797 34.7895 141.63 34.7895 141.63L39.3807 136.124C39.3807 136.124 83.8319 132.79 87.1636 136.124C87.9847 136.937 88.4877 138.795 88.7886 141.148Z" fill="black"></path> <path d="M59.5429 64.4761C59.5429 64.4761 51.1686 52.8618 54.324 48.3494L40.1761 54.1523C40.1761 54.1523 31.6599 53.1199 28.569 65.8354C28.0756 67.9483 27.8974 70.1227 28.0402 72.2878C28.152 74.2063 27.894 77.583 25.7101 81.9492C22.2151 88.9393 23.0104 104.98 30.1553 106.571C37.3001 108.163 39.8365 107.363 39.8365 107.363C39.8365 107.363 38.8865 136.433 34.7595 139.767C30.6325 143.101 45.279 142.309 45.279 142.309C45.279 142.309 57.9351 142.946 64.4437 143.896C70.9523 144.847 89.2057 140.563 89.2057 140.563C89.2057 140.563 86.506 128.329 85.5559 120.547C84.6058 112.766 82.379 96.1917 82.379 96.1917L98.5731 74.2536C98.5731 74.2536 101.428 60.9918 91.4282 55.1158C81.4289 49.2398 77.6716 47.8031 77.6716 47.8031C77.6716 47.8031 67.6378 64.1492 62.4017 64.9536C62.4017 64.9536 60.4113 65.7537 59.5429 64.4761Z" fill="#7C7CDD"></path> <path opacity="0.1" d="M40.9715 69.0831C40.9715 69.0831 40.8124 74.3268 41.7625 76.3958C42.7125 78.4649 46.2076 89.8985 46.2076 89.8985H38.2717C38.2717 89.8985 42.5707 85.2915 42.2397 83.0676C41.9086 80.8437 40.9715 69.0831 40.9715 69.0831Z" fill="black"></path> <path d="M64.4651 108.636C64.4651 108.636 46.934 104.335 45.3004 100.691C43.6668 97.0478 39.1572 88.8661 39.1572 88.8661L41.0058 86.3712L49.5349 93.0688C49.5349 93.0688 59.6933 101.169 64.4565 101.964C69.2197 102.76 64.4651 108.636 64.4651 108.636Z" fill="#FBBEBE"></path> <path opacity="0.05" d="M64.4651 108.636C64.4651 108.636 46.934 104.335 45.3004 100.691C43.6668 97.0478 39.1572 88.8661 39.1572 88.8661L41.0058 86.3712L49.5349 93.0688C49.5349 93.0688 59.6933 101.169 64.4565 101.964C69.2197 102.76 64.4651 108.636 64.4651 108.636Z" fill="black"></path> <path d="M79.6235 87.9886V97.5038H78.0931C70.5405 97.5052 63.1124 99.4296 56.508 103.096L53.6449 104.687L52.8754 105.118L47.9531 94.0281L52.5573 89.8985H52.7937C53.9201 90.0061 58.7908 90.4147 60.8543 89.7179C62.8146 89.0511 65.2478 86.939 71.0213 88.4274C73.8672 89.1543 76.2961 92.3461 79.056 91.3482L79.6235 87.9886Z" fill="#FBBEBE"></path> <path opacity="0.1" d="M94.9406 70.6747L98.1175 74.245V82.9041C98.1175 82.9041 95.4178 110.224 86.8457 113.243C78.2736 116.263 62.9736 111.493 62.9736 111.493C62.9736 111.493 59.0185 101.01 60.8671 100.377C62.7156 99.7449 77.2031 95.9122 77.2031 95.9122C77.2031 95.9122 77.0011 79.8844 80.1737 75.1183C80.1737 75.1183 78.1102 60.1917 85.255 59.8734C92.3999 59.5551 94.9406 70.6747 94.9406 70.6747Z" fill="black"></path> <path d="M95.4177 70.6747L98.5946 74.245V82.9041C98.5946 82.9041 95.9035 110.224 87.3055 113.243C78.7076 116.263 63.4292 111.493 63.4292 111.493C63.4292 111.493 59.4784 101.01 61.327 100.377C63.1755 99.7449 77.663 95.9121 77.663 95.9121C77.663 95.9121 77.4566 79.8844 80.6336 75.1183C80.6336 75.1183 78.5701 60.1917 85.715 59.8734C92.8598 59.5551 95.4177 70.6747 95.4177 70.6747Z" fill="#7C7CDD"></path> <path opacity="0.1" d="M73.2439 33.9563C73.3084 32.911 73.3299 31.8055 72.8828 30.8635C72.4357 29.9214 71.3868 29.1686 70.3636 29.4095C69.0052 29.7279 68.4205 31.4958 67.0878 31.9217C65.9658 32.2787 64.7406 31.4915 64.2075 30.4333C63.6745 29.3751 63.6572 28.1535 63.6529 26.992C63.6529 25.6671 63.6529 24.3379 63.6529 23.0131C63.6529 21.5677 63.6057 20.0019 62.7158 18.8749C61.6109 17.4597 59.0101 16.8446 57.2733 16.9005C56.1164 16.9139 55.0069 17.3623 54.1652 18.1566C53.2366 18.9437 52.1619 19.5288 50.8937 19.318C50.3668 19.2381 49.8733 19.0107 49.4702 18.6621C49.067 18.3135 48.7706 17.8579 48.6152 17.3479V17.2962C49.9649 15.5119 51.6694 14.0268 53.6213 12.9344C55.5732 11.842 57.7301 11.1661 59.956 10.9494C62.1819 10.7326 64.4285 10.9796 66.5543 11.6749C68.68 12.3701 70.6387 13.4985 72.307 14.9889C73.9752 16.4793 75.3167 18.2994 76.247 20.3344C77.1773 22.3695 77.6761 24.5753 77.712 26.8128C77.748 29.0503 77.3202 31.271 76.4557 33.3348C75.5913 35.3987 74.3089 37.261 72.6893 38.8042C72.9651 37.2 73.1503 35.5814 73.2439 33.9563Z" fill="black"></path> <path d="M50.885 18.8277C50.3578 18.747 49.8642 18.5188 49.461 18.1694C49.0579 17.8201 48.7617 17.3638 48.6065 16.8533C48.4732 16.3414 48.5077 15.7951 48.3572 15.2832C47.9875 14.0357 46.6376 13.3862 45.7778 12.4398C43.9895 10.5385 44.1055 7.41558 45.3737 5.12713C46.3969 3.28605 48.383 1.73317 50.4508 2.09021C51.7405 2.31389 52.8453 3.23013 54.1479 3.31186C55.4505 3.39359 56.5424 2.68813 57.6859 2.16764C60.4379 0.92048 63.5317 0.645948 66.4601 1.38905C67.3602 1.56997 68.1949 1.99052 68.8761 2.6064C69.3369 3.1874 69.7674 3.79186 70.1658 4.41737C71.6489 6.30577 74.2971 6.67571 76.6572 7.10157C79.0173 7.52742 81.6827 8.46087 82.4608 10.7321C82.9724 12.2377 82.4608 13.8723 82.1813 15.4381C82.0818 15.7571 82.1032 16.1017 82.2415 16.4059C82.6112 17.0167 83.5312 16.7629 84.2276 16.9092C85.5689 17.1888 85.9128 18.9137 85.9472 20.2817C86.0045 21.8474 86.0476 23.4132 86.0762 24.979C86.1559 25.705 86.0621 26.4396 85.8028 27.1224C85.5435 27.8051 85.126 28.4165 84.5845 28.9064L79.344 35.2082C77.0183 38.0042 74.5507 41.2605 75.0193 44.8653C73.9188 45.36 72.6119 44.405 72.2508 43.2522C71.8897 42.0993 72.182 40.8605 72.4227 39.6775C72.8469 37.6324 73.1242 35.5594 73.2524 33.4746C73.3169 32.4251 73.3384 31.3238 72.8913 30.3818C72.4442 29.4397 71.3953 28.6612 70.3721 28.9236C69.0137 29.2419 68.429 31.0098 67.0963 31.4357C65.9786 31.7927 64.7491 31.0055 64.216 29.9473C63.6829 28.8891 63.6658 27.6675 63.6615 26.5061V22.5228C63.6615 21.0817 63.6142 19.5117 62.7243 18.3846C61.6195 16.9694 59.0186 16.3543 57.2818 16.4102C56.1251 16.4245 55.0159 16.8728 54.1737 17.6663C53.2279 18.4535 52.1532 19.0342 50.885 18.8277Z" fill="#7C5C5C"></path> <path opacity="0.1" d="M54.5432 68.6874L59.5127 89.1199C59.5127 89.1199 63.4333 89.0984 54.5432 68.6874Z" fill="black"></path> <path opacity="0.1" d="M71.5283 65.272C71.5283 65.272 65.0197 75.9399 67.5604 86.9649L68.7727 87.0552C68.7727 87.0552 66.606 81.9492 71.5283 65.272Z" fill="black"></path> <path opacity="0.1" d="M75.6555 125.632C75.6555 125.632 83.6473 122.986 84.2276 129.125C84.2276 129.125 82.7187 124.918 75.6555 125.632Z" fill="black"></path> <path opacity="0.1" d="M52.5571 90.389C52.5571 90.389 50.9708 101.509 53.8468 105.957C53.8468 105.957 48.0346 108.34 39.8752 107.862L38.908 90.389H52.5571Z" fill="black"></path> <path opacity="0.1" d="M53.6449 104.683L52.8754 105.113L47.9531 94.0239L52.5573 89.8944H52.7937C52.7207 90.4278 51.4396 99.9774 53.6449 104.683Z" fill="black"></path> <path d="M52.5574 89.8944C52.5574 89.8944 50.9711 101.01 53.8471 105.458C53.8471 105.458 48.0349 107.841 39.8755 107.363L34.3213 89.8944H52.5574Z" fill="#7C7CDD"></path> <path d="M38.8261 275.405C38.7341 276.197 38.3812 276.936 37.8231 277.505C37.265 278.075 36.5335 278.442 35.7437 278.549C31.4448 279.194 21.0499 280.838 18.4275 282.085C15.0958 283.672 1.91949 282.563 1.28325 280.975C1.10392 280.334 1.18583 279.647 1.51108 279.065C1.96974 278.095 2.72165 277.293 3.66056 276.773C3.96364 276.598 4.28335 276.454 4.61494 276.343C7.09545 275.512 11.7813 273.762 13.0495 271.912C13.0495 271.912 18.8918 266.797 20.5555 264.031C20.8693 263.488 21.3119 263.031 21.8442 262.699C22.3765 262.368 22.9822 262.172 23.6078 262.13C25.0006 262.066 26.5482 262.767 27.1802 265.817C27.1802 265.817 34.798 270.165 36.8572 266.35C36.8572 266.35 37.1753 272.209 38.4392 273.809C38.6063 274.036 38.7265 274.294 38.7929 274.568C38.8594 274.842 38.8706 275.126 38.8261 275.405Z" fill="#A27772"></path> <path opacity="0.1" d="M38.826 275.405C38.734 276.197 38.3811 276.936 37.8231 277.505C37.265 278.075 36.5334 278.442 35.7437 278.549C31.4447 279.194 21.0498 280.838 18.4275 282.085C15.0958 283.672 1.91949 282.563 1.28325 280.975C1.10392 280.334 1.18583 279.647 1.51108 279.065C1.96974 278.095 2.72164 277.293 3.66056 276.773C5.81003 278.201 10.5776 279.595 21.067 277.956C31.0707 276.394 36.0231 274.863 38.4391 273.818C38.6051 274.043 38.7247 274.3 38.7911 274.572C38.8575 274.845 38.8694 275.128 38.826 275.405Z" fill="black"></path> <g opacity="0.1"> <path opacity="0.1" d="M82.1466 15.6699V15.5924C82.3745 14.4009 82.7141 13.1706 82.6367 11.9834C82.5348 12.9578 82.3711 13.9248 82.1466 14.8784C82.0865 15.1388 82.0865 15.4095 82.1466 15.6699Z" fill="black"></path> <path opacity="0.1" d="M72.8784 30.5364C73.1287 31.1093 73.2617 31.7265 73.2696 32.3517C73.3432 31.4894 73.2091 30.622 72.8784 29.8224C72.4485 28.8717 71.3867 28.1232 70.3635 28.3641C69.0051 28.6824 68.4204 30.4504 67.0877 30.8762C65.9657 31.2333 64.7405 30.4461 64.2031 29.3879C63.6657 28.3297 63.6571 27.1081 63.6528 25.9466C63.6528 24.6174 63.6528 23.2925 63.6528 21.9633C63.6528 20.5223 63.6055 18.9522 62.7157 17.8252C61.6108 16.41 59.0057 15.7948 57.2732 15.8508C56.1163 15.8642 55.0068 16.3126 54.165 17.1068C53.2322 17.8983 52.1617 18.479 50.8935 18.2726C50.3664 18.1918 49.8727 17.9636 49.4696 17.6143C49.0665 17.2649 48.7702 16.8087 48.6151 16.2981C48.4818 15.7862 48.5162 15.2399 48.3657 14.7281C47.9917 13.4806 46.6462 12.831 45.7864 11.8847C44.9505 10.9628 44.4756 9.76967 44.4494 8.52515C44.3831 9.25947 44.4676 9.9996 44.6975 10.7001C44.9274 11.4006 45.2979 12.0467 45.7864 12.5988C46.6805 13.5451 48.0089 14.199 48.3657 15.4464C48.5162 15.954 48.4818 16.5003 48.6151 17.0122C48.7702 17.5227 49.0665 17.979 49.4696 18.3284C49.8727 18.6777 50.3664 18.9059 50.8935 18.9866C52.1832 19.1931 53.2322 18.6124 54.165 17.8209C55.0068 17.0267 56.1163 16.5783 57.2732 16.5648C58.9928 16.5089 61.6108 17.1283 62.7157 18.5393C63.6055 19.6749 63.6485 21.2364 63.6528 22.6774C63.6528 24.0066 63.6528 25.3315 63.6528 26.6607C63.6528 27.8393 63.6528 29.0653 64.2031 30.102C64.7534 31.1387 65.9657 31.9473 67.0877 31.5903C68.4204 31.1602 69.0051 29.3965 70.3635 29.0782C71.3996 28.8416 72.4356 29.5858 72.8784 30.5364Z" fill="black"></path> <path opacity="0.1" d="M85.9259 26.1616C85.6362 26.9777 85.176 27.7226 84.576 28.3468C82.8307 30.4489 81.0838 32.5495 79.3356 34.6487C77.1302 37.3027 74.7916 40.3741 74.9635 43.7594C75.1226 40.6537 77.285 37.8275 79.3356 35.3627L84.576 29.0652C85.1752 28.4387 85.6352 27.6925 85.9259 26.8757C86.0557 26.3119 86.102 25.7322 86.0635 25.155C86.0591 25.4949 86.0129 25.833 85.9259 26.1616Z" fill="black"></path> <path opacity="0.1" d="M72.2593 42.6928C72.1745 42.413 72.1226 42.1243 72.1045 41.8325C72.0595 42.3595 72.1119 42.8903 72.2593 43.3983C72.6204 44.5511 73.9315 45.5018 75.0321 45.0071C75.002 44.7748 74.9848 44.5425 74.9762 44.3102C73.8671 44.7662 72.5946 43.8285 72.2593 42.6928Z" fill="black"></path> </g> <path opacity="0.1" d="M19.4939 265.464C19.4939 265.464 21.1533 268.385 27.1632 265.812L19.4939 265.464Z" fill="black"></path> <path opacity="0.1" d="M70.3247 266.182C70.3247 266.182 75.5092 272.29 82.0436 268.182L70.3247 266.182Z" fill="black"></path> <path opacity="0.1" d="M85.4183 193.928C85.4183 193.928 81.7513 196.221 81.6352 197.533C81.5191 198.845 83.5267 196.578 83.5267 196.578L85.4183 193.928Z" fill="black"></path> <path opacity="0.1" d="M86.8757 211.492C85.6016 212.553 84.0176 213.172 82.3618 213.255C79.6234 213.376 79.8513 216.951 81.6396 215.875C83.428 214.8 86.8757 211.492 86.8757 211.492Z" fill="black"></path> <path opacity="0.1" d="M87.5592 213.784C87.5592 213.784 85.801 222.431 84.3738 220.762L87.5592 213.784Z" fill="black"></path> <defs> <linearGradient id="paint0_linear" x1="95183.7" y1="237752" x2="95183.7" y2="50497.3" gradientUnits="userSpaceOnUse"> <stop stop-color="#808080" stop-opacity="0.25"></stop> <stop offset="0.54" stop-color="#808080" stop-opacity="0.12"></stop> <stop offset="1" stop-color="#808080" stop-opacity="0.1"></stop> </linearGradient> </defs> </svg> 