<?xml version="1.0" encoding="UTF-8"?> <svg xmlns="http://www.w3.org/2000/svg" width="95" height="268" viewBox="0 0 95 268" fill="none"> <path d="M7.26511 51.258C16.9077 45.7092 20.5505 44.3332 20.5708 44.3251L20.7656 44.183C21.8172 43.3748 22.6533 42.3193 23.1995 41.1103C23.1995 40.887 23.1995 40.6678 23.1995 40.4486V40.5136C23.0454 37.5748 20.9562 34.8998 18.9725 32.5658L13.9058 26.5989C13.328 26.0099 12.8826 25.3041 12.5996 24.5288C12.495 24.1137 12.4486 23.6861 12.4617 23.2583C12.4617 23.0838 12.4617 22.9092 12.4617 22.7387C12.486 21.2572 12.5306 19.7715 12.5833 18.2737C12.632 16.9789 12.9647 15.3471 14.2587 15.0792C14.9321 14.9412 15.8205 15.1847 16.1775 14.6043C16.2972 14.3671 16.3275 14.0948 16.2627 13.8371C16.2646 13.8574 16.2646 13.8777 16.2627 13.898V13.8249C16.0108 12.8253 15.8492 11.8051 15.78 10.7765C15.7545 10.2538 15.826 9.73077 15.9909 9.23407C16.7414 7.08274 19.3214 6.20191 21.6052 5.796C23.8891 5.39009 26.4448 5.04101 27.8768 3.255C28.319 2.70296 28.6192 2.03727 29.1222 1.538C29.7829 0.952305 30.5883 0.554269 31.4547 0.385213C34.2873 -0.315265 37.2721 -0.0554384 39.9412 1.12397C41.0446 1.61512 42.152 2.28081 43.3609 2.20775C44.5698 2.13469 45.6934 1.26198 46.9348 1.05091C48.9387 0.709941 50.8575 2.18339 51.8433 3.92475C52.4288 4.96051 52.7415 6.12824 52.752 7.31817C52.752 7.38311 52.752 7.45212 52.752 7.51707C52.7817 8.79626 52.3149 10.0372 51.4498 10.9795C50.5857 11.8765 49.2957 12.4935 48.9387 13.6747C48.7927 14.1537 48.8292 14.6733 48.6994 15.1604C48.6994 15.2213 48.6629 15.2821 48.6426 15.339L48.7075 15.4242C50.776 18.0768 51.8959 21.3469 51.8879 24.7115C51.8668 27.9753 50.8087 31.1479 48.8667 33.7704C46.9248 36.3929 44.1995 38.3294 41.0851 39.2999C41.0851 39.4501 41.0851 39.6043 41.0851 39.7545C41.0851 41.5974 41.6084 43.4767 43.1824 44.8609L56.837 50.3569C56.837 50.3569 65.0679 49.3787 68.0373 61.418C68.5151 63.4168 68.6874 65.4765 68.5484 67.527C68.4389 69.3414 68.6904 72.5399 70.7999 76.6762C74.179 83.2925 73.4083 98.4817 66.5039 99.9877C59.9849 101.408 57.4333 100.799 57.1737 100.747V101.011C57.2792 103.852 58.3136 128.446 62.0741 131.421C63.1126 132.233 62.9178 132.801 62.0741 133.175C62.0741 133.175 62.0741 133.333 62.0984 133.617C62.212 135.416 62.7921 142.263 65.3072 146.16C68.2239 150.67 67.9197 176.693 67.9197 176.693L69.879 192.048C69.879 192.048 68.662 201.522 69.879 203.178C70.9743 204.652 72.4347 239.71 72.7186 247.305H72.8484C73.4494 247.341 74.0323 247.524 74.5464 247.837C75.0605 248.151 75.4901 248.585 75.7976 249.103C77.4203 251.725 83.059 256.568 83.059 256.568C84.276 258.309 88.8153 259.973 91.2128 260.761C91.5341 260.864 91.844 261 92.1377 261.167C93.0333 261.656 93.7528 262.414 94.1944 263.334C94.3505 263.606 94.4506 263.906 94.489 264.217C94.5273 264.528 94.503 264.843 94.4175 265.145C93.8009 266.647 81.0631 267.698 77.8421 266.196C75.3068 265.011 65.2666 263.456 61.1005 262.847C60.344 262.751 59.6408 262.406 59.1012 261.867C58.5616 261.328 58.2161 260.625 58.1189 259.868C58.0821 259.604 58.0991 259.336 58.1688 259.079C58.2386 258.823 58.3596 258.583 58.5245 258.374C59.3359 257.384 59.7415 254.684 59.9159 252.923C59.5772 252.786 59.2612 252.599 58.9789 252.367C59.3209 246.902 58.5381 241.426 56.6788 236.276C53.6079 228.158 52.6871 213.111 53.4335 203.337C53.4335 203.337 44.0708 163.03 36.704 159.267C36.5904 159.409 33.0165 164.004 32.5622 178.215C32.0997 192.653 26.8829 202.127 26.8829 202.127C26.8829 202.127 29.1871 226.644 26.8829 235.818L29.897 250.292C30.116 250.102 30.258 249.956 30.258 249.956C30.258 249.956 30.1688 250.361 30.043 251.003L30.1079 251.307L29.9781 251.34C29.6374 253.15 29.1303 256.304 29.3372 258.155C29.4589 259.206 29.7428 260.651 29.9538 262.068C30.2702 264.296 30.3594 266.456 29.1871 266.939C27.2683 267.71 15.9869 268.765 14.0681 266.285C13.6377 265.779 13.3572 265.163 13.2582 264.506C13.1593 263.849 13.2459 263.178 13.5083 262.567C13.648 262.226 13.8366 261.908 14.0681 261.621C14.0681 261.621 17.0618 256.722 16.218 253.268C16.138 252.93 16.1285 252.58 16.1899 252.238C16.2513 251.897 16.3824 251.571 16.575 251.283C16.4452 249.586 15.7637 241.74 13.991 235.075C12.0722 227.837 8.01963 211.97 11.0012 201.534C11.1148 201.128 11.2447 200.723 11.3826 200.317C13.1031 194.621 13.6767 188.64 13.0702 182.72C14.177 177.666 14.177 172.432 13.0702 167.377C11.2285 158.954 9.94247 150.682 9.94247 150.682C9.94247 150.682 8.92429 139.556 9.81268 132.732L9.87354 132.294L9.38672 132.185C9.38672 132.185 11.9952 120.604 12.916 113.237C13.1351 111.495 13.419 109.291 13.7273 106.937C12.877 106.801 12.0397 106.593 11.2244 106.316C2.9651 103.446 0.368866 77.5814 0.368866 77.5814V69.382C0.368866 69.382 -2.40586 56.8231 7.26511 51.258ZM69.0068 250.995C69.2624 250.865 69.4125 250.78 69.4125 250.78L69.0068 250.995Z" fill="url(#paint0_linear)"></path> <path d="M12.267 200.536C8.67287 210.878 12.8674 227.663 14.8146 235.156C16.7618 242.649 17.3622 251.648 17.3622 251.648C25.0008 252.846 30.5421 251.344 30.5421 251.344L27.3982 235.919C29.6456 226.778 27.3982 202.346 27.3982 202.346C27.3982 202.346 32.4893 192.905 32.9396 178.515C33.3817 164.349 36.8704 159.774 36.9962 159.632C44.1845 163.379 53.3241 203.552 53.3241 203.552C52.5736 213.294 53.4742 228.28 56.468 236.374C58.2838 241.515 59.0481 246.969 58.7153 252.411C59.762 253.296 61.2183 253.446 62.7922 253.195C67.0557 252.484 72.1711 248.799 72.1711 248.799C72.1711 248.799 70.5485 205.037 69.3315 203.385C68.1145 201.733 69.3315 192.292 69.3315 192.292L67.3884 177.005C67.3884 177.005 67.6845 151.072 64.8408 146.562C62.3825 142.677 61.8187 135.854 61.7091 134.064C61.7091 133.78 61.6848 133.621 61.6848 133.621L57.3523 128.426C57.3523 128.426 15.4069 125.28 12.263 128.426C11.4882 129.201 11.0136 130.955 10.7296 133.167C9.86555 139.966 10.8553 151.055 10.8553 151.055C10.8553 151.055 12.1129 159.299 13.91 167.698C14.9924 172.736 14.9924 177.946 13.91 182.984C14.5065 188.886 13.9485 194.848 12.267 200.536Z" fill="#65617D"></path> <path d="M14.8875 266.261C16.7617 268.733 27.7714 267.682 29.6455 266.915C30.7895 266.44 30.7003 264.288 30.392 262.068C30.1972 260.655 29.9092 259.227 29.7916 258.167C29.4914 255.468 30.6921 249.996 30.6921 249.996C30.6921 249.996 28.2176 252.618 27.6213 249.996C27.3576 248.851 26.4367 248.263 25.4834 247.967C24.1992 247.581 22.8193 247.667 21.5931 248.21C19.65 249.054 16.4006 250.857 16.9848 253.292C17.7961 256.734 14.8875 261.617 14.8875 261.617C14.6621 261.904 14.479 262.221 14.3439 262.559C14.0872 263.167 14.0022 263.833 14.0981 264.486C14.1939 265.139 14.467 265.753 14.8875 266.261Z" fill="#A27772"></path> <path opacity="0.1" d="M14.8877 266.261C16.7619 268.733 27.7715 267.681 29.6456 266.914C30.7896 266.439 30.7004 264.288 30.3921 262.068C29.2116 262.62 27.1995 263.083 23.8487 262.77C23.0654 262.697 22.2782 262.673 21.4919 262.697C19.1087 262.806 16.721 262.759 14.3441 262.555C14.0866 263.163 14.0012 263.83 14.097 264.484C14.1929 265.138 14.4664 265.752 14.8877 266.261Z" fill="black"></path> <path opacity="0.1" d="M53.3119 203.535C52.5614 213.277 53.462 228.264 56.4558 236.357C58.2716 241.498 59.0359 246.952 58.7031 252.395C59.7497 253.28 61.2061 253.43 62.78 253.178C61.8754 246.846 58.0257 219.618 55.539 198.1C52.748 173.595 39.6046 156.734 39.6046 156.734L36.984 159.62C44.1805 163.362 53.3119 203.535 53.3119 203.535Z" fill="black"></path> <path d="M19.3824 46.0055L21.212 54.9964L30.169 70.0598L41.2152 65.339C41.2152 65.339 56.2246 49.6018 46.793 47.3531C45.6631 47.1116 44.5963 46.636 43.6613 45.9568C41.8074 44.5604 41.2273 42.5268 41.2273 40.5379C41.2273 37.254 42.7607 34.0879 42.7607 34.0879L23.4391 27.9993C24.2372 30.5398 24.7035 33.173 24.8264 35.8333C24.9725 41.1102 23.0172 43.6918 21.4148 44.9298C20.815 45.4192 20.1243 45.7848 19.3824 46.0055Z" fill="#FBBEBE"></path> <path opacity="0.1" d="M23.4269 28.0195C24.225 30.5601 24.6913 33.1933 24.8142 35.8536C25.1655 36.2728 25.5407 36.6712 25.9379 37.047C27.9323 38.9546 30.4055 40.2864 33.0953 40.901C35.7851 41.5156 38.5909 41.3901 41.2151 40.5378C41.2151 37.254 42.7485 34.0879 42.7485 34.0879L23.4269 28.0195Z" fill="black"></path> <path d="M21.2119 25.5476C21.2127 28.5715 22.1098 31.5273 23.7897 34.0409C25.4696 36.5546 27.8568 38.5133 30.6493 39.6692C33.4419 40.8251 36.5143 41.1263 39.478 40.5347C42.4417 39.9431 45.1634 38.4853 47.2989 36.3456C49.4344 34.2059 50.8878 31.4806 51.4751 28.5143C52.0624 25.5481 51.7573 22.4741 50.5984 19.6814C49.4395 16.8887 47.4788 14.5026 44.9645 12.825C42.4501 11.1474 39.495 10.2537 36.4729 10.2569C34.4653 10.2505 32.4762 10.6417 30.6205 11.4081C28.7647 12.1745 27.0788 13.3009 25.6602 14.7223C24.2415 16.1437 23.1181 17.8321 22.3546 19.69C21.5911 21.548 21.2028 23.5387 21.2119 25.5476Z" fill="#FBBEBE"></path> <path opacity="0.1" d="M19.3824 46.0056L21.212 54.9965L30.169 70.0598L41.2152 65.3391C41.2152 65.3391 56.2246 49.6019 46.793 47.3532C45.6631 47.1117 44.5963 46.6361 43.6613 45.9569C45.3651 50.6451 38.3309 60.3951 38.3309 60.3951C37.5196 61.6128 35.6333 60.8416 35.6333 60.8416C31.1061 60.1597 22.7616 47.1178 21.4026 44.9502C20.8048 45.4309 20.1184 45.7895 19.3824 46.0056Z" fill="black"></path> <path opacity="0.1" d="M10.7336 133.191C13.3907 133.796 28.1081 137.06 33.69 136.244C39.8277 135.343 51.7704 134.746 51.7704 134.746C51.7704 134.746 59.3725 135.152 61.7131 134.088C61.7131 133.804 61.6888 133.646 61.6888 133.646L57.3563 128.45C57.3563 128.45 15.4109 125.304 12.267 128.45C11.4922 129.217 11.0176 130.971 10.7336 133.191Z" fill="black"></path> <path d="M38.3308 60.8415C38.3308 60.8415 46.2331 49.8819 43.2555 45.6239L56.6059 51.0996C56.6059 51.0996 64.642 50.1255 67.5587 62.1242C68.0243 64.118 68.1924 66.1698 68.0577 68.2129C67.9522 70.0232 68.1956 73.2096 70.2564 77.3296C73.5544 83.9257 72.8039 99.0621 66.0618 100.564C59.3197 102.066 56.9263 101.311 56.9263 101.311C56.9263 101.311 57.8228 128.742 61.7172 131.888C65.6115 135.034 51.7907 134.287 51.7907 134.287C51.7907 134.287 39.848 134.888 33.7062 135.785C27.5645 136.682 10.3401 132.639 10.3401 132.639C10.3401 132.639 12.8877 121.095 13.7842 113.752C14.6807 106.409 16.782 90.7693 16.782 90.7693L1.50078 70.0679C1.50078 70.0679 -1.19282 57.5536 8.24287 52.0089C17.6786 46.4641 21.224 45.1084 21.224 45.1084C21.224 45.1084 30.6922 60.533 35.6331 61.2921C35.6331 61.2921 37.5114 62.0471 38.3308 60.8415Z" fill="#7C7CDD"></path> <path opacity="0.1" d="M55.8553 65.1888C55.8553 65.1888 56.0054 70.1369 55.1089 72.0893C54.2123 74.0418 50.9143 84.8309 50.9143 84.8309H58.4028C58.4028 84.8309 54.3462 80.4836 54.6586 78.385C54.9709 76.2865 55.8553 65.1888 55.8553 65.1888Z" fill="black"></path> <path d="M33.6861 102.512C33.6861 102.512 50.229 98.4533 51.7705 95.0152C53.312 91.5772 57.5674 83.8567 57.5674 83.8567L55.823 81.5024L47.7747 87.8225C47.7747 87.8225 38.189 95.4658 33.6943 96.2167C29.1995 96.9676 33.6861 102.512 33.6861 102.512Z" fill="#FBBEBE"></path> <path opacity="0.05" d="M33.6861 102.512C33.6861 102.512 50.229 98.4533 51.7705 95.0152C53.312 91.5772 57.5674 83.8567 57.5674 83.8567L55.823 81.5024L47.7747 87.8225C47.7747 87.8225 38.189 95.4658 33.6943 96.2167C29.1995 96.9676 33.6861 102.512 33.6861 102.512Z" fill="black"></path> <path d="M19.3822 83.0286V92.0074H20.8264C27.9533 92.0087 34.9626 93.8247 41.1947 97.2842L43.8964 98.7861L44.6225 99.192L49.2673 88.7276L44.9227 84.8308H44.6996C43.6368 84.9323 39.0406 85.3179 37.0934 84.6604C35.2436 84.0312 32.9476 82.0382 27.4995 83.4426C24.814 84.1286 22.5221 87.1405 19.9177 86.1988L19.3822 83.0286Z" fill="#FBBEBE"></path> <path opacity="0.1" d="M4.92854 66.6907L1.93069 70.0598V78.2307C1.93069 78.2307 4.47824 104.01 12.5671 106.86C20.656 109.709 35.0936 105.208 35.0936 105.208C35.0936 105.208 38.8257 95.3155 37.0813 94.7188C35.337 94.1221 21.6662 90.5055 21.6662 90.5055C21.6662 90.5055 21.8568 75.3812 18.863 70.8838C18.863 70.8838 20.8102 56.7986 14.0681 56.4983C7.32602 56.1979 4.92854 66.6907 4.92854 66.6907Z" fill="black"></path> <path d="M4.47835 66.6907L1.4805 70.0598V78.2307C1.4805 78.2307 4.01995 104.01 12.1332 106.86C20.2464 109.709 34.6636 105.208 34.6636 105.208C34.6636 105.208 38.3917 95.3155 36.6473 94.7188C34.903 94.1221 21.2322 90.5055 21.2322 90.5055C21.2322 90.5055 21.4269 75.3812 18.4291 70.8838C18.4291 70.8838 20.3762 56.7986 13.6341 56.4983C6.89201 56.1979 4.47835 66.6907 4.47835 66.6907Z" fill="#7C7CDD"></path> <path opacity="0.1" d="M25.4023 32.0422C25.3414 31.0558 25.3211 30.0126 25.743 29.1237C26.1649 28.2347 27.1547 27.5244 28.1202 27.7517C29.4021 28.0521 29.9538 29.7204 31.2113 30.1222C32.2701 30.4591 33.4262 29.7163 33.9292 28.7178C34.4323 27.7192 34.4485 26.5664 34.4526 25.4705C34.4526 24.2203 34.4526 22.966 34.4526 21.7158C34.4526 20.3519 34.4972 18.8744 35.3369 17.8109C36.3794 16.4755 38.8337 15.895 40.4726 15.9478C41.5642 15.9605 42.6112 16.3836 43.4055 17.1331C44.2817 17.8759 45.2959 18.4279 46.4926 18.229C46.9897 18.1536 47.4554 17.9391 47.8358 17.6101C48.2163 17.2811 48.496 16.8512 48.6426 16.37V16.3212C47.369 14.6375 45.7605 13.2361 43.9187 12.2053C42.0769 11.1745 40.0416 10.5367 37.9411 10.3321C35.8407 10.1276 33.7207 10.3607 31.7148 11.0168C29.7089 11.6728 27.8606 12.7376 26.2864 14.144C24.7122 15.5504 23.4463 17.2679 22.5684 19.1882C21.6906 21.1085 21.2199 23.1899 21.186 25.3013C21.1521 27.4127 21.5557 29.5082 22.3715 31.4557C23.1872 33.4033 24.3973 35.1605 25.9255 36.6168C25.6653 35.103 25.4906 33.5757 25.4023 32.0422Z" fill="black"></path> <path d="M46.5008 17.7663C46.9982 17.6901 47.4641 17.4748 47.8445 17.1452C48.2249 16.8155 48.5044 16.385 48.6508 15.9032C48.7766 15.4202 48.7441 14.9046 48.8861 14.4216C49.235 13.2445 50.5087 12.6315 51.3201 11.7385C53.0076 9.94441 52.8981 6.99749 51.7014 4.83805C50.7359 3.10075 48.8617 1.63541 46.9105 1.97232C45.6935 2.18339 44.651 3.04798 43.4218 3.12511C42.1927 3.20223 41.1623 2.53654 40.0832 2.04538C37.4864 0.86853 34.567 0.609473 31.8037 1.31069C30.9543 1.48141 30.1667 1.87825 29.5239 2.45941C29.089 3.00766 28.6828 3.57805 28.3069 4.1683C26.9073 5.95025 24.4085 6.29933 22.1814 6.70118C19.9543 7.10303 17.4392 7.98386 16.7049 10.1271C16.2222 11.5478 16.705 13.0902 16.9686 14.5677C17.0626 14.8688 17.0423 15.1939 16.9118 15.481C16.563 16.0574 15.6949 15.8179 15.0377 15.9559C13.772 16.2198 13.4475 17.8475 13.415 19.1383C13.3609 20.6158 13.3204 22.0933 13.2933 23.5708C13.2182 24.256 13.3066 24.9491 13.5513 25.5934C13.796 26.2376 14.19 26.8146 14.7009 27.2768L19.646 33.2234C21.8406 35.8618 24.1691 38.9346 23.727 42.3361C24.7654 42.8029 25.9987 41.9018 26.3394 40.8139C26.6802 39.7261 26.4043 38.5571 26.1771 37.4408C25.7769 35.5109 25.5152 33.5549 25.3942 31.5876C25.3334 30.5972 25.3131 29.558 25.735 28.6691C26.1569 27.7801 27.1467 27.0454 28.1122 27.293C29.394 27.5934 29.9457 29.2617 31.2033 29.6636C32.258 30.0005 33.4182 29.2577 33.9212 28.2591C34.4243 27.2606 34.4405 26.1078 34.4445 25.0118V21.2531C34.4445 19.8933 34.4892 18.4117 35.3289 17.3482C36.3714 16.0128 38.8257 15.4323 40.4646 15.4851C41.5561 15.4986 42.6028 15.9216 43.3975 16.6704C44.29 17.4132 45.3041 17.9612 46.5008 17.7663Z" fill="#7C5C5C"></path> <path opacity="0.1" d="M43.0486 64.8154L38.3592 84.0962C38.3592 84.0962 34.6596 84.0759 43.0486 64.8154Z" fill="black"></path> <path opacity="0.1" d="M27.021 61.5925C27.021 61.5925 33.1627 71.6591 30.7653 82.0626L29.6213 82.1479C29.6213 82.1479 31.6658 77.3297 27.021 61.5925Z" fill="black"></path> <path opacity="0.1" d="M23.1265 118.55C23.1265 118.55 15.5852 116.054 15.0376 121.846C15.0376 121.846 16.4614 117.876 23.1265 118.55Z" fill="black"></path> <path opacity="0.1" d="M44.9228 85.2937C44.9228 85.2937 46.4197 95.7865 43.7058 99.9836C43.7058 99.9836 49.1903 102.232 56.8898 101.782L57.8025 85.2937H44.9228Z" fill="black"></path> <path opacity="0.1" d="M43.8964 98.7821L44.6225 99.188L49.2673 88.7237L44.9227 84.8269H44.6996C44.7686 85.3302 45.9774 94.3415 43.8964 98.7821Z" fill="black"></path> <path d="M44.9228 84.8269C44.9228 84.8269 46.4196 95.3157 43.7058 99.5128C43.7058 99.5128 49.1903 101.762 56.8897 101.311L62.1309 84.8269H44.9228Z" fill="#7C7CDD"></path> <path d="M57.8797 259.88C57.9665 260.628 58.2995 261.325 58.8261 261.862C59.3528 262.399 60.0431 262.746 60.7883 262.847C64.8449 263.456 74.6539 265.007 77.1284 266.184C80.2723 267.682 92.7058 266.634 93.3062 265.137C93.4754 264.531 93.3982 263.883 93.0912 263.334C92.6584 262.418 91.9489 261.661 91.0629 261.171C90.7769 261.006 90.4752 260.87 90.1623 260.765C87.8217 259.981 83.3999 258.329 82.2032 256.584C82.2032 256.584 76.6903 251.758 75.1204 249.148C74.8242 248.635 74.4066 248.203 73.9043 247.891C73.402 247.578 72.8305 247.393 72.2402 247.354C70.9258 247.293 69.4654 247.954 68.8691 250.832C68.8691 250.832 61.6808 254.936 59.7376 251.336C59.7376 251.336 59.4375 256.864 58.2448 258.374C58.0872 258.588 57.9737 258.832 57.911 259.09C57.8483 259.349 57.8377 259.617 57.8797 259.88Z" fill="#A27772"></path> <path opacity="0.1" d="M57.8798 259.88C57.9666 260.628 58.2996 261.325 58.8262 261.862C59.3528 262.399 60.0432 262.746 60.7884 262.847C64.845 263.456 74.6539 265.007 77.1284 266.184C80.2723 267.682 92.7058 266.634 93.3062 265.137C93.4754 264.531 93.3982 263.883 93.0912 263.334C92.6584 262.418 91.9489 261.661 91.0629 261.171C89.0346 262.518 84.5358 263.834 74.6377 262.287C65.1979 260.814 60.5247 259.369 58.2449 258.382C58.0883 258.595 57.9754 258.838 57.9127 259.095C57.8501 259.352 57.8389 259.619 57.8798 259.88Z" fill="black"></path> <g opacity="0.1"> <path opacity="0.1" d="M17.0012 14.7868V14.7137C16.7862 13.5893 16.4657 12.4284 16.5387 11.3081C16.6349 12.2276 16.7893 13.14 17.0012 14.0399C17.0579 14.2856 17.0579 14.541 17.0012 14.7868Z" fill="black"></path> <path opacity="0.1" d="M25.7471 28.8152C25.511 29.3557 25.3855 29.9382 25.378 30.5281C25.3085 29.7144 25.4351 28.896 25.7471 28.1413C26.1528 27.2443 27.1548 26.538 28.1202 26.7653C29.4021 27.0657 29.9539 28.734 31.2114 29.1358C32.2702 29.4727 33.4263 28.7299 33.9334 27.7314C34.4405 26.7328 34.4486 25.58 34.4526 24.4841C34.4526 23.2298 34.4526 21.9796 34.4526 20.7253C34.4526 19.3655 34.4973 17.884 35.337 16.8205C36.3795 15.485 38.8378 14.9046 40.4727 14.9573C41.5643 14.97 42.6113 15.3931 43.4056 16.1426C44.2859 16.8895 45.296 17.4375 46.4927 17.2426C46.9901 17.1665 47.4559 16.9511 47.8364 16.6215C48.2168 16.2918 48.4963 15.8613 48.6427 15.3795C48.7685 14.8965 48.736 14.381 48.878 13.8979C49.2309 12.7208 50.5006 12.1078 51.312 11.2148C52.1008 10.3449 52.5488 9.21905 52.5736 8.04468C52.6361 8.73761 52.5564 9.43601 52.3395 10.097C52.1225 10.758 51.7729 11.3677 51.312 11.8887C50.4682 12.7817 49.2147 13.3986 48.878 14.5758C48.736 15.0548 48.7685 15.5703 48.6427 16.0533C48.4963 16.5351 48.2168 16.9656 47.8364 17.2953C47.4559 17.6249 46.9901 17.8403 46.4927 17.9164C45.2757 18.1113 44.2859 17.5633 43.4056 16.8164C42.6113 16.067 41.5643 15.6439 40.4727 15.6312C38.85 15.5784 36.3795 16.1629 35.337 17.4943C34.4973 18.5659 34.4567 20.0394 34.4526 21.3992C34.4526 22.6534 34.4526 23.9036 34.4526 25.1579C34.4526 26.2701 34.4526 27.4269 33.9334 28.4052C33.4141 29.3834 32.2702 30.1465 31.2114 29.8096C29.9539 29.4037 29.4021 27.7395 28.1202 27.4391C27.1426 27.2159 26.165 27.9181 25.7471 28.8152Z" fill="black"></path> <path opacity="0.1" d="M13.4352 24.6871C13.7086 25.4572 14.1428 26.1602 14.709 26.7492C16.356 28.7327 18.0043 30.7149 19.654 32.6958C21.7351 35.2002 23.9419 38.0984 23.7796 41.293C23.6296 38.3623 21.5891 35.6954 19.654 33.3696L14.709 27.427C14.1436 26.8359 13.7095 26.1318 13.4352 25.3609C13.3128 24.829 13.2691 24.282 13.3054 23.7373C13.3096 24.058 13.3531 24.3771 13.4352 24.6871Z" fill="black"></path> <path opacity="0.1" d="M26.3313 40.2862C26.4112 40.0222 26.4602 39.7497 26.4773 39.4744C26.5198 39.9717 26.4703 40.4726 26.3313 40.9519C25.9905 42.0397 24.7533 42.9368 23.7148 42.47C23.7432 42.2508 23.7594 42.0316 23.7675 41.8124C24.8141 42.2427 26.0149 41.3578 26.3313 40.2862Z" fill="black"></path> </g> <path opacity="0.1" d="M76.1223 250.499C76.1223 250.499 74.5565 253.255 68.8853 250.828L76.1223 250.499Z" fill="black"></path> <path opacity="0.1" d="M28.1567 251.177C28.1567 251.177 23.2645 256.941 17.0984 253.065L28.1567 251.177Z" fill="black"></path> <path opacity="0.1" d="M13.9141 182.996C13.9141 182.996 17.3744 185.16 17.484 186.398C17.5935 187.636 15.6991 185.497 15.6991 185.497L13.9141 182.996Z" fill="black"></path> <path opacity="0.1" d="M12.5388 199.57C13.7411 200.571 15.2358 201.155 16.7982 201.234C19.3823 201.348 19.1673 204.721 17.4797 203.706C15.7922 202.691 12.5388 199.57 12.5388 199.57Z" fill="black"></path> <path opacity="0.1" d="M11.8938 201.733C11.8938 201.733 13.5529 209.892 14.8997 208.317L11.8938 201.733Z" fill="black"></path> <defs> <linearGradient id="paint0_linear" x1="-89723.6" y1="224350" x2="-89723.6" y2="47650.7" gradientUnits="userSpaceOnUse"> <stop stop-color="#808080" stop-opacity="0.25"></stop> <stop offset="0.54" stop-color="#808080" stop-opacity="0.12"></stop> <stop offset="1" stop-color="#808080" stop-opacity="0.1"></stop> </linearGradient> </defs> </svg> 