<?xml version="1.0" encoding="UTF-8"?> <svg xmlns="http://www.w3.org/2000/svg" width="81" height="279" viewBox="0 0 81 279" fill="none"> <path d="M7.8374 266.016C6.43151 266.9 4.82476 267.397 3.37423 268.174C1.92371 268.951 0.512231 270.119 0.0993877 271.729C-0.0546569 272.229 -0.0289906 272.767 0.171917 273.25C0.532852 273.833 1.0852 274.272 1.73402 274.491C4.68077 275.802 7.86352 276.497 11.0876 276.534C14.3117 276.57 17.5093 275.948 20.4849 274.703C21.532 274.199 22.6133 273.769 23.7207 273.418C25.085 273.139 26.4735 272.997 27.8659 272.993C29.3294 272.907 30.7852 272.72 32.2231 272.434C32.9458 272.353 33.6308 272.068 34.198 271.612C34.7155 271.015 35.0266 270.266 35.0851 269.477C35.7453 265.122 34.7498 260.677 32.2956 257.022C31.9864 256.51 31.5718 256.07 31.0793 255.731C30.4789 255.42 29.8186 255.242 29.1435 255.211C26.354 254.87 23.4306 254.244 20.6132 254.177C18.5937 254.132 17.5783 255.094 16.1501 256.485C13.1988 259.443 11.4749 263.741 7.8374 266.016Z" fill="#323444"></path> <path d="M48.9486 265.602C48.9486 268.342 49.2778 271.243 50.9347 273.428C51.6925 274.374 52.6102 275.178 53.6461 275.804C57.1497 278.04 61.7914 278.862 65.4846 276.967C66.0813 276.699 66.5913 276.269 66.9575 275.726C67.5154 274.753 67.2197 273.54 66.9073 272.467L61.5626 253.908C58.1093 254.439 53.0324 254.814 49.964 256.569C47.738 257.838 48.9486 263.154 48.9486 265.602Z" fill="#323444"></path> <path d="M4.70202 151.326C4.37844 152.349 3.20686 152.824 2.56528 153.685C1.81213 154.696 1.89025 156.099 2.16361 157.329C2.5013 159.143 3.35134 160.821 4.61277 162.165C5.25295 162.83 6.04271 163.333 6.91615 163.63C7.78959 163.928 8.72139 164.012 9.6338 163.875C11.4302 163.534 12.9811 161.941 13.0425 160.113C13.0101 159.282 12.8327 158.462 12.5181 157.693L8.71326 146.669C8.69775 146.591 8.66583 146.517 8.61966 146.453C8.57348 146.388 8.51412 146.334 8.44549 146.295C8.3019 146.263 8.15153 146.289 8.02707 146.367C7.12886 146.792 5.32685 147.239 4.80243 148.173C4.27801 149.106 5.08138 150.314 4.70202 151.326Z" fill="#FBB3B2"></path> <path d="M2.92236 150.773C4.31152 150.555 5.52773 149.739 6.82762 149.202C8.12751 148.665 9.75657 148.458 10.85 149.353C11.1625 149.61 11.4637 149.962 11.871 149.957C11.317 147.223 10.4793 144.555 9.37161 141.996C9.33266 141.874 9.25661 141.766 9.15403 141.689C9.00198 141.627 8.83188 141.627 8.67983 141.689L4.92522 142.673C3.53606 143.036 3.37426 142.924 3.48026 144.294C3.50815 144.903 3.82057 150.773 2.92236 150.773Z" fill="#323444"></path> <path d="M2.50959 71.1713C1.9517 72.0322 1.9517 73.1055 1.9517 74.1173C1.9517 79.0644 2.00189 84.0395 2.73273 88.9363C2.90568 90.1102 3.12327 91.2842 3.23485 92.4692C3.3613 94.1189 3.3874 95.7747 3.31296 97.4276L2.75507 118.949C2.68812 121.582 2.55422 124.41 0.930741 126.479C0.438467 127.172 0.207223 128.018 0.278014 128.866C0.702014 134.266 1.59465 139.621 2.48171 144.959C3.90996 144.314 5.47043 144.016 7.03548 144.091C8.60052 144.166 10.1257 144.611 11.4861 145.39C14.3009 136.522 15.8578 127.301 16.1111 117.999C16.2394 113.421 16.0441 108.814 16.7471 104.292C17.9242 96.6785 17.4444 88.8693 16.5797 81.211C16.3063 78.7849 15.7261 76.2862 14.1752 74.4079C12.707 72.7645 10.7516 71.636 8.59621 71.1881C6.532 70.6459 4.68538 71.2049 2.50959 71.1713Z" fill="#5B5583"></path> <path opacity="0.1" d="M2.50959 71.1713C1.9517 72.0322 1.9517 73.1055 1.9517 74.1173C1.9517 79.0644 2.00189 84.0395 2.73273 88.9363C2.90568 90.1102 3.12327 91.2842 3.23485 92.4692C3.3613 94.1189 3.3874 95.7747 3.31296 97.4276L2.75507 118.949C2.68812 121.582 2.55422 124.41 0.930741 126.479C0.438467 127.172 0.207223 128.018 0.278014 128.866C0.702014 134.266 1.59465 139.621 2.48171 144.959C3.90996 144.314 5.47043 144.016 7.03548 144.091C8.60052 144.166 10.1257 144.611 11.4861 145.39C14.3009 136.522 15.8578 127.301 16.1111 117.999C16.2394 113.421 16.0441 108.814 16.7471 104.292C17.9242 96.6785 17.4444 88.8693 16.5797 81.211C16.3063 78.7849 15.7261 76.2862 14.1752 74.4079C12.707 72.7645 10.7516 71.636 8.59621 71.1881C6.532 70.6459 4.68538 71.2049 2.50959 71.1713Z" fill="black"></path> <path d="M9.32712 133.583C5.58545 152.796 7.62834 172.689 15.1962 190.735C15.85 192.071 16.3085 193.494 16.5575 194.961C16.8643 197.7 15.6035 200.333 14.8838 202.983C13.2101 209.009 14.1753 215.426 15.2464 221.592C15.6927 224.163 16.1521 226.733 16.6244 229.301C17.0875 231.805 17.5338 234.527 16.3733 236.797C17.372 240.967 17.9634 245.098 18.962 249.268C19.0679 249.598 19.1002 249.947 19.0568 250.291C18.8556 250.837 18.501 251.312 18.0359 251.661C17.2916 252.417 16.7566 253.354 16.4837 254.38C16.2107 255.407 16.2092 256.486 16.4793 257.513C19.0289 255.68 22.5827 256.323 25.495 257.513C28.4072 258.704 31.2748 260.308 34.4213 260.308C33.9638 256.608 33.5231 252.723 34.8843 249.251C35.6765 247.239 37.0713 245.338 37.0322 243.186C36.9932 241.258 35.816 239.536 35.5315 237.63C35.4257 236.444 35.4707 235.249 35.6654 234.075C36.413 227.232 35.565 220.323 34.717 213.492C34.6211 212.145 34.3044 210.823 33.7797 209.579C33.3836 208.774 32.7922 208.003 32.8034 207.103C32.8034 206.057 33.6458 205.208 33.9582 204.213C34.5161 202.379 33.4896 199.886 35.035 198.751C39.1076 195.755 37.5455 188.6 37.4562 183.541C37.3856 179.177 37.1996 174.817 36.8983 170.46C39.4625 177.685 40.5109 185.362 39.9779 193.01C39.7994 195.515 39.4702 198.148 40.4466 200.462C41.1941 202.239 42.6781 203.704 43.0798 205.588C43.3309 206.751 43.1524 207.952 43.2081 209.138C43.2639 210.323 43.6656 211.614 44.6865 212.212C44.7647 217.601 45.2445 223.364 45.3281 228.753C45.2739 231.508 45.4982 234.261 45.9976 236.97C46.248 237.832 46.3868 238.723 46.4105 239.62C46.2846 240.745 45.9873 241.844 45.529 242.879C44.5566 245.763 44.3025 248.843 44.7887 251.848C45.2748 254.854 46.4866 257.695 48.3185 260.124C49.6351 257.782 52.3799 256.541 55.0578 256.345C57.7357 256.149 60.3802 256.826 62.9744 257.508C62.5777 254.242 63.2263 250.934 64.8266 248.061C65.2556 247.413 65.5848 246.705 65.8029 245.959C66.1042 244.539 65.4012 243.125 65.0219 241.722C64.4026 239.486 64.6202 237.076 64.7652 234.74C65.252 226.914 64.9061 219.059 63.7331 211.306C63.552 209.779 63.1944 208.279 62.6675 206.834C62.4667 206.32 62.2212 205.828 62.0538 205.308C61.7906 204.376 61.6407 203.415 61.6075 202.446L60.9659 193.502C60.514 187.236 62.5671 181.048 64.0009 174.932C64.6425 172.193 65.3399 169.46 65.7694 166.676C66.3552 162.886 66.45 159.012 67.3092 155.272C68.0791 151.918 69.4683 148.648 69.7584 145.21C70.2047 139.883 67.9954 134.735 65.8531 129.849C64.9605 127.837 61.5852 128.038 59.415 127.68C44.0227 125.148 27.8102 125.131 13.2938 130.838C11.7925 131.462 10.4405 132.397 9.32712 133.583Z" fill="#3C354C"></path> <path d="M20.4238 34.3666L22.131 41.0187C22.5951 42.5443 22.8522 44.1256 22.8953 45.7199C22.9129 46.3015 22.7844 46.8781 22.5215 47.3969C22.2406 47.8229 21.8807 48.1911 21.4615 48.4814C20.2955 49.3702 19.4866 51.4441 18.1532 52.059C18.8394 53.2552 19.7878 52.4782 21.0264 53.0764C23.2077 54.1385 25.205 55.6645 27.5705 56.19C29.8021 56.6819 32.1452 56.218 34.3601 55.631C37.501 54.7757 40.6252 53.5962 43.1525 51.5335C45.6798 49.4708 47.1191 47.6485 47.108 44.3895C44.3185 44.7193 41.8359 41.8964 40.6029 39.3585C40.1754 38.3938 39.8609 37.3827 39.6656 36.3455L38.1705 29.7549C36.5414 30.1126 35.2137 31.281 33.6571 31.8903C32.1006 32.4996 30.2595 32.5555 28.5301 32.6337C25.4601 32.7736 22.4071 33.17 19.4029 33.8188C18.99 33.9027 18.4712 34.1654 18.5716 34.5679" fill="#FBB3B2"></path> <path opacity="0.1" d="M20.4238 34.3666L22.131 41.0187C22.5951 42.5443 22.8522 44.1256 22.8953 45.7199C22.9129 46.3015 22.7844 46.8781 22.5215 47.3969C22.2406 47.8229 21.8807 48.1911 21.4615 48.4814C20.2955 49.3702 19.4866 51.4441 18.1532 52.059C18.8394 53.2552 19.7878 52.4782 21.0264 53.0764C23.2077 54.1385 25.205 55.6645 27.5705 56.19C29.8021 56.6819 32.1452 56.218 34.3601 55.631C37.501 54.7757 40.6252 53.5962 43.1525 51.5335C45.6798 49.4708 47.1191 47.6485 47.108 44.3895C44.3185 44.7193 41.8359 41.8964 40.6029 39.3585C40.1754 38.3938 39.8609 37.3827 39.6656 36.3455L38.1705 29.7549C36.5414 30.1126 35.2137 31.281 33.6571 31.8903C32.1006 32.4996 30.2595 32.5555 28.5301 32.6337C25.4601 32.7736 22.4071 33.17 19.4029 33.8188C18.99 33.9027 18.4712 34.1654 18.5716 34.5679" fill="black"></path> <path d="M27.7544 38.0338C35.9133 38.0338 42.5274 31.4066 42.5274 23.2315C42.5274 15.0564 35.9133 8.4292 27.7544 8.4292C19.5954 8.4292 12.9813 15.0564 12.9813 23.2315C12.9813 31.4066 19.5954 38.0338 27.7544 38.0338Z" fill="#FBB3B2"></path> <path d="M31.8213 47.6317C32.6114 45.9221 33.7519 44.3984 35.1687 43.1597C37.2497 41.3318 40.095 39.8505 40.5859 37.1226L45.0937 42.3827C45.3387 42.6267 45.5289 42.9202 45.6516 43.2436C45.7085 43.5469 45.7 43.8589 45.6269 44.1587C45.5538 44.4585 45.4177 44.7392 45.2276 44.9821C44.1118 46.7653 42.3545 48.0398 40.6919 49.3311C36.8813 52.3555 33.2331 55.5798 29.7627 58.9906C29.6098 59.1686 29.4048 59.2937 29.1769 59.3484C28.9613 59.3543 28.749 59.2938 28.5688 59.1751C25.5745 57.5998 22.9247 55.4408 20.775 52.8249C20.6132 52.6292 20.4124 52.4056 20.1502 52.4224C19.9921 52.4515 19.8463 52.5274 19.7317 52.6404C18.231 53.8702 16.5908 55.3404 14.666 55.1503C17.1598 53.3559 18.5713 50.3597 19.0957 47.3243C19.1994 46.2854 19.4126 45.2605 19.7317 44.2666C19.8971 43.7693 20.182 43.3205 20.5615 42.9598C20.941 42.5991 21.4033 42.3375 21.9075 42.1983C20.6913 44.0597 21.5226 46.6982 23.1572 48.2019C24.7454 49.5527 26.6495 50.4778 28.6916 50.8907C30.5884 51.2485 31.1463 49.0963 31.8213 47.6317Z" fill="#323444"></path> <path d="M12.6016 135.104C14.7049 135.624 16.6966 136.507 18.7385 137.161C22.46 138.329 26.3765 138.741 30.259 138.374C31.454 138.348 32.6161 137.977 33.6064 137.306C33.8686 137.094 34.1085 136.842 34.3875 136.647C34.8541 136.366 35.3599 136.157 35.8882 136.026C41.0041 134.422 45.2887 130.962 49.4451 127.574C49.5789 127.462 49.7296 127.323 49.7184 127.144C49.6992 127.022 49.6404 126.91 49.5511 126.825L47.3641 124.31C41.6289 125.288 35.7543 124.919 29.9354 124.774C28.7408 124.72 27.5439 124.752 26.3537 124.869C25.2045 125.003 24.072 125.293 22.9394 125.539C18.6381 126.478 14.2418 126.836 9.88465 127.451C9.57982 127.474 9.28411 127.565 9.01992 127.719C8.83619 127.862 8.67936 128.036 8.55686 128.234L7.02823 130.386C6.43489 131.11 5.99796 131.949 5.74508 132.851C5.38803 134.528 6.13561 135.087 7.55824 134.869C9.23884 134.623 10.9511 134.702 12.6016 135.104Z" fill="#323444"></path> <path d="M29.7013 56.4304C27.9946 54.6781 26.0599 53.1645 23.9494 51.9304C23.0967 51.3878 22.1508 51.0087 21.1599 50.8124C20.6613 50.7138 20.1472 50.7258 19.6537 50.8474C19.1603 50.9691 18.6994 51.1976 18.3034 51.5168C17.8069 51.9584 17.4945 52.5733 17.0147 53.0372C16.4109 53.5455 15.7187 53.9378 14.9728 54.1944C12.4332 55.2816 10.026 56.6564 7.79825 58.2918C6.58388 59.143 5.4898 60.1546 4.5457 61.2993C2.01843 64.5415 1.63908 68.952 1.70603 73.0662C1.75624 75.9283 4.49552 78.0525 6.3812 80.1934C8.14981 82.3003 9.75034 84.5432 11.168 86.9014C12.1833 88.5114 13.2433 90.2554 13.115 92.1728C13.009 93.7436 12.0941 95.2194 12.2391 96.7846C12.2893 97.3436 12.4679 97.8578 12.5181 98.4001C12.6185 99.5181 12.1777 100.636 12.0662 101.754C11.9155 103.336 12.4288 104.907 12.4567 106.5C12.4362 107.591 12.2978 108.676 12.0438 109.737C10.9727 114.846 9.62816 119.983 9.90153 125.199L6.81076 125.758C7.10354 126.045 7.32465 126.398 7.45617 126.787C7.58769 127.176 7.62595 127.59 7.56782 127.997C7.5097 128.403 7.35681 128.791 7.12158 129.127C6.88635 129.463 6.5754 129.74 6.21384 129.933C11.0396 131.549 16.256 130.733 21.3719 130.727C25.6063 130.727 29.824 131.286 34.0528 131.208C38.2817 131.13 42.6445 130.364 46.1313 127.966C47.0797 127.317 47.95 126.557 48.9487 125.992C50.2863 125.298 51.7278 124.826 53.2166 124.595C55.9744 124.068 58.7777 123.817 61.585 123.846C62.9575 123.846 64.4526 123.902 65.5461 123.074C66.7512 122.158 67.058 120.497 67.2198 118.994C67.3816 117.406 67.482 115.813 67.5099 114.22C67.5567 112.979 67.4913 111.737 67.3146 110.508C67.1471 109.609 66.9292 108.721 66.6619 107.847L64.5586 100.424C63.6883 97.3603 64.8989 94.0007 65.1556 90.8256C65.2169 90.0766 65.2281 89.2045 64.6535 88.7238C64.4471 88.5505 64.1625 88.4331 64.0956 88.1648C64.0655 88.0374 64.0619 87.9052 64.0849 87.7763C64.108 87.6475 64.1572 87.5247 64.2295 87.4157C65.3453 85.1797 67.0189 83.2064 68.5476 81.1885C71.115 77.6487 73.4986 73.9787 75.6887 70.1929C75.0028 62.271 71.6735 54.8116 66.2379 49.018C65.1221 47.805 63.8445 46.6423 62.2824 46.0945C61.2616 45.7821 60.2029 45.6109 59.1359 45.5858C54.762 45.2895 50.2095 45.0268 46.3991 42.8243C46.1256 42.6345 45.8161 42.5032 45.4897 42.4386C44.6473 42.3436 44.0336 43.1765 43.4869 43.8361C42.081 45.5131 40.0112 46.4746 38.1924 47.71C34.8004 50.0186 32.1504 53.1938 29.7013 56.4304Z" fill="#5B5583"></path> <path d="M76.0681 72.479C76.9385 75.2405 76.8548 78.192 77.1393 81.0709C77.3078 82.8082 77.6119 84.5295 78.0487 86.2192C78.2481 87.148 78.6068 88.035 79.1087 88.841C79.6108 89.5788 80.3305 90.177 80.6485 91.0099C80.8223 91.5742 80.8996 92.1638 80.8772 92.754L80.9441 96.6111C81.0874 98.655 80.7768 100.705 80.0348 102.615L77.6302 109.943C76.3303 113.912 74.997 117.942 72.6538 121.397C72.3237 121.982 71.8235 122.452 71.22 122.744C70.7475 122.869 70.2632 122.944 69.7751 122.968C68.9245 123.12 68.1534 123.564 67.5944 124.224C67.0354 124.884 66.7235 125.719 66.7122 126.585C66.154 125.767 65.4572 125.054 64.6536 124.477L59.7608 120.564C58.0871 119.2 56.3409 117.814 54.3102 117.026C57.0415 116.171 59.4664 114.54 61.2906 112.331C63.1148 110.123 64.2598 107.431 64.5867 104.582C64.5849 103.734 64.7757 102.897 65.1446 102.134C65.5518 101.474 66.305 100.971 66.3608 100.194C66.4277 99.216 65.323 98.4781 65.323 97.4999C65.323 96.8514 65.8029 96.3148 66.0149 95.7055C66.213 94.9525 66.213 94.161 66.0149 93.408L65.3398 89.6515C65.3 89.2751 65.1863 88.9103 65.0051 88.5782C64.7525 88.2598 64.4725 87.9643 64.1682 87.695C63.0078 86.3925 63.5211 84.341 64.1682 82.7367C65.6543 79.1755 67.5691 75.8097 69.8699 72.7138C70.6889 71.6742 71.4471 70.588 72.1406 69.4604C72.7319 68.4319 72.8658 67.0064 73.4907 66.1064C74.294 68.2195 75.3819 70.3045 76.0681 72.479Z" fill="#5B5583"></path> <path d="M54.1373 117.255C53.8882 117.44 53.6731 117.667 53.5012 117.926C52.8439 118.753 51.9684 119.378 50.974 119.731C51.5319 120.134 52.0396 120.531 52.564 120.939C56.4441 123.941 59.9972 127.346 63.164 131.096C63.5155 129.838 65.6187 129.927 66.132 128.726C66.2529 128.382 66.2911 128.014 66.2436 127.652C66.137 125.769 65.8682 123.899 65.4402 122.062C65.2713 121.117 64.8897 120.222 64.3244 119.446C63.5434 118.501 62.3272 118.049 61.1667 117.657C59.4094 117.042 55.9225 116.176 54.1373 117.255Z" fill="#323444"></path> <path d="M47.1633 121.649C45.4896 122.89 44.0223 124.444 42.1422 125.293C40.8144 125.897 39.3025 126.16 38.1421 127.06C38.7725 128.452 40.4127 129.173 41.9358 129.117C43.4602 128.967 44.9214 128.43 46.1814 127.557C47.18 126.942 48.3516 126.227 49.4395 126.657C49.6069 127.507 48.8816 128.306 48.8816 129.167C48.8816 130.028 49.5957 130.654 50.2986 131.107C53.646 133.27 57.953 133.091 61.9419 132.84C62.1708 132.848 62.3961 132.782 62.5835 132.65C62.67 132.549 62.7357 132.432 62.7769 132.305C62.818 132.178 62.8339 132.045 62.8234 131.912C62.8736 131.029 62.896 130.151 62.9015 129.268C63.0143 128.556 62.922 127.826 62.6354 127.165C62.3488 126.503 61.8799 125.938 61.2836 125.534C59.119 123.669 56.7841 122.013 54.3099 120.587C51.8552 119.161 49.367 120.005 47.1633 121.649Z" fill="#FBB3B2"></path> <path d="M32.9427 17.0431C30.4656 17.3394 28.6637 19.2791 28.9147 21.3865C29.1658 23.494 31.375 24.9474 33.8521 24.6455C36.3291 24.3436 38.1311 22.4095 37.8801 20.3077C37.629 18.2058 35.4198 16.7468 32.9427 17.0431ZM33.7851 24.0642C31.6874 24.3157 29.8185 23.0803 29.6009 21.3027C29.3833 19.5251 30.9175 17.8816 33.0096 17.63C35.1018 17.3785 36.9763 18.6139 37.1939 20.3915C37.4114 22.1691 35.8772 23.8126 33.7851 24.0642Z" fill="#3C354C"></path> <path d="M20.8698 18.4969C18.3928 18.7932 16.5908 20.7329 16.8418 22.8348C17.0929 24.9366 19.3021 26.3956 21.7792 26.0993C24.2563 25.803 26.0583 23.8633 25.8073 21.7559C25.5562 19.6485 23.3469 18.2007 20.8698 18.4969ZM21.7123 25.5124C19.6146 25.7639 17.7456 24.5285 17.5336 22.7565C17.3216 20.9845 18.8447 19.3354 20.9424 19.0783C23.0401 18.8212 24.909 20.0621 25.121 21.8398C25.333 23.6174 23.8044 25.2608 21.7123 25.5124Z" fill="#3C354C"></path> <path d="M11.9047 19.5752L17.2884 20.7267L16.7583 22.1466L11.6815 20.6541L11.9047 19.5752Z" fill="#3C354C"></path> <path d="M41.9138 15.9644L36.9485 18.3625L37.8021 19.6146L42.3824 16.9594L41.9138 15.9644Z" fill="#3C354C"></path> <path d="M25.3108 20.3693L29.0878 19.9165L28.8925 20.8556L25.6511 21.0736L25.3108 20.3693Z" fill="#3C354C"></path> <path d="M17.9855 19.1003C18.3409 18.3344 18.531 17.502 18.5434 16.6575C18.5566 16.152 18.6431 15.6511 18.8 15.1705C19.0743 14.5602 19.4915 14.0252 20.0162 13.6109C21.7569 12.1352 24.2507 11.3749 26.711 11.2687C29.3937 11.1451 32.0623 11.723 34.4546 12.9457C35.1853 13.2888 35.8398 13.7754 36.3793 14.3768C37.1604 15.3326 37.3278 16.568 38.1144 17.5128C38.6512 18.086 39.3267 18.5106 40.0753 18.7457C40.824 18.9807 41.6205 19.0181 42.3879 18.8543C42.6612 17.8817 42.3042 16.8531 42.4437 15.8581C42.6635 15.0055 42.9604 14.1747 43.3307 13.3761C44.1954 10.8215 42.9346 7.85884 40.3348 6.33277C39.4254 5.77377 38.3487 5.41042 37.6681 4.65577C36.9874 3.90112 36.8256 3.11852 36.357 2.36387C35.1129 0.368244 31.8938 -0.565282 29.4447 0.357066C28.6748 0.647746 27.9941 1.08935 27.2131 1.40239C25.7625 2.00052 24.1112 2.10673 22.5156 2.30797C20.9429 2.45366 19.4048 2.85782 17.9632 3.50423C16.5852 4.18621 15.4303 5.28185 15.1123 6.5899C14.9617 7.19362 14.9952 7.8197 14.8445 8.41782C14.0746 11.4532 9.1038 12.929 8.82485 16.0258C8.72443 17.1438 9.33251 18.2171 10.0912 19.1282C10.6157 19.7487 11.871 21.409 12.758 21.6493C13.6451 21.8897 14.3201 21.0456 15.1681 20.7549C16.5071 20.3357 17.316 20.2463 17.9855 19.1003Z" fill="#CBCEDA"></path> </svg> 