<?xml version="1.0" encoding="UTF-8"?> <svg xmlns="http://www.w3.org/2000/svg" width="100" height="100" viewBox="0 0 100 100" fill="none"> <path d="M56.36 49.28C58.68 48.28 60 46.08 60 43.52C60 38.84 55.88 35.52 50.28 35.52C45.04 35.52 40.8 38.2 40 44H44.56C45.32 40.88 47.32 39.8 50.16 39.8C53.52 39.8 55.44 41.56 55.44 44.08C55.44 46.52 53.6 47.64 50.2 47.64H47.2V51.64H51C54.92 51.64 56.32 53.28 56.32 55.64C56.32 58.4 54.32 60.2 50.6 60.2C47.36 60.2 44.88 58.92 44.2 55.64H39.64C40.28 61.6 45 64.48 50.64 64.48C56.72 64.48 60.88 61.32 60.88 56.04C60.88 52.76 59.2 50.32 56.36 49.28Z" fill="#308F16"></path> <rect x="0.5" y="0.5" width="99" height="99" rx="49.5" stroke="black"></rect> </svg> 