<?xml version="1.0" encoding="UTF-8"?> <svg xmlns="http://www.w3.org/2000/svg" width="100" height="100" viewBox="0 0 100 100" fill="none"> <path d="M51.56 45.36C49.16 45.36 47.4 46.04 46 47.12L47.44 40.32H59.68V36H44.04L40.6 52.08H44.92C45.96 50.4 47.8 49.12 50.6 49.12C53.96 49.12 56.4 51.24 56.4 54.56C56.4 57.76 54.04 60.2 50.52 60.2C47.44 60.2 44.84 58.6 44.2 55.4H39.64C40.28 61.48 45.2 64.48 50.56 64.48C56.48 64.48 61 60.56 61 54.6C61 48.8 56.68 45.36 51.56 45.36Z" fill="#308F16"></path> <rect x="0.5" y="0.5" width="99" height="99" rx="49.5" stroke="black"></rect> </svg> 