<?xml version="1.0" encoding="UTF-8"?> <svg xmlns="http://www.w3.org/2000/svg" width="100" height="101" viewBox="0 0 100 101" fill="none"> <path d="M51.6 45.04C49.84 45.04 48.52 45.48 47.24 46.16L55 36H49.68C43.16 44.68 39.64 48.96 39.64 54.24C39.64 60.6 44.48 64.48 50.28 64.48C56.24 64.48 60.96 60.44 60.96 54.28C60.96 48.24 56.4 45.04 51.6 45.04ZM50.28 60.16C46.88 60.16 44.2 57.92 44.2 54.32C44.2 50.72 46.76 48.52 50.32 48.52C53.72 48.52 56.4 50.64 56.4 54.28C56.4 57.88 53.76 60.16 50.28 60.16Z" fill="#308F16"></path> <rect x="0.5" y="1.17188" width="99" height="99" rx="49.5" stroke="black"></rect> </svg> 