<?xml version="1.0" encoding="UTF-8"?> <svg xmlns="http://www.w3.org/2000/svg" width="35" height="35" viewBox="0 0 35 35" fill="none"> <path d="M17.5 0C7.85045 0 0 7.85045 0 17.5C0 21.9415 1.67014 26.1829 4.70359 29.4442C7.99054 32.9558 12.6224 34.9762 17.4218 34.998C17.4479 34.9981 17.4738 35 17.4999 35C17.4999 35 17.4999 35 17.4999 35C17.5 35 17.5 35 17.5 35C22.3274 35 26.9913 32.9749 30.2974 29.443C33.3299 26.1824 35 21.941 35 17.5C35 7.85045 27.1495 0 17.5 0ZM17.5 1.06061C26.5646 1.06061 33.9394 8.43539 33.9394 17.5C33.9394 21.3811 32.58 25.099 30.0978 28.0639C28.6062 24.372 25.6034 21.5892 21.9459 20.328C20.6778 21.1928 19.1474 21.7 17.5 21.7C15.8526 21.7 14.3221 21.1928 13.054 20.3279C9.39653 21.5891 6.39371 24.3719 4.902 28.0638C2.41964 25.0984 1.06061 21.3811 1.06061 17.5C1.06061 8.43539 8.43539 1.06061 17.5 1.06061Z" fill="#FF8925"></path> <path d="M17.4999 20.6394C21.2839 20.6394 24.3514 17.5718 24.3514 13.7879C24.3514 10.0039 21.2839 6.93634 17.4999 6.93634C13.7159 6.93634 10.6484 10.0039 10.6484 13.7879C10.6484 17.5718 13.7159 20.6394 17.4999 20.6394Z" fill="#FF8925"></path> </svg> 