<?xml version="1.0" encoding="UTF-8"?> <svg xmlns="http://www.w3.org/2000/svg" width="529" height="529" viewBox="0 0 529 529" fill="none"> <g opacity="0.1"> <rect y="254.278" width="529" height="20.4444" fill="white"></rect> <rect x="274.722" width="529" height="20.4444" transform="rotate(90 274.722 0)" fill="white"></rect> <rect x="252.128" y="179.437" width="352.775" height="20.1309" transform="rotate(75 252.128 179.437)" fill="white"></rect> <rect x="141.103" y="30.3252" width="529" height="20.4444" transform="rotate(60 141.103 30.3252)" fill="white"></rect> <rect x="84.6985" y="70.2432" width="529" height="20.4444" transform="rotate(45 84.6985 70.2432)" fill="white"></rect> <rect x="40.5474" y="123.398" width="529" height="20.4444" transform="rotate(30 40.5474 123.398)" fill="white"></rect> <rect x="11.6583" y="186.169" width="529" height="20.4444" transform="rotate(15 11.6583 186.169)" fill="white"></rect> <rect x="6.36694" y="323.083" width="529" height="20.4444" transform="rotate(-15 6.36694 323.083)" fill="white"></rect> <rect x="441.922" y="150.261" width="53.7293" height="20.4444" transform="rotate(-30 441.922 150.261)" fill="white"></rect> <rect x="30.3251" y="387.898" width="350.111" height="20.4444" transform="rotate(-30 30.3251 387.898)" fill="white"></rect> <rect x="70.2421" y="444.301" width="529" height="20.4444" transform="rotate(-45 70.2421 444.301)" fill="white"></rect> <rect x="336.405" y="119.513" width="102.985" height="20.4444" transform="rotate(-60 336.405 119.513)" fill="white"></rect> <rect x="123.397" y="488.453" width="350.111" height="20.4444" transform="rotate(-60 123.397 488.453)" fill="white"></rect> <rect x="186.168" y="517.343" width="529" height="20.4444" transform="rotate(-75 186.168 517.343)" fill="white"></rect> </g> </svg> 