<?xml version="1.0" encoding="UTF-8"?> <svg xmlns="http://www.w3.org/2000/svg" width="120" height="83" viewBox="0 0 120 83" fill="none"> <path d="M66.944 31.8232C62.0822 30.6634 55.6404 31.1271 54.1819 37.6222C57.6256 38.782 65.4854 39.2461 66.944 31.8232Z" fill="#63AF4F"></path> <path d="M56.5026 1.1603C54.1822 0.69622 52.8287 3.19063 52.442 4.93091C51.4751 4.06076 48.7873 3.30664 46.931 4.93091C45.0747 6.55517 46.0609 9.28158 46.931 10.4418C45.6742 10.7318 43.3923 12.1241 43.1603 14.2124C42.9283 16.3007 45.5774 17.8863 46.931 18.2731C46.1575 19.4333 45.3648 21.9277 47.2211 23.784C49.0774 25.6403 51.4751 24.6541 52.442 23.784C52.9254 25.0408 54.4143 27.3225 56.5026 27.5546C58.591 27.7866 59.8865 25.1375 60.2732 23.784C63.4637 25.2342 65.7841 24.3641 66.9443 22.9138C67.8725 21.7536 66.6542 19.3366 65.784 18.2731C67.8144 17.5963 71.237 15.7207 69.8448 13.6323C68.4526 11.544 66.6542 10.4418 65.784 10.4418C66.4608 9.18491 67.1763 6.84521 65.7841 5.22095C64.3919 3.59668 61.53 4.25413 60.2731 4.93091C59.9831 3.77072 58.823 1.62437 56.5026 1.1603Z" fill="#FF8925"></path> <path d="M57.3957 53.8781C47.1808 43.6621 51.3447 25.0613 51.5234 24.2759L52.9139 24.5973C52.8709 24.7893 48.7418 43.2194 58.405 52.8786L57.3957 53.8781Z" fill="#63AF4F"></path> <path d="M52.6546 41.5354L51.2629 41.2576C51.3227 40.9426 53.0253 33.6032 59.9829 31.6152L60.2312 32.9947C54.0996 34.7327 52.672 41.4652 52.6546 41.5354Z" fill="#63AF4F"></path> <path d="M56.38 28.7715C54.6896 28.7715 53.096 27.5446 51.8703 25.2921C49.3968 26.0132 47.4105 25.7573 46.2051 24.5583C45.0107 23.361 44.7531 21.3626 45.4759 18.907C43.2205 17.6662 42 16.0796 42 14.3805C42 12.6896 43.2205 11.1001 45.4759 9.86914C44.7531 7.40896 45.0107 5.41402 46.2051 4.20974C47.4105 3.01127 49.3956 2.75545 51.8703 3.47651C53.096 1.224 54.6896 0 56.38 0C58.0802 0 59.6691 1.22574 60.8995 3.47651C63.3678 2.75545 65.3558 3.01127 66.5595 4.20974C67.7562 5.41402 68.0079 7.40954 67.2904 9.86914C69.5423 11.1018 70.7675 12.6896 70.7675 14.3805C70.7675 16.0779 69.5406 17.6668 67.2973 18.907C68.0114 21.3602 67.7585 23.3604 66.56 24.5583C65.796 25.3147 64.753 25.6935 63.4287 25.6935C62.663 25.6935 61.816 25.5613 60.9006 25.2921C59.6691 27.544 58.0802 28.7715 56.38 28.7715ZM52.5827 23.5617L52.8553 24.1261C53.8722 26.2087 55.1235 27.3526 56.38 27.3526C57.6376 27.3526 58.8912 26.2075 59.904 24.1261L60.179 23.5617L60.7719 23.7705C62.9315 24.5107 64.6631 24.4336 65.5501 23.5559C66.4347 22.6672 66.5119 20.9739 65.7607 18.7875L65.5628 18.1883L66.1197 17.9156C68.2052 16.897 69.348 15.6475 69.348 14.384C69.348 13.1293 68.2046 11.878 66.1197 10.8599L65.5541 10.5867L65.7601 9.99271C66.5113 7.80575 66.4342 6.10839 65.5495 5.21737C64.6608 4.33969 62.9304 4.26427 60.7713 5.00795L60.1784 5.21389L59.9035 4.64888C58.8906 2.56692 57.637 1.42007 56.3794 1.42007C55.1229 1.42007 53.8716 2.56692 52.8547 4.64888L52.5821 5.21389L51.9881 5.00795C49.8272 4.26427 48.0962 4.34027 47.2127 5.21737C46.3234 6.10839 46.2463 7.80575 47.0085 9.99271L47.2087 10.5867L46.646 10.8599C44.5565 11.8757 43.4114 13.1322 43.4114 14.384C43.4114 15.6457 44.5565 16.8952 46.646 17.9156L47.2087 18.1883L47.0085 18.7875C46.248 20.9745 46.3252 22.6672 47.2127 23.5559C48.0933 24.4336 49.8278 24.5107 51.9881 23.7705L52.5827 23.5617Z" fill="#FF8925"></path> <path d="M56.5018 20.8834C52.9824 20.8834 50.1213 18.0227 50.1213 14.4995C50.1213 10.9855 52.9824 8.12134 56.5018 8.12134C60.0223 8.12134 62.8834 10.9855 62.8834 14.4995C62.8834 18.0223 60.0223 20.8834 56.5018 20.8834ZM56.5018 9.06848C53.5041 9.06848 51.064 11.5046 51.064 14.5003C51.064 17.5006 53.5041 19.9374 56.5018 19.9374C59.5026 19.9374 61.9415 17.5006 61.9415 14.5003C61.9415 11.505 59.5026 9.06848 56.5018 9.06848Z" fill="#E5E5E5"></path> <path d="M0 67.6456C10.2442 73.8215 22.6839 70.0671 34.288 70.4985C35.8768 70.5573 37.5592 70.7409 38.8329 71.8057C40.1065 72.8687 40.7351 74.6073 41.6056 76.0888C44.8548 81.5965 51.5126 83.3718 57.3311 82.4336C63.1478 81.4937 68.4899 78.4057 73.984 76.0447C83.497 71.9746 94.3332 70.1185 103.692 74.5779C104.493 75.0919 105.433 75.3471 106.384 75.3104C108.433 74.9451 109.047 71.9893 110.482 70.3021C113.073 67.2509 118.707 68.1009 119.841 64.0601C120.506 61.7047 118.971 59.2923 117.301 57.6859C110.907 51.532 101.746 50.5186 93.3674 51.4659C84.9888 52.4114 76.7567 54.9798 68.3359 54.9798C57.8498 54.9798 47.7155 50.9666 37.3246 49.3161C30.1243 48.1724 22.2734 48.3192 15.5276 51.6789C8.21738 55.3451 6.60837 63.502 0 67.6456Z" fill="#63AF4F"></path> <path d="M42 51.6769C42 51.6769 53.287 51.3365 56.6954 48.9496C60.1056 46.5609 74.052 43.7177 74.8967 47.5443C75.7415 51.3727 91.8576 66.5669 79.1149 66.6683C66.3739 66.7697 49.5087 64.7142 46.1151 62.6732C42.7196 60.6341 42 51.6769 42 51.6769Z" fill="#717171"></path> <path d="M21 60.2455C21 60.2455 26.106 60.0996 27.6479 59.0766C29.1906 58.0529 35.4997 56.8344 35.8819 58.4743C36.264 60.1151 43.5546 66.6269 37.7901 66.6703C32.0263 66.7138 24.3968 65.8329 22.8616 64.9582C21.3255 64.0842 21 60.2455 21 60.2455Z" fill="#717171"></path> <path opacity="0.2" d="M79.3452 65.3512C66.5992 65.4527 49.7315 63.3965 46.3352 61.3548C43.7488 59.8059 42.7198 54.2407 42.3737 51.6719H42C42 51.6719 42.7345 60.6393 46.1088 62.6737C49.4812 64.7063 66.3728 66.7697 79.1169 66.6683C82.7931 66.6683 84.0706 65.3512 83.997 63.44C83.4908 64.6049 82.0862 65.3295 79.3452 65.3512Z" fill="black"></path> <path opacity="0.2" d="M37.8942 66.0556C32.1282 66.1029 24.4976 65.1434 22.9611 64.1906C21.7911 63.4678 21.3256 61.3707 21.1691 60.1719H21C21 60.1719 21.3323 63.8567 22.8587 64.8061C24.3843 65.7546 32.0258 66.7175 37.791 66.6702C39.454 66.6702 40.032 66.0556 39.9986 65.1637C39.7696 65.7073 39.1342 66.0454 37.8942 66.0556Z" fill="black"></path> </svg> 