<?xml version="1.0" encoding="UTF-8"?> <svg xmlns="http://www.w3.org/2000/svg" width="136" height="275" viewBox="0 0 136 275" fill="none"> <path d="M0.572006 262.826C12.036 267.817 26.022 264.78 39.031 265.132C40.807 265.18 42.696 265.327 44.121 266.19C45.547 267.053 46.2535 268.448 47.2318 269.646C50.8772 274.097 58.3476 275.527 64.8758 274.772C71.404 274.017 77.3892 271.516 83.55 269.614C94.1987 266.322 106.369 264.82 116.874 268.416C117.836 268.743 118.87 269.123 119.884 268.991C122.188 268.699 122.875 266.31 124.484 264.948C127.391 262.483 133.707 263.154 134.985 259.906C135.732 258.004 134.011 256.055 132.134 254.756C124.947 249.786 114.686 248.967 105.291 249.734C95.8956 250.501 86.6604 252.615 77.2175 252.623C65.4508 252.623 54.0834 249.379 42.432 248.048C34.363 247.129 25.555 247.249 17.989 249.954C9.78799 252.878 7.98301 259.467 0.572006 262.826Z" fill="white"></path> <path d="M104.551 196.47C108.089 206.65 103.96 223.171 102.044 230.546C100.127 237.921 99.5362 246.778 99.5362 246.778C92.0178 247.957 86.5636 246.479 86.5636 246.479L89.658 231.297C87.446 222.3 89.658 198.252 89.658 198.252C89.658 198.252 84.6471 188.959 84.2039 174.796C83.7687 160.853 80.3349 156.35 80.2112 156.211C73.136 159.898 64.1403 199.439 64.1403 199.439C64.8789 209.028 63.9925 223.778 61.0459 231.744C59.2586 236.805 58.5064 242.173 58.8339 247.529C57.8037 248.4 56.3703 248.548 54.8211 248.301C50.6247 247.601 45.59 243.974 45.59 243.974C45.59 243.974 47.187 200.901 48.3848 199.275C49.5826 197.649 48.3848 188.356 48.3848 188.356L50.2973 173.31C50.2973 173.31 50.0059 147.785 52.8048 143.346C55.2244 139.523 55.7794 132.807 55.8872 131.045C55.8872 130.765 55.9111 130.609 55.9111 130.609L60.1754 125.495C60.1754 125.495 101.461 122.399 104.555 125.495C105.318 126.258 105.785 127.984 106.064 130.162C106.915 136.854 105.941 147.769 105.941 147.769C105.941 147.769 104.703 155.883 102.934 164.149C101.869 169.108 101.869 174.236 102.934 179.195C102.347 185.004 102.896 190.872 104.551 196.47Z" fill="#3F3927"></path> <path d="M101.972 261.16C100.127 263.593 89.2908 262.559 87.4462 261.804C86.3202 261.336 86.408 259.219 86.7115 257.033C86.9031 255.643 87.1866 254.237 87.3024 253.194C87.5979 250.537 86.416 245.152 86.416 245.152C86.416 245.152 88.8516 247.732 89.4385 245.152C89.6981 244.025 90.6044 243.446 91.5427 243.154C92.8068 242.774 94.1649 242.859 95.3718 243.394C97.2843 244.225 100.483 245.999 99.9076 248.396C99.1091 251.784 101.972 256.59 101.972 256.59C102.194 256.872 102.374 257.184 102.507 257.517C102.759 258.115 102.843 258.771 102.749 259.413C102.654 260.056 102.386 260.66 101.972 261.16Z" fill="#A27772"></path> <path opacity="0.1" d="M101.972 261.16C100.127 263.594 89.2908 262.559 87.4461 261.804C86.3202 261.336 86.408 259.219 86.7115 257.033C87.8733 257.577 89.8538 258.032 93.1518 257.724C93.9228 257.653 94.6976 257.629 95.4716 257.653C97.8172 257.76 100.167 257.714 102.507 257.513C102.76 258.111 102.844 258.768 102.75 259.412C102.656 260.055 102.386 260.66 101.972 261.16Z" fill="black"></path> <path opacity="0.1" d="M64.1531 199.422C64.8918 209.011 64.0054 223.761 61.0587 231.728C59.2715 236.788 58.5192 242.156 58.8467 247.513C57.8166 248.384 56.3832 248.532 54.834 248.284C55.7244 242.051 59.5135 215.252 61.9611 194.073C64.7081 169.954 77.6447 153.358 77.6447 153.358L80.224 156.198C73.1408 159.882 64.1531 199.422 64.1531 199.422Z" fill="black"></path> <path d="M97.5488 44.3719L95.748 53.2219L86.932 68.0479L76.0597 63.4019C76.0597 63.4019 61.2864 47.9119 70.5696 45.6989C71.6817 45.4609 72.7318 44.9929 73.6521 44.3239C75.4767 42.9499 76.0477 40.9479 76.0477 38.9907C76.0477 35.7585 74.5384 32.6423 74.5384 32.6423L93.556 26.6494C92.7705 29.15 92.3115 31.7418 92.1905 34.3602C92.0467 39.554 93.9712 42.0949 95.5484 43.3139C96.1387 43.7949 96.8186 44.1549 97.5488 44.3719Z" fill="#FBBEBE"></path> <path opacity="0.1" d="M93.5684 26.6689C92.7829 29.1695 92.3239 31.7612 92.2029 34.3796C91.8572 34.7922 91.4879 35.1844 91.0969 35.5542C89.1339 37.4319 86.6996 38.7427 84.0522 39.3476C81.4048 39.9526 78.6431 39.829 76.0601 38.9901C76.0601 35.758 74.5509 32.6417 74.5509 32.6417L93.5684 26.6689Z" fill="black"></path> <path d="M95.7474 24.2357C95.7466 27.212 94.8636 30.1212 93.2102 32.5953C91.5567 35.0695 89.2071 36.9973 86.4585 38.135C83.7098 39.2727 80.6858 39.5692 77.7688 38.9869C74.8517 38.4046 72.1728 36.9697 70.071 34.8637C67.9691 32.7577 66.5386 30.0753 65.9605 27.1557C65.3825 24.2361 65.6828 21.2106 66.8234 18.4618C67.9641 15.713 69.8939 13.3645 72.3687 11.7133C74.8435 10.0621 77.7521 9.18252 80.7266 9.18562C82.7026 9.17932 84.6603 9.56442 86.4869 10.3187C88.3135 11.0731 89.9728 12.1817 91.3691 13.5808C92.7654 14.9798 93.8712 16.6416 94.6227 18.4703C95.3741 20.299 95.7563 22.2584 95.7474 24.2357Z" fill="#FBBEBE"></path> <path opacity="0.1" d="M97.5488 44.372L95.748 53.221L86.932 68.048L76.0597 63.401C76.0597 63.401 61.2864 47.912 70.5696 45.698C71.6817 45.461 72.7318 44.992 73.6521 44.324C71.9751 48.938 78.8985 58.535 78.8985 58.535C79.6971 59.734 81.5537 58.974 81.5537 58.974C86.0097 58.303 94.2228 45.467 95.5604 43.333C96.1488 43.806 96.8244 44.159 97.5488 44.372Z" fill="black"></path> <path opacity="0.1" d="M106.062 130.185C103.447 130.781 88.9608 133.993 83.4668 133.19C77.4257 132.303 65.671 131.715 65.671 131.715C65.671 131.715 58.1886 132.115 55.8848 131.068C55.8848 130.789 55.9087 130.633 55.9087 130.633L60.173 125.519C60.173 125.519 101.458 122.423 104.553 125.519C105.315 126.274 105.782 128 106.062 130.185Z" fill="black"></path> <path d="M78.8986 58.9748C78.8986 58.9748 71.1207 48.1878 74.0514 43.9968L60.9112 49.3858C60.9112 49.3858 53.0015 48.4268 50.1307 60.2368C49.6725 62.1998 49.507 64.2188 49.6396 66.2298C49.7434 68.0118 49.5039 71.1478 47.4755 75.2028C44.2291 81.6958 44.9681 96.5938 51.6041 98.0718C58.2401 99.5498 60.5958 98.8068 60.5958 98.8068C60.5958 98.8068 59.7134 125.807 55.8803 128.903C52.0473 132 65.6506 131.264 65.6506 131.264C65.6506 131.264 77.4053 131.856 83.4504 132.739C89.4954 133.622 106.449 129.642 106.449 129.642C106.449 129.642 103.941 118.28 103.059 111.053C102.176 103.825 100.108 88.4318 100.108 88.4318L115.149 68.0558C115.149 68.0558 117.8 55.7388 108.513 50.2808C99.2258 44.8238 95.7361 43.4888 95.7361 43.4888C95.7361 43.4888 86.417 58.6708 81.5538 59.4178C81.5538 59.4178 79.7052 60.1608 78.8986 58.9748Z" fill="#FF8925"></path> <path opacity="0.1" d="M61.65 63.2529C61.65 63.2529 61.5023 68.1229 62.3847 70.0449C63.2671 71.9669 66.5132 82.5859 66.5132 82.5859H59.1426C59.1426 82.5859 63.1353 78.3069 62.8279 76.2419C62.5205 74.1759 61.65 63.2529 61.65 63.2529Z" fill="black"></path> <path d="M83.4702 99.99C83.4702 99.99 67.1877 95.995 65.6705 92.611C64.1532 89.227 59.9648 81.628 59.9648 81.628L61.6817 79.311L69.6034 85.531C69.6034 85.531 79.0383 93.054 83.4623 93.793C87.8862 94.532 83.4702 99.99 83.4702 99.99Z" fill="#FBBEBE"></path> <path opacity="0.05" d="M83.4702 99.99C83.4702 99.99 67.1877 95.995 65.6705 92.611C64.1532 89.227 59.9648 81.628 59.9648 81.628L61.6817 79.311L69.6034 85.531C69.6034 85.531 79.0383 93.054 83.4623 93.793C87.8862 94.532 83.4702 99.99 83.4702 99.99Z" fill="black"></path> <path d="M97.5475 80.8118V89.6488H96.1261C89.1114 89.6508 82.2124 91.4378 76.0784 94.8428L73.4192 96.3208L72.7045 96.7208L68.1328 86.4208L72.4091 82.5858H72.6287C73.6748 82.6858 78.1986 83.0648 80.1151 82.4178C81.9358 81.7988 84.1957 79.8368 89.558 81.2188C92.2012 81.8948 94.4571 84.8588 97.0205 83.9318L97.5475 80.8118Z" fill="#FBBEBE"></path> <path opacity="0.1" d="M111.776 64.7318L114.726 68.0478V76.0898C114.726 76.0898 112.219 101.464 104.257 104.268C96.2957 107.073 82.0854 102.642 82.0854 102.642C82.0854 102.642 78.412 92.9059 80.1289 92.3189C81.8458 91.7309 95.3014 88.1718 95.3014 88.1718C95.3014 88.1718 95.1138 73.2848 98.0604 68.8588C98.0604 68.8588 96.1439 54.9948 102.78 54.6998C109.416 54.4038 111.776 64.7318 111.776 64.7318Z" fill="black"></path> <path d="M112.218 64.7318L115.168 68.0478V76.0898C115.168 76.0898 112.669 101.464 104.683 104.268C96.6979 107.073 82.5076 102.642 82.5076 102.642C82.5076 102.642 78.8383 92.9059 80.5552 92.3189C82.2721 91.7309 95.7277 88.1718 95.7277 88.1718C95.7277 88.1718 95.536 73.2848 98.4867 68.8588C98.4867 68.8588 96.5702 54.9948 103.206 54.6998C109.842 54.4038 112.218 64.7318 112.218 64.7318Z" fill="#FF8925"></path> <path opacity="0.1" d="M91.6224 30.6286C91.6823 29.6577 91.7023 28.631 91.2871 27.756C90.8718 26.8811 89.8976 26.1819 88.9473 26.4056C87.6856 26.7013 87.1426 28.3433 85.9048 28.7388C84.8627 29.0704 83.7248 28.3393 83.2297 27.3565C82.7346 26.3737 82.7186 25.239 82.7146 24.1603C82.7146 22.9298 82.7146 21.6953 82.7146 20.4647C82.7146 19.1223 82.6707 17.6681 81.8442 16.6213C80.818 15.3069 78.4024 14.7356 76.7894 14.7875C75.7149 14.8 74.6845 15.2164 73.9027 15.9541C73.0403 16.6852 72.042 17.2286 70.8641 17.0328C70.3748 16.9586 69.9164 16.7474 69.542 16.4237C69.1675 16.0999 68.8923 15.6767 68.7479 15.203V15.1551C70.0015 13.4978 71.5846 12.1185 73.3975 11.1039C75.2103 10.0893 77.2136 9.4616 79.2809 9.2602C81.3483 9.0589 83.4349 9.2883 85.4093 9.9341C87.3836 10.5798 89.2028 11.6278 90.7522 13.0121C92.3017 14.3964 93.5477 16.0868 94.4117 17.9769C95.2757 19.867 95.739 21.9157 95.7723 23.9938C95.8057 26.072 95.4084 28.1345 94.6055 30.0513C93.8026 31.9682 92.6116 33.6978 91.1074 35.1312C91.3635 33.6412 91.5355 32.1379 91.6224 30.6286Z" fill="black"></path> <path d="M70.8574 16.5767C70.3678 16.5017 69.9093 16.2898 69.5349 15.9653C69.1604 15.6408 68.8853 15.2171 68.7412 14.7429C68.6174 14.2675 68.6494 13.7601 68.5096 13.2846C68.1663 12.126 66.9125 11.5227 66.114 10.6438C64.453 8.87786 64.5608 5.97736 65.7387 3.85186C66.6889 2.14196 68.5336 0.699663 70.4541 1.03126C71.6519 1.23896 72.6781 2.08996 73.8879 2.16586C75.0977 2.24176 76.1118 1.58656 77.1739 1.10316C79.7299 -0.0551376 82.6034 -0.31014 85.3232 0.38006C86.1592 0.54806 86.9344 0.93866 87.5671 1.51066C87.9951 2.05026 88.3949 2.61176 88.7649 3.19266C90.1424 4.94656 92.602 5.29016 94.794 5.68566C96.986 6.08126 99.4616 6.94816 100.184 9.05766C100.659 10.456 100.184 11.9742 99.9247 13.4285C99.8323 13.7248 99.8522 14.0448 99.9806 14.3274C100.324 14.8947 101.178 14.659 101.825 14.7948C103.071 15.0545 103.39 16.6566 103.422 17.9271C103.476 19.3813 103.516 20.8356 103.542 22.2899C103.616 22.9642 103.529 23.6464 103.288 24.2806C103.047 24.9147 102.66 25.4826 102.157 25.9375L97.2895 31.7905C95.1294 34.3874 92.8376 37.4118 93.2728 40.7599C92.2506 41.2189 91.0368 40.3323 90.7014 39.2616C90.366 38.1908 90.6376 37.0402 90.8611 35.9415C91.2551 34.042 91.5126 32.1167 91.6317 30.1804C91.6916 29.2056 91.7116 28.1828 91.2963 27.3079C90.8811 26.4329 89.9069 25.7098 88.9566 25.9535C87.6949 26.2491 87.1519 27.8912 85.9141 28.2867C84.876 28.6183 83.734 27.8872 83.2389 26.9043C82.7438 25.9215 82.7279 24.7869 82.7239 23.7082V20.0086C82.7239 18.6702 82.68 17.2119 81.8535 16.1652C80.8273 14.8508 78.4117 14.2794 76.7986 14.3314C75.7243 14.3447 74.6941 14.761 73.9118 15.498C73.0334 16.2291 72.0353 16.7685 70.8574 16.5767Z" fill="#FE5757"></path> <path opacity="0.1" d="M74.2539 62.8857L78.8695 81.8627C78.8695 81.8627 82.5109 81.8427 74.2539 62.8857Z" fill="black"></path> <path opacity="0.1" d="M90.0308 59.7139C90.0308 59.7139 83.9858 69.6219 86.3455 79.8619L87.4715 79.9459C87.4715 79.9459 85.4591 75.2029 90.0308 59.7139Z" fill="black"></path> <path opacity="0.1" d="M93.8633 115.775C93.8633 115.775 101.286 113.318 101.825 119.019C101.825 119.019 100.423 115.112 93.8633 115.775Z" fill="black"></path> <path opacity="0.1" d="M72.4094 83.042C72.4094 83.042 70.9361 93.37 73.6072 97.501C73.6072 97.501 68.209 99.714 60.6308 99.271L59.7324 83.042H72.4094Z" fill="black"></path> <path opacity="0.1" d="M73.4193 96.318L72.7045 96.717L68.1328 86.418L72.4091 82.582H72.6287C72.5608 83.078 71.371 91.947 73.4193 96.318Z" fill="black"></path> <path d="M72.4099 82.582C72.4099 82.582 70.9366 92.906 73.6078 97.037C73.6078 97.037 68.2095 99.25 60.6313 98.807L55.4727 82.582H72.4099Z" fill="#FF8925"></path> <path d="M59.6565 254.88C59.571 255.616 59.2433 256.302 58.725 256.831C58.2066 257.36 57.5272 257.701 56.7937 257.8C52.8009 258.4 43.146 259.926 40.711 261.084C37.616 262.559 25.379 261.528 24.788 260.054C24.621 259.458 24.697 258.82 24.999 258.28C25.425 257.378 26.124 256.633 26.996 256.15C27.277 255.988 27.574 255.854 27.882 255.751C30.186 254.98 34.538 253.354 35.716 251.636C35.716 251.636 41.142 246.885 42.687 244.317C42.979 243.812 43.39 243.387 43.884 243.079C44.379 242.771 44.941 242.59 45.522 242.551C46.8157 242.491 48.2531 243.142 48.8401 245.975C48.8401 245.975 55.9153 250.014 57.8278 246.47C57.8278 246.47 58.1233 251.911 59.2971 253.398C59.4523 253.609 59.564 253.848 59.6257 254.103C59.6874 254.357 59.6978 254.621 59.6565 254.88Z" fill="#A27772"></path> <path opacity="0.1" d="M59.6564 254.881C59.571 255.616 59.2432 256.303 58.7249 256.831C58.2066 257.36 57.5271 257.701 56.7936 257.801C52.8008 258.4 43.146 259.927 40.711 261.085C37.616 262.559 25.379 261.529 24.788 260.054C24.621 259.458 24.697 258.821 24.999 258.281C25.425 257.379 26.124 256.634 26.996 256.151C28.992 257.477 33.42 258.772 43.162 257.25C52.4535 255.8 57.0531 254.377 59.2971 253.406C59.4512 253.616 59.5623 253.855 59.624 254.108C59.6857 254.361 59.6967 254.623 59.6564 254.881Z" fill="black"></path> <g opacity="0.1"> <path opacity="0.1" d="M99.8915 13.6446V13.5727C100.103 12.466 100.419 11.3234 100.347 10.2207C100.252 11.1257 100.1 12.0238 99.8915 12.9095C99.8357 13.1514 99.8357 13.4028 99.8915 13.6446Z" fill="black"></path> <path opacity="0.1" d="M91.2839 27.4524C91.5164 27.9844 91.6399 28.5577 91.6472 29.1384C91.7156 28.3375 91.591 27.5319 91.2839 26.7892C90.8846 25.9062 89.8984 25.2111 88.9482 25.4348C87.6864 25.7304 87.1434 27.3725 85.9056 27.768C84.8635 28.0996 83.7256 27.3685 83.2265 26.3857C82.7274 25.4028 82.7194 24.2682 82.7154 23.1895C82.7154 21.9549 82.7154 20.7244 82.7154 19.4899C82.7154 18.1515 82.6715 16.6932 81.845 15.6465C80.8189 14.3321 78.3992 13.7607 76.7902 13.8127C75.7157 13.8252 74.6852 14.2416 73.9034 14.9793C73.0369 15.7144 72.0427 16.2538 70.8649 16.062C70.3753 15.987 69.9168 15.7751 69.5424 15.4506C69.1679 15.1261 68.8928 14.7024 68.7487 14.2282C68.6249 13.7527 68.6569 13.2454 68.5171 12.7699C68.1698 11.6113 66.92 11.008 66.1215 10.1291C65.3451 9.27279 64.9041 8.16469 64.8797 7.00879C64.8182 7.69079 64.8966 8.37819 65.1101 9.02889C65.3237 9.67949 65.6678 10.2796 66.1215 10.7923C66.952 11.6712 68.1857 12.2785 68.5171 13.4371C68.6569 13.9086 68.6249 14.416 68.7487 14.8914C68.8928 15.3656 69.1679 15.7893 69.5424 16.1138C69.9168 16.4383 70.3753 16.6502 70.8649 16.7252C72.0627 16.917 73.0369 16.3776 73.9034 15.6425C74.6852 14.9048 75.7157 14.4884 76.7902 14.4759C78.3873 14.424 80.8189 14.9993 81.845 16.3097C82.6715 17.3644 82.7114 18.8147 82.7154 20.1531C82.7154 21.3876 82.7154 22.6182 82.7154 23.8527C82.7154 24.9474 82.7154 26.086 83.2265 27.0489C83.7376 28.0117 84.8635 28.7628 85.9056 28.4312C87.1434 28.0317 87.6864 26.3936 88.9482 26.098C89.9104 25.8783 90.8727 26.5694 91.2839 27.4524Z" fill="black"></path> <path opacity="0.1" d="M103.403 23.389C103.134 24.147 102.706 24.8389 102.149 25.4186C100.528 27.3709 98.9056 29.3219 97.2819 31.2716C95.2336 33.7366 93.0615 36.5892 93.2212 39.7335C93.3689 36.8489 95.3773 34.224 97.2819 31.9348L102.149 26.0858C102.706 25.5039 103.133 24.8109 103.403 24.0522C103.523 23.5286 103.566 22.9902 103.531 22.4541C103.527 22.7698 103.484 23.0838 103.403 23.389Z" fill="black"></path> <path opacity="0.1" d="M90.709 38.7424C90.6304 38.4826 90.5821 38.2144 90.5653 37.9434C90.5235 38.4329 90.5722 38.9259 90.709 39.3976C91.0444 40.4684 92.2622 41.3509 93.2844 40.8919C93.2564 40.6759 93.2404 40.4604 93.2325 40.2446C92.2023 40.6681 91.0205 39.7972 90.709 38.7424Z" fill="black"></path> </g> <path opacity="0.1" d="M41.701 245.648C41.701 245.648 43.242 248.36 48.8242 245.971L41.701 245.648Z" fill="black"></path> <path opacity="0.1" d="M88.9121 246.315C88.9121 246.315 93.7274 251.988 99.7964 248.172L88.9121 246.315Z" fill="black"></path> <path opacity="0.1" d="M102.93 179.206C102.93 179.206 99.5244 181.336 99.4166 182.554C99.3088 183.773 101.173 181.667 101.173 181.667L102.93 179.206Z" fill="black"></path> <path opacity="0.1" d="M104.285 195.52C103.102 196.505 101.63 197.08 100.093 197.158C97.5491 197.27 97.7608 200.59 99.4218 199.591C101.083 198.592 104.285 195.52 104.285 195.52Z" fill="black"></path> <path opacity="0.1" d="M104.92 197.649C104.92 197.649 103.287 205.679 101.961 204.129L104.92 197.649Z" fill="black"></path> </svg> 