<?xml version="1.0" encoding="UTF-8"?> <svg xmlns="http://www.w3.org/2000/svg" width="334" height="71" viewBox="0 0 334 71" fill="none"> <path d="M333.439 53.8258C321.975 58.8168 307.989 55.7798 294.98 56.1318C293.204 56.1798 291.315 56.3268 289.89 57.1898C288.464 58.0528 287.757 59.4478 286.779 60.6458C283.134 65.0968 275.663 66.5268 269.135 65.7718C262.607 65.0168 256.622 62.5158 250.461 60.6138C239.812 57.3218 227.642 55.8198 217.137 59.4158C216.175 59.7428 215.141 60.1228 214.127 59.9908C211.823 59.6988 211.136 57.3098 209.527 55.9478C206.62 53.4828 200.304 54.1538 199.026 50.9058C198.279 49.0038 200 47.0548 201.877 45.7558C209.064 40.7858 219.325 39.9668 228.72 40.7338C238.115 41.5008 247.351 43.6148 256.793 43.6228C268.56 43.6228 279.928 40.3788 291.579 39.0478C299.648 38.1288 308.456 38.2488 316.022 40.9538C324.223 43.8778 326.028 50.4668 333.439 53.8258Z" fill="#63AF4F"></path> <path d="M229.734 56.8099C210.17 62.4479 186.293 59.0159 164.093 59.4149C161.055 59.4709 157.837 59.6349 155.397 60.6139C152.957 61.5929 151.76 63.1709 150.087 64.5209C143.866 69.5509 131.117 71.1689 119.977 70.3139C108.837 69.4589 98.616 66.6349 88.099 64.4849C69.924 60.7659 49.145 59.0719 31.218 63.1269C29.573 63.4979 27.84 63.9259 26.075 63.7779C22.146 63.4459 20.976 60.7499 18.225 59.2069C13.262 56.4109 2.48599 57.1819 0.306 53.5139C-0.972 51.3649 1.96701 49.1599 5.16901 47.6929C17.419 42.0799 34.947 41.1529 50.986 42.0199C67.025 42.8869 82.788 45.2719 98.899 45.2839C118.983 45.2839 138.388 41.6209 158.276 40.1139C172.051 39.0759 187.084 39.2029 200 42.2719C214.003 45.5839 217.089 53.0269 229.734 56.8099Z" fill="#63AF4F"></path> <path d="M37.371 13.2402C37.371 38.2939 53.0584 58.5703 72.4437 58.5703L37.371 13.2402Z" fill="#46455B"></path> <path d="M72.4432 58.575C72.4432 33.2371 89.9522 12.7363 111.587 12.7363L72.4432 58.575Z" fill="#2B9E29"></path> <path d="M50.0819 15.5142C50.0819 39.3162 60.0856 58.5753 72.4435 58.5753L50.0819 15.5142Z" fill="#2B9E29"></path> <path d="M72.4432 58.575C72.4432 26.2007 92.6796 0 117.684 0L72.4432 58.575Z" fill="#46455B"></path> <path opacity="0.1" d="M70.9251 67.2325C75.7408 67.2325 79.6447 66.5716 79.6447 65.7564C79.6447 64.9412 75.7408 64.2803 70.9251 64.2803C66.1093 64.2803 62.2054 64.9412 62.2054 65.7564C62.2054 66.5716 66.1093 67.2325 70.9251 67.2325Z" fill="#B2CE55"></path> <path d="M65.0677 58.8943C65.0677 58.8943 70.0447 58.7397 71.5378 57.6725C73.0309 56.6053 79.1874 55.3238 79.5607 57.0392C79.9339 58.7547 87.0261 65.5716 81.4171 65.6165C75.808 65.6613 68.3675 64.7388 66.8744 63.8262C65.3813 62.9136 65.0677 58.8943 65.0677 58.8943Z" fill="#A8A8A8"></path> <path opacity="0.2" d="M81.5216 65.0179C75.9076 65.0628 68.477 64.1403 66.9789 63.2277C65.8392 62.5345 65.3863 60.0361 65.232 58.8892H65.0677C65.0677 58.8892 65.3813 62.9085 66.8793 63.8211C68.3774 64.7337 75.808 65.6563 81.4221 65.6114C83.0445 65.6114 83.602 65.0179 83.5721 64.1652C83.3481 64.6838 82.7559 65.008 81.5216 65.0179Z" fill="black"></path> </svg> 