<?xml version="1.0" encoding="UTF-8"?> <svg xmlns="http://www.w3.org/2000/svg" width="81" height="77" viewBox="0 0 81 77" fill="none"> <path d="M4.492 67.9541C10.082 71.3181 16.87 69.2731 23.202 69.5081C24.069 69.5401 24.987 69.6401 25.682 70.2201C26.377 70.7991 26.72 71.7461 27.195 72.5531C28.968 75.5531 32.601 76.5201 35.776 76.0091C38.95 75.4971 41.865 73.815 44.863 72.529C50.054 70.312 55.967 69.3011 61.074 71.7301C61.511 72.0101 62.024 72.1491 62.543 72.1291C63.661 71.9301 63.996 70.3201 64.779 69.4011C66.193 67.7391 69.267 68.2021 69.886 66.0011C70.249 64.7181 69.411 63.404 68.5 62.529C65.011 59.177 60.012 58.625 55.44 59.141C50.868 59.656 46.376 61.055 41.781 61.055C36.059 61.055 30.529 58.8691 24.859 57.9701C20.93 57.3471 16.646 57.427 12.965 59.257C8.976 61.254 8.098 65.6971 4.492 67.9541Z" fill="#63AF4F"></path> <path d="M0 13.2402C0 38.2939 15.6874 58.5703 35.0727 58.5703L0 13.2402Z" fill="#46455B"></path> <path d="M35.0723 58.575C35.0723 33.2371 52.5812 12.7363 74.2161 12.7363L35.0723 58.575Z" fill="#2B9E29"></path> <path d="M12.7109 15.5142C12.7109 39.3162 22.7147 58.5753 35.0725 58.5753L12.7109 15.5142Z" fill="#2B9E29"></path> <path d="M35.0723 58.575C35.0723 26.2007 55.3086 0 80.3128 0L35.0723 58.575Z" fill="#46455B"></path> <path opacity="0.1" d="M33.5541 67.2325C38.3698 67.2325 42.2737 66.5716 42.2737 65.7564C42.2737 64.9412 38.3698 64.2803 33.5541 64.2803C28.7384 64.2803 24.8345 64.9412 24.8345 65.7564C24.8345 66.5716 28.7384 67.2325 33.5541 67.2325Z" fill="#B2CE55"></path> <path d="M27.6968 58.8943C27.6968 58.8943 32.6737 58.7397 34.1668 57.6725C35.6599 56.6053 41.8164 55.3238 42.1897 57.0392C42.563 58.7547 49.6551 65.5716 44.0461 65.6165C38.4371 65.6613 30.9965 64.7388 29.5034 63.8262C28.0103 62.9136 27.6968 58.8943 27.6968 58.8943Z" fill="#A8A8A8"></path> <path opacity="0.2" d="M44.1506 65.0179C38.5366 65.0628 31.106 64.1403 29.6079 63.2277C28.4682 62.5345 28.0153 60.0361 27.861 58.8892H27.6968C27.6968 58.8892 28.0103 62.9085 29.5084 63.8211C31.0064 64.7337 38.4371 65.6563 44.0511 65.6114C45.6736 65.6114 46.231 65.0179 46.2011 64.1652C45.9772 64.6838 45.3849 65.008 44.1506 65.0179Z" fill="black"></path> </svg> 