<?xml version="1.0" encoding="UTF-8"?> <svg xmlns="http://www.w3.org/2000/svg" width="61" height="77" viewBox="0 0 61 77" fill="none"> <path d="M0 20.5371C0 40.4844 12.4772 56.6018 27.9008 56.6018L0 20.5371Z" fill="#46455B"></path> <path d="M10.1079 22.3523C10.1079 41.3021 18.071 56.6116 27.9005 56.6116L10.1079 22.3523Z" fill="#2B9E29"></path> <path d="M33.9462 47.5063C32.3715 47.5063 30.8224 47.0601 29.4807 46.2303L29.0339 45.9431L29.1495 45.4235C29.7188 42.7376 31.5539 40.4985 34.0572 39.4332C36.5625 38.3686 39.4859 38.6041 41.7907 40.0447L42.2394 40.3217L42.1341 40.8432C41.5654 43.5272 39.722 45.7663 37.2161 46.8316C36.1623 47.2778 35.0759 47.5063 33.9462 47.5063ZM30.7586 45.2116C31.7409 45.7197 32.8349 45.9878 33.9462 45.9878C34.8647 45.9878 35.7653 45.8072 36.6232 45.444C38.5042 44.6378 39.9288 43.0172 40.5116 41.0551C38.7065 40.1188 36.53 40.0262 34.6534 40.8247C32.7673 41.6277 31.3407 43.2387 30.7586 45.2116Z" fill="#63AF4F"></path> <path d="M27.8174 58.682C24.7268 52.2953 25.3817 45.3055 29.7686 37.8841C34.4294 30.0236 30.5837 23.4544 30.5499 23.3867L31.8418 22.6055C32.0237 22.9042 36.186 30.0236 31.0771 38.6615C26.9621 45.6093 26.3232 52.1243 29.1884 58.0246L27.8174 58.682Z" fill="#63AF4F"></path> <path d="M27.4209 49.7613L25.9331 49.5079C26.5708 45.7197 29.5618 44.8836 29.6939 44.844L30.0871 46.3165C29.9939 46.3414 27.8997 46.9599 27.4209 49.7613Z" fill="#63AF4F"></path> <path d="M41 40.5C37 39.5 31.7 39.8998 30.5 45.4998C33.3333 46.4997 39.8 46.8999 41 40.5Z" fill="#63AF4F"></path> <ellipse cx="28.5" cy="8" rx="2.5" ry="7" fill="#FE5757"></ellipse> <ellipse cx="28.5" cy="25" rx="2.5" ry="7" fill="#FE5757"></ellipse> <ellipse cx="34.5713" cy="10.5714" rx="2.70658" ry="7" transform="rotate(45 34.5713 10.5714)" fill="#FE5757"></ellipse> <ellipse rx="2.70658" ry="7" transform="matrix(0.707107 -0.707107 -0.707107 -0.707107 34.5713 22.8637)" fill="#FE5757"></ellipse> <ellipse rx="2.70658" ry="7" transform="matrix(0.707107 -0.707107 -0.707107 -0.707107 22.8635 10.5715)" fill="#FE5757"></ellipse> <ellipse cx="22.6757" cy="22.6757" rx="2.97228" ry="7" transform="rotate(45 22.6757 22.6757)" fill="#FE5757"></ellipse> <ellipse rx="2.70658" ry="7" transform="matrix(-4.37114e-08 -1 -1 4.37114e-08 20 16.7065)" fill="#FE5757"></ellipse> <ellipse rx="2.70658" ry="7" transform="matrix(-4.37114e-08 -1 -1 4.37114e-08 37 16.7065)" fill="#FE5757"></ellipse> <path d="M28.4996 19.1831C27.0156 19.1831 25.8232 17.9786 25.8232 16.4991C25.8232 15.0234 27.0156 13.8196 28.4996 13.8196C29.9759 13.8196 31.1765 15.024 31.1765 16.4991C31.1765 17.9774 29.9759 19.1831 28.4996 19.1831ZM28.4996 15.3336C27.8517 15.3336 27.3334 15.8589 27.3334 16.4997C27.3334 17.1431 27.8524 17.6697 28.4996 17.6697C29.1468 17.6697 29.6753 17.1425 29.6753 16.4997C29.6753 15.8589 29.1474 15.3336 28.4996 15.3336Z" fill="white"></path> <path d="M28.4997 33.0051C26.3787 33.0051 24.7791 29.8641 24.7791 25.6974C24.7791 25.6221 24.7791 25.5436 24.7791 25.4689C24.7306 25.5231 24.6846 25.5735 24.6259 25.6297C21.7932 28.4682 18.2929 29.6279 16.8344 28.1701C16.0416 27.3882 15.9491 26.0995 16.5344 24.5319C17.0539 23.1615 18.0605 21.687 19.3767 20.3766C19.4258 20.3224 19.482 20.2649 19.5407 20.2158C15.2878 20.2471 12 18.6603 12 16.4978C12 15.3916 12.84 14.408 14.3585 13.7199C15.7531 13.0861 17.5939 12.7644 19.5407 12.781C19.482 12.7338 19.4258 12.6764 19.3767 12.6221C16.4259 9.67513 15.3344 6.32924 16.8344 4.82863C18.282 3.36504 21.7932 4.53119 24.6259 7.37028C24.6846 7.42709 24.7306 7.47688 24.7791 7.53113C24.7791 7.45581 24.7791 7.38305 24.7791 7.30263C24.7791 3.13654 26.3787 0 28.4997 0C30.6124 0 32.2164 3.13654 32.2164 7.30263C32.2164 7.38496 32.2164 7.45645 32.2164 7.53879C32.2592 7.48262 32.3198 7.42773 32.3792 7.36582C35.2119 4.53183 38.7065 3.3727 40.165 4.82927C41.6662 6.33052 40.576 9.67449 37.6342 12.6227C37.5787 12.677 37.5199 12.7344 37.4625 12.7817C41.7224 12.7344 45 14.3442 45 16.4959C45 18.659 41.7224 20.2458 37.4625 20.2145C37.5199 20.2707 37.5787 20.3224 37.6342 20.3754C38.9388 21.6845 39.9499 23.1583 40.465 24.5306C41.0586 26.0989 40.9577 27.3869 40.165 28.1688C38.7065 29.6254 35.2113 28.4669 32.3792 25.6291C32.3198 25.5729 32.263 25.5212 32.2164 25.4682C32.2164 25.5429 32.2164 25.6221 32.2164 25.6967C32.2164 29.8641 30.6124 33.0051 28.4997 33.0051ZM27.3431 19.2884L26.5453 23.1487C26.3761 23.9606 26.2938 24.8178 26.2938 25.6999C26.2938 29.2335 27.5965 31.4885 28.4971 31.4885C29.3977 31.4885 30.7024 29.2335 30.7024 25.6999C30.7024 24.8197 30.6079 23.9561 30.4503 23.1487L29.6601 19.2954L31.8194 22.58C32.2841 23.2808 32.8196 23.9434 33.4419 24.5619C35.9555 27.0671 38.4486 27.7361 39.0971 27.0984C39.4188 26.7742 39.401 25.9999 39.0525 25.0719C38.6063 23.8993 37.7216 22.6113 36.558 21.4451C35.9472 20.8356 35.2821 20.2834 34.5819 19.8264L31.2941 17.6684L35.1449 18.4554C35.9561 18.6162 36.8102 18.7037 37.6948 18.7037C41.229 18.7037 43.4841 17.3958 43.4841 16.4978C43.4841 15.6023 41.229 14.2963 37.6948 14.2963C36.8114 14.2963 35.9574 14.3819 35.1481 14.5446L31.3062 15.3374L34.58 13.1742C35.2808 12.7095 35.9434 12.1702 36.5548 11.5568C39.0601 9.05153 39.7284 6.53541 39.0971 5.90478C38.448 5.26458 35.9555 5.92967 33.4419 8.44069C32.8196 9.0611 32.2841 9.72364 31.8194 10.4238L29.6601 13.7231L30.4503 9.85321C30.6073 9.04834 30.7024 8.18665 30.7024 7.30582C30.7024 3.77291 29.3977 1.51593 28.4971 1.51593C27.5965 1.51593 26.2938 3.77291 26.2938 7.30582C26.2938 8.18665 26.3761 9.04259 26.5453 9.85321L27.3329 13.6995L25.171 10.4258C24.7095 9.72556 24.1734 9.06238 23.5581 8.4426C21.0388 5.93542 18.545 5.26777 17.8971 5.90669C17.5748 6.2335 17.5971 6.98923 17.9424 7.93197C18.3892 9.11216 19.2726 10.3926 20.4375 11.5587C21.0522 12.1664 21.7122 12.7115 22.4226 13.1832L25.6893 15.3463L21.8436 14.5535C19.5522 14.0761 16.7348 14.3053 14.9814 15.1044C14.0712 15.5071 13.5051 16.0471 13.5051 16.501C13.5051 17.3971 15.7633 18.7082 19.302 18.7082C20.1803 18.7082 21.0343 18.6213 21.8475 18.4586L25.6989 17.6716L22.42 19.829C21.7179 20.2866 21.0496 20.833 20.4337 21.4483C19.2688 22.6145 18.3867 23.9025 17.9399 25.0674C17.5939 26.0172 17.5716 26.7767 17.8946 27.101C18.5348 27.7405 21.0356 27.0697 23.5562 24.5644C24.1708 23.9459 24.7076 23.2821 25.1685 22.5832L27.3431 19.2884Z" fill="#FE5757"></path> <path d="M23.8976 60.8771C25.4354 57.6323 28.5871 56.5885 31.3409 57.14C34.0948 57.6916 36.6215 59.5134 39.2214 60.9004C43.7144 63.2995 48.8511 64.3923 53.2827 61.7764C53.6894 61.5371 54.1178 61.261 54.5541 61.3565C55.5254 61.5706 55.8146 63.3098 56.4947 64.3052C57.7216 66.1089 60.3855 65.6116 60.9244 67.9778C61.2403 69.3641 60.5138 70.7866 59.7222 71.733C56.6939 75.354 52.3609 75.952 48.396 75.3927C44.431 74.8334 40.5343 73.2948 36.5515 73.287C31.5867 73.287 26.7896 75.6501 21.8732 76.6222C18.4679 77.2919 14.7517 77.2099 11.5587 75.2301C-7.63797 63.3815 21.143 66.6776 23.8976 60.8771Z" fill="#63AF4F"></path> <path d="M19 57.8943C19 57.8943 23.977 57.7397 25.4701 56.6725C26.9631 55.6053 33.1197 54.3238 33.4929 56.0392C33.8662 57.7547 40.9584 64.5716 35.3493 64.6165C29.7403 64.6613 22.2997 63.7388 20.8066 62.8262C19.3136 61.9136 19 57.8943 19 57.8943Z" fill="#A8A8A8"></path> <path opacity="0.2" d="M35.4539 64.0179C29.8398 64.0628 22.4092 63.1403 20.9111 62.2277C19.7714 61.5345 19.3185 59.0361 19.1642 57.8892H19C19 57.8892 19.3135 61.9085 20.8116 62.8211C22.3097 63.7337 29.7403 64.6563 35.3543 64.6114C36.9768 64.6114 37.5342 64.0179 37.5044 63.1652C37.2804 63.6838 36.6881 64.008 35.4539 64.0179Z" fill="black"></path> </svg> 