<?xml version="1.0" encoding="UTF-8"?> <svg xmlns="http://www.w3.org/2000/svg" width="148" height="235" viewBox="0 0 148 235" fill="none"> <path opacity="0.1" d="M49 229C71.6437 229 90 226.09 90 222.5C90 218.91 71.6437 216 49 216C26.3563 216 8 218.91 8 222.5C8 226.09 26.3563 229 49 229Z" fill="black"></path> <path d="M50.5363 225.893C78.0948 225.893 100.435 202.081 100.435 172.707C100.435 143.333 78.0948 119.521 50.5363 119.521C22.9777 119.521 0.637085 143.333 0.637085 172.707C0.637085 202.081 22.9777 225.893 50.5363 225.893Z" fill="#3F3D56"></path> <path d="M66.2823 204.175H35.2339V232.541H66.2823V204.175Z" fill="#E2E7F3"></path> <path d="M106.867 211.045L105.093 220.796L116.625 222.569L124.165 218.137L123.722 211.045H106.867Z" fill="#575A89"></path> <path d="M48.762 27.997C48.762 27.997 47.8749 38.191 45.6572 38.6342C43.4395 39.0774 50.5362 56.8061 50.5362 56.8061H61.1814L69.6088 54.59L65.6169 44.8392C65.6169 44.8392 60.2943 37.7478 64.2862 31.986C68.2782 26.2242 48.762 27.997 48.762 27.997Z" fill="#A0616A"></path> <path opacity="0.1" d="M48.762 27.997C48.762 27.997 47.8749 38.191 45.6572 38.6342C43.4395 39.0774 50.5362 56.8061 50.5362 56.8061H61.1814L69.6088 54.59L65.6169 44.8392C65.6169 44.8392 60.2943 37.7478 64.2862 31.986C68.2782 26.2242 48.762 27.997 48.762 27.997Z" fill="black"></path> <path d="M26.5845 106.003C26.5845 106.003 15.0523 128.164 24.3668 132.596C33.6813 137.028 35.899 136.585 35.899 137.915C35.899 139.244 34.1248 138.801 35.0119 141.017C35.899 143.233 33.2377 152.097 35.899 157.416C38.5603 162.735 37.6732 166.724 37.6732 166.724C37.6732 166.724 37.6732 167.167 38.5603 168.94C39.4474 170.713 39.891 172.042 39.4474 172.929C39.0039 173.815 36.3426 179.577 39.0039 180.906C41.6652 182.236 55.4152 183.123 56.7458 180.906C58.0765 178.69 55.4152 177.361 56.7458 176.031C58.0765 174.701 58.9636 174.258 58.0765 173.372C57.1894 172.485 56.3023 161.405 56.3023 161.405C56.3023 161.405 58.52 148.552 57.6329 146.779C56.7458 145.006 55.4152 143.233 56.3023 141.903C57.1894 140.574 58.0765 141.017 58.52 139.244C58.9636 137.471 59.8506 133.482 59.8506 133.482L64.7297 133.039L76.2619 135.255C76.2619 135.255 89.1248 149.438 103.318 153.87C103.318 153.87 107.31 157.859 108.641 157.859C109.972 157.859 109.972 157.859 109.528 158.746C109.085 159.632 107.754 159.632 108.641 160.519C109.528 161.405 110.859 160.075 109.972 161.405C109.085 162.735 108.197 162.735 109.085 163.621C109.972 164.507 108.641 169.383 108.641 169.826C108.641 170.269 104.649 211.932 105.98 212.818C107.31 213.704 125.939 216.364 127.27 212.818C128.601 209.272 126.383 204.84 126.383 204.84C126.383 204.84 133.036 151.654 131.262 148.108C129.488 144.563 123.278 128.607 90.0119 118.413C90.0119 118.413 80.6974 116.64 80.6974 115.311C80.6974 113.981 79.8103 105.56 78.0361 105.117C76.2619 104.673 66.0603 104.23 66.0603 104.23L53.1974 108.219L35.4555 105.117L26.5845 106.003Z" fill="#2F2E41"></path> <path d="M42.1089 180.463L39.8911 188.441C39.8911 188.441 38.1169 201.294 40.3347 204.397C42.0767 206.834 45.1869 209.818 50.9552 210.341C52.5718 210.49 54.1906 210.082 55.5438 209.186C56.8971 208.29 57.9037 206.959 58.3973 205.414C58.4635 205.229 58.5048 205.036 58.5202 204.84C58.5202 203.954 57.1895 193.316 57.1895 193.316L54.9718 182.236L54.5282 179.134L42.1089 180.463Z" fill="#2F2E41"></path> <path d="M106.867 218.58C106.867 218.58 104.649 216.364 104.206 218.58C103.762 220.796 101.988 230.103 105.093 230.547C108.197 230.99 137.915 235.422 141.02 233.649C144.125 231.876 149.891 229.217 146.343 227.887C142.794 226.558 132.593 222.569 132.593 222.569C132.593 222.569 126.826 215.034 125.939 214.591C125.052 214.148 120.173 215.034 117.956 216.807C115.738 218.58 106.867 218.58 106.867 218.58Z" fill="#2F2E41"></path> <path d="M59.4071 37.3045C67.001 37.3045 73.1571 31.153 73.1571 23.5648C73.1571 15.9765 67.001 9.82507 59.4071 9.82507C51.8132 9.82507 45.6571 15.9765 45.6571 23.5648C45.6571 31.153 51.8132 37.3045 59.4071 37.3045Z" fill="#A0616A"></path> <path d="M58.0764 54.59L52.7538 48.8282L46.854 37.3045C46.854 37.3045 42.5522 35.9749 41.6651 38.191C40.778 40.407 24.8103 47.4985 24.8103 47.4985C24.8103 47.4985 28.8022 84.7287 27.028 88.2744C25.2538 91.8201 22.149 106.003 24.8103 107.333C27.4715 108.662 39.8909 107.333 43.8828 109.106C47.8748 110.878 59.407 110.878 62.5118 108.662C65.6167 106.446 66.5038 104.673 69.6086 106.003C72.2518 107.135 78.4311 68.4356 80.2101 56.9031C80.36 55.9345 80.2356 54.9433 79.8508 54.0418C79.4661 53.1402 78.8365 52.3643 78.0332 51.8018C74.0533 49.0123 66.8856 44.2053 65.6167 44.8392C63.8425 45.7257 58.0764 54.59 58.0764 54.59Z" fill="#575A89"></path> <path d="M77.1491 52.8171C78.1907 53.0773 79.1276 53.6498 79.8341 54.4576C80.5406 55.2653 80.9829 56.2698 81.1014 57.3361L84.6894 89.6041C84.6894 89.6041 75.8185 108.662 71.383 95.8091C66.9475 82.9558 77.1491 52.8171 77.1491 52.8171Z" fill="#575A89"></path> <path d="M76.2621 92.7065L86.0202 90.0472C86.0202 90.0472 87.7944 102.457 89.5686 102.457C91.3428 102.457 83.3589 109.549 79.3669 108.662C75.375 107.776 69.6089 104.673 69.1653 102.457C68.7218 100.241 73.1573 90.9337 73.1573 90.9337L76.2621 92.7065Z" fill="#575A89"></path> <path d="M49.0274 29.4919C49.9624 27.4319 49.8 25.0289 50.573 22.9028C50.9869 21.7644 51.6586 20.737 52.5356 19.901C53.4126 19.0649 54.4712 18.4427 55.6287 18.0831C56.7861 17.7234 58.0111 17.6361 59.208 17.8278C60.4048 18.0196 61.5411 18.4852 62.528 19.1884C63.5224 19.8968 64.5192 20.8922 65.7329 20.7569C67.0399 20.6113 68.2057 19.1543 69.4074 19.6883C70.7392 20.2801 70.3795 22.6652 71.7289 23.2161C72.4391 23.5061 73.2784 23.0596 73.6881 22.4114C74.0463 21.7302 74.2416 20.9752 74.2584 20.2059C74.4446 18.3155 74.6128 16.3149 73.7924 14.6014C73.4473 14.0207 73.1466 13.4147 72.8927 12.7887C72.7492 12.2041 72.6916 11.6018 72.7217 11.0006C72.7142 8.7787 72.5519 6.4611 71.4329 4.54108C70.1912 2.41049 67.8958 1.04809 65.5012 0.453618C63.1066 -0.140855 60.5978 -0.0497032 58.1392 0.15828C54.0748 0.502101 49.8363 1.2391 46.6342 3.76384C46.1989 4.08155 45.8243 4.47481 45.5282 4.92486C45.2472 5.45951 45.0486 6.03352 44.9392 6.62747C44.2468 9.44461 43.2088 12.1655 41.8487 14.7282C41.1944 15.8146 40.6597 16.9686 40.2539 18.17C39.9144 19.3908 39.9373 20.782 40.6481 21.8313C41.2268 22.6856 42.152 23.1409 42.8789 23.8393C43.5992 24.5313 43.9362 25.8623 44.7341 26.3863C45.4306 26.8438 46.2649 26.5209 46.9753 27.0057C47.8873 27.6282 47.9532 28.9932 49.0274 29.4919Z" fill="#2F2E41"></path> <path d="M60.2942 61.2382L61.6248 58.5789C61.6248 58.5789 81.141 64.3407 85.1329 69.6593C85.1329 69.6593 94.891 63.4542 100.214 64.3407L105.536 65.2271L89.1248 79.8532L68.2781 78.0804L60.2942 61.2382Z" fill="#F2F2F2"></path> <path d="M59.4073 58.5789L41.2218 83.8422L67.3912 96.6954C67.3912 96.6954 69.8376 98.0251 71.7192 96.6954L89.125 88.7176L105.536 65.2271L89.125 73.6482C89.125 73.6482 87.3508 70.1025 83.8024 71.8753L59.4073 58.5789Z" fill="#28B351"></path> <path d="M87.3507 103.344L90.8991 94.0362C90.8991 94.0362 98.8829 83.8422 94.4474 78.9668C90.012 74.0914 85.1329 93.1497 85.1329 93.1497L87.3507 103.344Z" fill="#A0616A"></path> <path d="M46.41 101.858L54.1527 95.586C54.1527 95.586 66.1773 90.7705 64.7884 84.3295C63.3994 77.8885 49.6099 91.9285 49.6099 91.9285L46.41 101.858Z" fill="#A0616A"></path> <path opacity="0.1" d="M27.2499 57.0277H26.8064C26.8064 57.0277 19.9314 48.8282 18.6008 59.9086C17.2701 70.989 12.8346 107.776 24.3669 109.106C35.8991 110.435 44.1048 103.565 44.1048 103.565C44.1048 103.565 52.5322 90.7121 49.4274 90.7121C47.9251 90.7121 43.8394 90.0379 40.1129 90.2689C36.1374 90.5154 32.5654 91.6344 32.7943 90.4905C33.2379 88.2744 39.6693 60.1302 27.2499 57.0277Z" fill="black"></path> <path d="M26.5846 48.385L24.8104 47.4985C24.8104 47.4985 17.7136 48.8282 16.383 59.9086C15.0523 70.989 10.6168 107.776 22.1491 109.106C33.6814 110.435 49.2056 107.333 49.2056 107.333C49.2056 107.333 52.3104 90.4905 49.2056 90.4905C46.1007 90.4905 30.133 92.7066 30.5765 90.4905C31.0201 88.2744 39.004 51.4875 26.5846 48.385Z" fill="#575A89"></path> <path d="M80.9193 98.2469L85.8103 90.7561L88.9032 103.122L80.9193 106.668V98.2469Z" fill="#575A89"></path> </svg> 