<?xml version="1.0" encoding="UTF-8"?> <svg xmlns="http://www.w3.org/2000/svg" width="338" height="40" viewBox="0 0 338 40" fill="none"> <path d="M272.492 31.0976C278.082 34.4616 284.87 32.4166 291.202 32.6516C292.069 32.6836 292.987 32.7836 293.682 33.3636C294.377 33.9426 294.72 34.8896 295.195 35.6966C296.968 38.6966 300.601 39.6636 303.776 39.1526C306.95 38.6406 309.865 36.9586 312.863 35.6726C318.054 33.4556 323.967 32.4446 329.074 34.8736C329.511 35.1536 330.024 35.2926 330.543 35.2726C331.661 35.0736 331.996 33.4636 332.779 32.5446C334.193 30.8826 337.267 31.3456 337.886 29.1446C338.249 27.8616 337.411 26.5476 336.5 25.6726C333.011 22.3206 328.012 21.7686 323.44 22.2846C318.868 22.7996 314.376 24.1986 309.781 24.1986C304.059 24.1986 298.529 22.0126 292.859 21.1136C288.93 20.4906 284.646 20.5706 280.965 22.4006C276.976 24.3976 276.098 28.8406 272.492 31.0976Z" fill="#63AF4F"></path> <path d="M0 13.7211C19.564 8.08309 43.441 11.5151 65.641 11.1161C68.679 11.0601 71.897 10.8961 74.337 9.91711C76.777 8.93811 77.974 7.3601 79.647 6.0101C85.868 0.980095 98.617 -0.637903 109.757 0.217096C120.897 1.0721 131.118 3.89611 141.635 6.04611C159.81 9.76511 180.589 11.4591 198.516 7.40411C200.161 7.03311 201.894 6.60511 203.659 6.75311C207.588 7.08511 208.758 9.78109 211.509 11.3241C216.472 14.1201 227.248 13.3491 229.428 17.0171C230.706 19.1661 227.767 21.3711 224.565 22.8381C212.315 28.4511 194.787 29.3781 178.748 28.5111C162.709 27.6441 146.946 25.2591 130.835 25.2471C110.751 25.2471 91.346 28.9101 71.458 30.4171C57.683 31.4551 42.65 31.3281 29.734 28.2591C15.731 24.9471 12.645 17.5041 0 13.7211Z" fill="#63AF4F"></path> </svg> 