<?xml version="1.0" encoding="UTF-8"?> <svg xmlns="http://www.w3.org/2000/svg" width="180" height="130" viewBox="0 0 180 130" fill="none"> <path d="M12.7151 129.162C4.37134 115.93 -0.024231 100.787 0.000106812 85.3594C0.000106812 38.2167 40.2046 0 89.7994 0C139.394 0 179.599 38.2167 179.599 85.3594C179.623 100.787 175.227 115.93 166.884 129.162H12.7151Z" fill="#3F3D56"></path> <path d="M81.6345 79.7438C81.6345 83.9929 85.2659 87.4802 89.7994 87.4802C94.3329 87.4802 97.9642 83.9929 97.9642 79.7438C97.9642 75.4946 94.3329 72.0073 89.7994 72.0073C85.2659 72.0073 81.6345 75.4946 81.6345 79.7438Z" fill="#2B9E29" stroke="#2B9E29"></path> <path d="M154.892 93.2212C154.892 95.1959 156.583 96.8394 158.724 96.8394C160.865 96.8394 162.557 95.1959 162.557 93.2212C162.557 91.2465 160.865 89.603 158.724 89.603C156.583 89.603 154.892 91.2465 154.892 93.2212Z" fill="#2B9E29" stroke="#2B9E29"></path> <path d="M152.35 57.5528C152.35 59.5275 154.041 61.171 156.182 61.171C158.323 61.171 160.015 59.5275 160.015 57.5528C160.015 55.5781 158.323 53.9346 156.182 53.9346C154.041 53.9346 152.35 55.5781 152.35 57.5528Z" fill="#2B9E29" stroke="#2B9E29"></path> <path d="M130.844 28.2227C130.844 30.1974 132.536 31.8409 134.677 31.8409C136.818 31.8409 138.509 30.1974 138.509 28.2227C138.509 26.248 136.818 24.6045 134.677 24.6045C132.536 24.6045 130.844 26.248 130.844 28.2227Z" fill="#2B9E29" stroke="#2B9E29"></path> <path d="M96.5191 13.6109C96.5191 15.5856 98.2108 17.2291 100.352 17.2291C102.492 17.2291 104.184 15.5856 104.184 13.6109C104.184 11.6362 102.492 9.99268 100.352 9.99268C98.2108 9.99268 96.5191 11.6362 96.5191 13.6109Z" fill="#2B9E29" stroke="#2B9E29"></path> <path d="M59.1793 17.8907C59.1793 19.8653 60.8709 21.5089 63.0117 21.5089C65.1525 21.5089 66.8441 19.8653 66.8441 17.8907C66.8441 15.916 65.1525 14.2725 63.0117 14.2725C60.8709 14.2725 59.1793 15.916 59.1793 17.8907Z" fill="#2B9E29" stroke="#2B9E29"></path> <path d="M29.4918 39.8399C29.4918 41.8146 31.1834 43.4581 33.3242 43.4581C35.465 43.4581 37.1566 41.8146 37.1566 39.8399C37.1566 37.8652 35.465 36.2217 33.3242 36.2217C31.1834 36.2217 29.4918 37.8652 29.4918 39.8399Z" fill="#2B9E29" stroke="#2B9E29"></path> <path d="M15.9373 73.188C15.9373 75.1627 17.629 76.8062 19.7697 76.8062C21.9105 76.8062 23.6022 75.1627 23.6022 73.188C23.6022 71.2133 21.9105 69.5698 19.7697 69.5698C17.629 69.5698 15.9373 71.2133 15.9373 73.188Z" fill="#2B9E29" stroke="#2B9E29"></path> <path d="M22.3878 108.409C22.3878 110.383 24.0794 112.027 26.2202 112.027C28.361 112.027 30.0526 110.383 30.0526 108.409C30.0526 106.434 28.361 104.791 26.2202 104.791C24.0794 104.791 22.3878 106.434 22.3878 108.409Z" fill="#2B9E29" stroke="#2B9E29"></path> <path d="M90 78.197L134.506 46" stroke="#2B9E29" stroke-width="4" stroke-miterlimit="10"></path> </svg> 