<?xml version="1.0" encoding="UTF-8"?> <svg xmlns="http://www.w3.org/2000/svg" width="66" height="21" viewBox="0 0 66 21" fill="none"> <path d="M0.492004 12.6259C6.082 15.9899 12.87 13.9449 19.202 14.1799C20.069 14.2119 20.987 14.3119 21.682 14.8919C22.377 15.4709 22.72 16.4179 23.195 17.2249C24.968 20.2249 28.601 21.1919 31.776 20.6809C34.95 20.1689 37.865 18.4869 40.863 17.2009C46.054 14.9839 51.967 13.9729 57.074 16.4019C57.511 16.6819 58.024 16.8209 58.543 16.8009C59.661 16.6019 59.996 14.9919 60.779 14.0729C62.193 12.4109 65.267 12.8739 65.886 10.6729C66.249 9.38994 65.411 8.07592 64.5 7.20092C61.011 3.84892 56.012 3.29692 51.44 3.81292C46.868 4.32792 42.376 5.72692 37.781 5.72692C32.059 5.72692 26.529 3.54093 20.859 2.64193C16.93 2.01893 12.646 2.09892 8.965 3.92892C4.976 5.92592 4.098 10.3689 0.492004 12.6259Z" fill="#63AF4F"></path> <path d="M23.264 3.81296C23.264 3.81296 29.397 3.62498 31.249 2.30698C33.102 0.987981 40.68 -0.58202 41.139 1.53098C41.598 3.64498 50.355 12.035 43.431 12.091C36.508 12.147 27.344 11.012 25.5 9.88498C23.655 8.75898 23.264 3.81296 23.264 3.81296Z" fill="#717171"></path> <path opacity="0.2" d="M43.551 11.3559C36.627 11.4119 27.464 10.2769 25.619 9.14993C24.214 8.29493 23.655 5.22293 23.467 3.80493H23.264C23.264 3.80493 23.663 8.75493 25.496 9.87793C27.328 10.9999 36.504 12.1389 43.427 12.0829C45.424 12.0829 46.118 11.3559 46.078 10.3009C45.803 10.9439 45.04 11.3439 43.551 11.3559Z" fill="black"></path> </svg> 