<?xml version="1.0" encoding="UTF-8"?> <svg xmlns="http://www.w3.org/2000/svg" width="120" height="37" viewBox="0 0 120 37" fill="none"> <path d="M0 21.9737C10.2442 28.1496 22.6839 24.3952 34.288 24.8267C35.8768 24.8854 37.5592 25.069 38.8329 26.1338C40.1065 27.1968 40.7351 28.9354 41.6056 30.417C44.8548 35.9246 51.5126 37.6999 57.3311 36.7618C63.1478 35.8218 68.4899 32.7338 73.984 30.3729C83.497 26.3027 94.3332 24.4467 103.692 28.906C104.493 29.4201 105.433 29.6752 106.384 29.6385C108.433 29.2732 109.047 26.3174 110.482 24.6302C113.073 21.579 118.707 22.429 119.841 18.3882C120.506 16.0328 118.971 13.6204 117.301 12.014C110.907 5.86014 101.746 4.84673 93.3674 5.79404C84.9888 6.73952 76.7567 9.30793 68.3359 9.30793C57.8498 9.30793 47.7155 5.2947 37.3246 3.64424C30.1243 2.50048 22.2734 2.64733 15.5276 6.007C8.21738 9.67326 6.60837 17.8301 0 21.9737Z" fill="#63AF4F"></path> <path d="M42 6.00503C42 6.00503 53.287 5.6646 56.6954 3.27772C60.1056 0.889032 74.052 -1.95422 74.8967 1.8724C75.7415 5.70082 91.8576 20.895 79.1149 20.9964C66.3739 21.0978 49.5087 19.0424 46.1151 17.0014C42.7196 14.9622 42 6.00503 42 6.00503Z" fill="#A8A8A8"></path> <path d="M21 14.5736C21 14.5736 26.106 14.4277 27.6479 13.4047C29.1906 12.381 35.4997 11.1625 35.8819 12.8025C36.264 14.4432 43.5546 20.955 37.7901 20.9985C32.0263 21.0419 24.3968 20.161 22.8616 19.2863C21.3255 18.4124 21 14.5736 21 14.5736Z" fill="#A8A8A8"></path> <path opacity="0.2" d="M79.3452 19.6793C66.5992 19.7808 49.7315 17.7246 46.3352 15.683C43.7488 14.1341 42.7198 8.56884 42.3737 6H42C42 6 42.7345 14.9674 46.1088 17.0018C49.4812 19.0344 66.3728 21.0979 79.1169 20.9964C82.7931 20.9964 84.0706 19.6794 83.997 17.7681C83.4908 18.933 82.0862 19.6576 79.3452 19.6793Z" fill="black"></path> <path opacity="0.2" d="M37.8942 20.3837C32.1282 20.431 24.4976 19.4715 22.9611 18.5187C21.7911 17.7959 21.3256 15.6988 21.1691 14.5H21C21 14.5 21.3323 18.1848 22.8587 19.1342C24.3843 20.0827 32.0258 21.0457 37.791 20.9983C39.454 20.9983 40.032 20.3837 39.9986 19.4918C39.7696 20.0354 39.1342 20.3735 37.8942 20.3837Z" fill="black"></path> </svg> 