<?xml version="1.0" encoding="UTF-8"?> <svg xmlns="http://www.w3.org/2000/svg" width="120" height="87" viewBox="0 0 120 87" fill="none"> <path d="M60.9462 47.5063C59.3715 47.5063 57.8224 47.0601 56.4807 46.2303L56.0339 45.9431L56.1495 45.4235C56.7188 42.7376 58.5539 40.4985 61.0572 39.4332C63.5625 38.3686 66.4859 38.6041 68.7907 40.0447L69.2394 40.3217L69.1341 40.8432C68.5654 43.5272 66.722 45.7663 64.2161 46.8316C63.1623 47.2778 62.0759 47.5063 60.9462 47.5063ZM57.7586 45.2116C58.7409 45.7197 59.8349 45.9878 60.9462 45.9878C61.8647 45.9878 62.7653 45.8072 63.6232 45.444C65.5042 44.6378 66.9288 43.0172 67.5116 41.0551C65.7065 40.1188 63.53 40.0262 61.6534 40.8247C59.7673 41.6277 58.3407 43.2387 57.7586 45.2116Z" fill="#63AF4F"></path> <path d="M54.8174 58.682C51.7268 52.2953 52.3817 45.3055 56.7686 37.8841C61.4294 30.0236 57.5837 23.4544 57.5499 23.3867L58.8418 22.6055C59.0237 22.9042 63.186 30.0236 58.0771 38.6615C53.9621 45.6093 53.3232 52.1243 56.1884 58.0246L54.8174 58.682Z" fill="#63AF4F"></path> <path d="M54.4209 49.7613L52.9331 49.5079C53.5708 45.7197 56.5618 44.8836 56.6939 44.844L57.0871 46.3165C56.9939 46.3414 54.8997 46.9599 54.4209 49.7613Z" fill="#63AF4F"></path> <path d="M68 40.5C64 39.5 58.7 39.8998 57.5 45.4998C60.3333 46.4997 66.8 46.8999 68 40.5Z" fill="#63AF4F"></path> <ellipse cx="55.5" cy="8" rx="2.5" ry="7" fill="#7C7CDD"></ellipse> <ellipse cx="55.5" cy="25" rx="2.5" ry="7" fill="#7C7CDD"></ellipse> <ellipse cx="61.5713" cy="10.5714" rx="2.70658" ry="7" transform="rotate(45 61.5713 10.5714)" fill="#7C7CDD"></ellipse> <ellipse rx="2.70658" ry="7" transform="matrix(0.707107 -0.707107 -0.707107 -0.707107 61.5713 22.8637)" fill="#7C7CDD"></ellipse> <ellipse rx="2.70658" ry="7" transform="matrix(0.707107 -0.707107 -0.707107 -0.707107 49.8635 10.5715)" fill="#7C7CDD"></ellipse> <ellipse cx="49.6757" cy="22.6757" rx="2.97228" ry="7" transform="rotate(45 49.6757 22.6757)" fill="#7C7CDD"></ellipse> <ellipse rx="2.70658" ry="7" transform="matrix(-4.37114e-08 -1 -1 4.37114e-08 47 16.7065)" fill="#7C7CDD"></ellipse> <ellipse rx="2.70658" ry="7" transform="matrix(-4.37114e-08 -1 -1 4.37114e-08 64 16.7065)" fill="#7C7CDD"></ellipse> <path d="M55.4996 19.1831C54.0156 19.1831 52.8232 17.9786 52.8232 16.4991C52.8232 15.0234 54.0156 13.8196 55.4996 13.8196C56.9759 13.8196 58.1765 15.024 58.1765 16.4991C58.1765 17.9774 56.9759 19.1831 55.4996 19.1831ZM55.4996 15.3336C54.8517 15.3336 54.3334 15.8589 54.3334 16.4997C54.3334 17.1431 54.8524 17.6697 55.4996 17.6697C56.1468 17.6697 56.6753 17.1425 56.6753 16.4997C56.6753 15.8589 56.1474 15.3336 55.4996 15.3336Z" fill="white"></path> <path d="M55.4997 33.0051C53.3787 33.0051 51.7791 29.8641 51.7791 25.6974C51.7791 25.6221 51.7791 25.5436 51.7791 25.4689C51.7306 25.5231 51.6846 25.5735 51.6259 25.6297C48.7932 28.4682 45.2929 29.6279 43.8344 28.1701C43.0416 27.3882 42.9491 26.0995 43.5344 24.5319C44.0539 23.1615 45.0605 21.687 46.3767 20.3766C46.4258 20.3224 46.482 20.2649 46.5407 20.2158C42.2878 20.2471 39 18.6603 39 16.4978C39 15.3916 39.84 14.408 41.3585 13.7199C42.7531 13.0861 44.5939 12.7644 46.5407 12.781C46.482 12.7338 46.4258 12.6764 46.3767 12.6221C43.4259 9.67513 42.3344 6.32924 43.8344 4.82863C45.282 3.36504 48.7932 4.53119 51.6259 7.37028C51.6846 7.42709 51.7306 7.47688 51.7791 7.53113C51.7791 7.45581 51.7791 7.38305 51.7791 7.30263C51.7791 3.13654 53.3787 0 55.4997 0C57.6124 0 59.2164 3.13654 59.2164 7.30263C59.2164 7.38496 59.2164 7.45645 59.2164 7.53879C59.2592 7.48262 59.3198 7.42773 59.3792 7.36582C62.2119 4.53183 65.7065 3.3727 67.165 4.82927C68.6662 6.33052 67.576 9.67449 64.6342 12.6227C64.5787 12.677 64.5199 12.7344 64.4625 12.7817C68.7224 12.7344 72 14.3442 72 16.4959C72 18.659 68.7224 20.2458 64.4625 20.2145C64.5199 20.2707 64.5787 20.3224 64.6342 20.3754C65.9388 21.6845 66.9499 23.1583 67.465 24.5306C68.0586 26.0989 67.9577 27.3869 67.165 28.1688C65.7065 29.6254 62.2113 28.4669 59.3792 25.6291C59.3198 25.5729 59.263 25.5212 59.2164 25.4682C59.2164 25.5429 59.2164 25.6221 59.2164 25.6967C59.2164 29.8641 57.6124 33.0051 55.4997 33.0051ZM54.3431 19.2884L53.5453 23.1487C53.3761 23.9606 53.2938 24.8178 53.2938 25.6999C53.2938 29.2335 54.5965 31.4885 55.4971 31.4885C56.3977 31.4885 57.7024 29.2335 57.7024 25.6999C57.7024 24.8197 57.6079 23.9561 57.4503 23.1487L56.6601 19.2954L58.8194 22.58C59.2841 23.2808 59.8196 23.9434 60.4419 24.5619C62.9555 27.0671 65.4486 27.7361 66.0971 27.0984C66.4188 26.7742 66.401 25.9999 66.0525 25.0719C65.6063 23.8993 64.7216 22.6113 63.558 21.4451C62.9472 20.8356 62.2821 20.2834 61.5819 19.8264L58.2941 17.6684L62.1449 18.4554C62.9561 18.6162 63.8102 18.7037 64.6948 18.7037C68.229 18.7037 70.4841 17.3958 70.4841 16.4978C70.4841 15.6023 68.229 14.2963 64.6948 14.2963C63.8114 14.2963 62.9574 14.3819 62.1481 14.5446L58.3062 15.3374L61.58 13.1742C62.2808 12.7095 62.9434 12.1702 63.5548 11.5568C66.0601 9.05153 66.7284 6.53541 66.0971 5.90478C65.448 5.26458 62.9555 5.92967 60.4419 8.44069C59.8196 9.0611 59.2841 9.72364 58.8194 10.4238L56.6601 13.7231L57.4503 9.85321C57.6073 9.04834 57.7024 8.18665 57.7024 7.30582C57.7024 3.77291 56.3977 1.51593 55.4971 1.51593C54.5965 1.51593 53.2938 3.77291 53.2938 7.30582C53.2938 8.18665 53.3761 9.04259 53.5453 9.85321L54.3329 13.6995L52.171 10.4258C51.7095 9.72556 51.1734 9.06238 50.5581 8.4426C48.0388 5.93542 45.545 5.26777 44.8971 5.90669C44.5748 6.2335 44.5971 6.98923 44.9424 7.93197C45.3892 9.11216 46.2726 10.3926 47.4375 11.5587C48.0522 12.1664 48.7122 12.7115 49.4226 13.1832L52.6893 15.3463L48.8436 14.5535C46.5522 14.0761 43.7348 14.3053 41.9814 15.1044C41.0712 15.5071 40.5051 16.0471 40.5051 16.501C40.5051 17.3971 42.7633 18.7082 46.302 18.7082C47.1803 18.7082 48.0343 18.6213 48.8475 18.4586L52.6989 17.6716L49.42 19.829C48.7179 20.2866 48.0496 20.833 47.4337 21.4483C46.2688 22.6145 45.3867 23.9025 44.9399 25.0674C44.5939 26.0172 44.5716 26.7767 44.8946 27.101C45.5348 27.7405 48.0356 27.0697 50.5562 24.5644C51.1708 23.9459 51.7076 23.2821 52.1685 22.5832L54.3431 19.2884Z" fill="#7C7CDD"></path> <path d="M0 71.6456C10.2442 77.8215 22.6839 74.0671 34.288 74.4985C35.8768 74.5573 37.5592 74.7409 38.8329 75.8057C40.1065 76.8687 40.7351 78.6073 41.6056 80.0888C44.8548 85.5965 51.5126 87.3718 57.3311 86.4336C63.1478 85.4937 68.4899 82.4057 73.984 80.0447C83.497 75.9746 94.3332 74.1185 103.692 78.5779C104.493 79.0919 105.433 79.3471 106.384 79.3104C108.433 78.9451 109.047 75.9893 110.482 74.3021C113.073 71.2509 118.707 72.1009 119.841 68.0601C120.506 65.7047 118.971 63.2923 117.301 61.6859C110.907 55.532 101.746 54.5186 93.3674 55.4659C84.9888 56.4114 76.7567 58.9798 68.3359 58.9798C57.8498 58.9798 47.7155 54.9666 37.3246 53.3161C30.1243 52.1724 22.2734 52.3192 15.5276 55.6789C8.21738 59.3451 6.60837 67.502 0 71.6456Z" fill="#63AF4F"></path> <path d="M42 55.6769C42 55.6769 53.287 55.3365 56.6954 52.9496C60.1056 50.5609 74.052 47.7177 74.8967 51.5443C75.7415 55.3727 91.8576 70.5669 79.1149 70.6683C66.3739 70.7697 49.5087 68.7142 46.1151 66.6732C42.7196 64.6341 42 55.6769 42 55.6769Z" fill="#717171"></path> <path d="M21 64.2455C21 64.2455 26.106 64.0996 27.6479 63.0766C29.1906 62.0529 35.4997 60.8344 35.8819 62.4743C36.264 64.1151 43.5546 70.6269 37.7901 70.6703C32.0263 70.7138 24.3968 69.8329 22.8616 68.9582C21.3255 68.0842 21 64.2455 21 64.2455Z" fill="#717171"></path> <path opacity="0.2" d="M79.3452 69.3512C66.5992 69.4527 49.7315 67.3965 46.3352 65.3548C43.7488 63.8059 42.7198 58.2407 42.3737 55.6719H42C42 55.6719 42.7345 64.6393 46.1088 66.6737C49.4812 68.7063 66.3728 70.7697 79.1169 70.6683C82.7931 70.6683 84.0706 69.3512 83.997 67.44C83.4908 68.6049 82.0862 69.3295 79.3452 69.3512Z" fill="black"></path> <path opacity="0.2" d="M37.8942 70.0556C32.1282 70.1029 24.4976 69.1434 22.9611 68.1906C21.7911 67.4678 21.3256 65.3707 21.1691 64.1719H21C21 64.1719 21.3323 67.8567 22.8587 68.8061C24.3843 69.7546 32.0258 70.7175 37.791 70.6702C39.454 70.6702 40.032 70.0556 39.9986 69.1637C39.7696 69.7073 39.1342 70.0454 37.8942 70.0556Z" fill="black"></path> </svg> 