<?xml version="1.0" encoding="UTF-8"?> <svg xmlns="http://www.w3.org/2000/svg" width="150" height="235" viewBox="0 0 150 235" fill="none"> <path opacity="0.1" d="M52.7823 227.666C81.9331 227.666 105.565 224.788 105.565 221.239C105.565 217.69 81.9331 214.812 52.7823 214.812C23.6314 214.812 0 217.69 0 221.239C0 224.788 23.6314 227.666 52.7823 227.666Z" fill="black"></path> <path d="M52.5604 225.893C80.119 225.893 102.46 202.081 102.46 172.707C102.46 143.333 80.119 119.521 52.5604 119.521C25.0019 119.521 2.66125 143.333 2.66125 172.707C2.66125 202.081 25.0019 225.893 52.5604 225.893Z" fill="#3F3D56"></path> <path d="M68.3064 204.175H37.2581V232.541H68.3064V204.175Z" fill="#2B9E29"></path> <path d="M108.891 211.045L107.117 220.796L118.649 222.569L126.189 218.137L125.746 211.045H108.891Z" fill="#575A89"></path> <path d="M50.7862 27.997C50.7862 27.997 49.8991 38.191 47.6814 38.6342C45.4636 39.0774 52.5604 56.8061 52.5604 56.8061H63.2056L71.633 54.59L67.641 44.8392C67.641 44.8392 62.3185 37.7478 66.3104 31.986C70.3023 26.2242 50.7862 27.997 50.7862 27.997Z" fill="#A0616A"></path> <path opacity="0.1" d="M50.7862 27.997C50.7862 27.997 49.8991 38.191 47.6814 38.6342C45.4636 39.0774 52.5604 56.8061 52.5604 56.8061H63.2056L71.633 54.59L67.641 44.8392C67.641 44.8392 62.3185 37.7478 66.3104 31.986C70.3023 26.2242 50.7862 27.997 50.7862 27.997Z" fill="black"></path> <path d="M28.6087 106.003C28.6087 106.003 17.0764 128.164 26.3909 132.596C35.7055 137.028 37.9232 136.585 37.9232 137.914C37.9232 139.244 36.149 138.801 37.0361 141.017C37.9232 143.233 35.2619 152.097 37.9232 157.416C40.5845 162.735 39.6974 166.723 39.6974 166.723C39.6974 166.723 39.6974 167.167 40.5845 168.94C41.4716 170.712 41.9151 172.042 41.4716 172.928C41.028 173.815 38.3668 179.577 41.028 180.906C43.6893 182.236 57.4393 183.122 58.77 180.906C60.1006 178.69 57.4393 177.361 58.77 176.031C60.1006 174.701 60.9877 174.258 60.1006 173.372C59.2135 172.485 58.3264 161.405 58.3264 161.405C58.3264 161.405 60.5442 148.552 59.6571 146.779C58.77 145.006 57.4393 143.233 58.3264 141.903C59.2135 140.574 60.1006 141.017 60.5442 139.244C60.9877 137.471 61.8748 133.482 61.8748 133.482L66.7538 133.039L78.2861 135.255C78.2861 135.255 91.149 149.438 105.343 153.87C105.343 153.87 109.334 157.859 110.665 157.859C111.996 157.859 111.996 157.859 111.552 158.746C111.109 159.632 109.778 159.632 110.665 160.518C111.552 161.405 112.883 160.075 111.996 161.405C111.109 162.735 110.222 162.735 111.109 163.621C111.996 164.507 110.665 169.383 110.665 169.826C110.665 170.269 106.673 211.931 108.004 212.818C109.334 213.704 127.964 216.364 129.294 212.818C130.625 209.272 128.407 204.84 128.407 204.84C128.407 204.84 135.06 151.654 133.286 148.108C131.512 144.563 125.302 128.607 92.0361 118.413C92.0361 118.413 82.7216 116.64 82.7216 115.31C82.7216 113.981 81.8345 105.56 80.0603 105.116C78.2861 104.673 68.0845 104.23 68.0845 104.23L55.2216 108.219L37.4797 105.116L28.6087 106.003Z" fill="#2F2E41"></path> <path d="M44.133 180.463L41.9153 188.441C41.9153 188.441 40.1411 201.295 42.3588 204.397C44.1008 206.834 47.2111 209.818 52.9794 210.342C54.596 210.49 56.2147 210.082 57.568 209.186C58.9213 208.29 59.9279 206.959 60.4215 205.414C60.4877 205.229 60.529 205.036 60.5444 204.84C60.5444 203.954 59.2137 193.317 59.2137 193.317L56.996 182.236L56.5524 179.134L44.133 180.463Z" fill="#2F2E41"></path> <path d="M108.891 218.58C108.891 218.58 106.673 216.364 106.23 218.58C105.786 220.796 104.012 230.104 107.117 230.547C110.222 230.99 139.939 235.422 143.044 233.649C146.149 231.876 151.915 229.217 148.367 227.887C144.818 226.558 134.617 222.569 134.617 222.569C134.617 222.569 128.851 215.034 127.964 214.591C127.076 214.148 122.197 215.034 119.98 216.807C117.762 218.58 108.891 218.58 108.891 218.58Z" fill="#2F2E41"></path> <path d="M61.4313 37.3046C69.0252 37.3046 75.1813 31.1531 75.1813 23.5649C75.1813 15.9767 69.0252 9.8252 61.4313 9.8252C53.8374 9.8252 47.6813 15.9767 47.6813 23.5649C47.6813 31.1531 53.8374 37.3046 61.4313 37.3046Z" fill="#A0616A"></path> <path d="M60.1005 54.5897L54.778 48.8279L48.8781 37.3043C48.8781 37.3043 44.5763 35.9746 43.6893 38.1907C42.8022 40.4068 26.8344 47.4983 26.8344 47.4983C26.8344 47.4983 30.8264 84.7284 29.0522 88.2742C27.278 91.8199 24.1731 106.003 26.8344 107.332C29.4957 108.662 41.9151 107.332 45.907 109.105C49.8989 110.878 61.4312 110.878 64.536 108.662C67.6409 106.446 68.528 104.673 71.6328 106.003C74.276 107.135 80.4553 68.4354 82.2343 56.9029C82.3842 55.9343 82.2597 54.9431 81.875 54.0415C81.4903 53.14 80.8606 52.364 80.0574 51.8016C76.0775 49.012 68.9098 44.205 67.6409 44.839C65.8667 45.7254 60.1005 54.5897 60.1005 54.5897Z" fill="#575A89"></path> <path d="M79.1733 52.8169C80.2148 53.0771 81.1518 53.6495 81.8583 54.4573C82.5648 55.2651 83.007 56.2696 83.1256 57.3358L86.7136 89.6038C86.7136 89.6038 77.8426 108.662 73.4072 95.8088C68.9717 82.9556 79.1733 52.8169 79.1733 52.8169Z" fill="#575A89"></path> <path d="M78.2864 92.7067L88.0445 90.0474C88.0445 90.0474 89.8187 102.457 91.5928 102.457C93.367 102.457 85.3832 109.549 81.3912 108.662C77.3993 107.776 71.6332 104.673 71.1896 102.457C70.7461 100.241 75.1816 90.9338 75.1816 90.9338L78.2864 92.7067Z" fill="#575A89"></path> <path d="M51.0516 29.4919C51.9865 27.4319 51.8242 25.0289 52.5972 22.9028C53.0111 21.7644 53.6828 20.737 54.5598 19.901C55.4368 19.0649 56.4954 18.4427 57.6528 18.0831C58.8103 17.7234 60.0353 17.6361 61.2321 17.8278C62.429 18.0196 63.5653 18.4852 64.5522 19.1884C65.5465 19.8968 66.5434 20.8922 67.7571 20.7569C69.0641 20.6113 70.2299 19.1543 71.4315 19.6883C72.7634 20.2801 72.4037 22.6652 73.753 23.2161C74.4633 23.5061 75.3026 23.0596 75.7122 22.4114C76.0705 21.7302 76.2657 20.9752 76.2826 20.2059C76.4687 18.3155 76.637 16.3149 75.8166 14.6014C75.4715 14.0207 75.1707 13.4147 74.9169 12.7887C74.7734 12.2041 74.7158 11.6018 74.7459 11.0006C74.7384 8.7787 74.5761 6.4611 73.4571 4.54108C72.2153 2.41049 69.92 1.04809 67.5254 0.453618C65.1308 -0.140855 62.622 -0.0497032 60.1634 0.15828C56.099 0.502101 51.8604 1.2391 48.6583 3.76384C48.2231 4.08155 47.8485 4.47481 47.5524 4.92486C47.2713 5.45951 47.0727 6.03352 46.9633 6.62747C46.271 9.44461 45.233 12.1655 43.8729 14.7282C43.2186 15.8146 42.6839 16.9686 42.2781 18.17C41.9385 19.3908 41.9615 20.782 42.6723 21.8313C43.251 22.6856 44.1762 23.1409 44.9031 23.8393C45.6234 24.5313 45.9604 25.8623 46.7582 26.3863C47.4547 26.8438 48.2891 26.5209 48.9994 27.0057C49.9115 27.6282 49.9774 28.9932 51.0516 29.4919Z" fill="#2F2E41"></path> <path d="M62.3184 61.2384L63.649 58.5791C63.649 58.5791 83.1651 64.3409 87.1571 69.6595C87.1571 69.6595 96.9151 63.4545 102.238 64.3409L107.56 65.2273L91.149 79.8535L70.3022 78.0806L62.3184 61.2384Z" fill="#F2F2F2"></path> <path d="M61.4316 58.5791L43.2461 83.8424L69.4154 96.6957C69.4154 96.6957 71.8619 98.0253 73.7435 96.6957L91.1493 88.7178L107.561 65.2273L91.1493 73.6485C91.1493 73.6485 89.3751 70.1027 85.8267 71.8756L61.4316 58.5791Z" fill="#2B9E29"></path> <path d="M89.3748 103.344L92.9232 94.0363C92.9232 94.0363 100.907 83.8423 96.4716 78.9669C92.0361 74.0915 87.1571 93.1498 87.1571 93.1498L89.3748 103.344Z" fill="#A0616A"></path> <path d="M48.4343 101.858L56.177 95.5858C56.177 95.5858 68.2016 90.7702 66.8127 84.3292C65.4237 77.8882 51.6342 91.9282 51.6342 91.9282L48.4343 101.858Z" fill="#A0616A"></path> <path opacity="0.1" d="M29.2741 57.0276H28.8306C28.8306 57.0276 21.9556 48.8281 20.6249 59.9085C19.2943 70.9889 14.8588 107.776 26.3911 109.105C37.9233 110.435 46.129 103.565 46.129 103.565C46.129 103.565 54.5564 90.712 51.4515 90.712C49.9493 90.712 45.8636 90.0378 42.137 90.2688C38.1616 90.5152 34.5895 91.6343 34.8185 90.4904C35.262 88.2743 41.6935 60.1301 29.2741 57.0276Z" fill="black"></path> <path d="M28.6088 48.385L26.8346 47.4985C26.8346 47.4985 19.7378 48.8282 18.4071 59.9086C17.0765 70.989 12.641 107.776 24.1733 109.106C35.7055 110.435 51.2297 107.333 51.2297 107.333C51.2297 107.333 54.3346 90.4905 51.2297 90.4905C48.1249 90.4905 32.1572 92.7066 32.6007 90.4905C33.0442 88.2744 41.0281 51.4875 28.6088 48.385Z" fill="#575A89"></path> <path d="M82.9435 98.2471L87.8345 90.7563L90.9274 103.123L82.9435 106.668V98.2471Z" fill="#575A89"></path> </svg> 