<?xml version="1.0" encoding="UTF-8"?> <svg xmlns="http://www.w3.org/2000/svg" width="224" height="296" viewBox="0 0 224 296" fill="none"> <path d="M205.768 2.34024e-05H17.2893C15.0222 -0.00371077 12.7766 0.439468 10.6807 1.30425C8.58486 2.16903 6.67976 3.43847 5.07424 5.04007C3.46873 6.64167 2.19425 8.54405 1.32361 10.6386C0.452959 12.7331 0.00319375 14.9787 0 17.2472V278.544C0.00967378 283.124 1.8364 287.512 5.07854 290.743C8.32068 293.975 12.7128 295.787 17.2893 295.779H205.768C208.035 295.783 210.281 295.34 212.376 294.475C214.472 293.61 216.377 292.341 217.983 290.739C219.588 289.138 220.863 287.235 221.734 285.141C222.604 283.046 223.054 280.801 223.057 278.532V17.2472C223.054 14.9787 222.604 12.7331 221.734 10.6386C220.863 8.54405 219.588 6.64167 217.983 5.04007C216.377 3.43847 214.472 2.16903 212.376 1.30425C210.281 0.439468 208.035 -0.00371077 205.768 2.34024e-05Z" fill="url(#paint0_linear)"></path> <path d="M212.271 3.54346H10.7705C6.28965 3.54346 2.65723 7.17811 2.65723 11.6617V285.018C2.65723 289.502 6.28965 293.137 10.7705 293.137H212.271C216.752 293.137 220.384 289.502 220.384 285.018V11.6617C220.384 7.17811 216.752 3.54346 212.271 3.54346Z" fill="#535461"></path> <path d="M209.322 30.9341H13.7195V265.741H209.322V30.9341Z" fill="#F6F7F9"></path> <path d="M110.636 19.4835C112.104 19.4835 113.293 18.2931 113.293 16.8247C113.293 15.3564 112.104 14.166 110.636 14.166C109.169 14.166 107.979 15.3564 107.979 16.8247C107.979 18.2931 109.169 19.4835 110.636 19.4835Z" fill="#F6F7F9"></path> <path d="M110.636 286.938C115.036 286.938 118.603 283.369 118.603 278.966C118.603 274.563 115.036 270.994 110.636 270.994C106.236 270.994 102.669 274.563 102.669 278.966C102.669 283.369 106.236 286.938 110.636 286.938Z" fill="#F6F7F9"></path> <g opacity="0.2"> <path opacity="0.2" d="M209.322 30.9341H13.7195V42.6365H209.322V30.9341Z" fill="#B2CE55"></path> </g> <path d="M19.8369 39.284C21.2147 39.284 22.3317 38.1663 22.3317 36.7876C22.3317 35.4089 21.2147 34.2913 19.8369 34.2913C18.459 34.2913 17.342 35.4089 17.342 36.7876C17.342 38.1663 18.459 39.284 19.8369 39.284Z" fill="#F6F7F9"></path> <path d="M26.1936 39.284C27.5714 39.284 28.6884 38.1663 28.6884 36.7876C28.6884 35.4089 27.5714 34.2913 26.1936 34.2913C24.8157 34.2913 23.6987 35.4089 23.6987 36.7876C23.6987 38.1663 24.8157 39.284 26.1936 39.284Z" fill="#F6F7F9"></path> <path d="M32.5461 39.284C33.9239 39.284 35.0409 38.1663 35.0409 36.7876C35.0409 35.4089 33.9239 34.2913 32.5461 34.2913C31.1682 34.2913 30.0513 35.4089 30.0513 36.7876C30.0513 38.1663 31.1682 39.284 32.5461 39.284Z" fill="#F6F7F9"></path> <path d="M201.707 99.9596H19.561V100.568H201.707V99.9596Z" fill="#DCE0ED"></path> <path d="M201.707 114.097H19.561V114.706H201.707V114.097Z" fill="#DCE0ED"></path> <path d="M201.707 128.239H19.561V128.848H201.707V128.239Z" fill="#DCE0ED"></path> <path d="M201.707 142.377H19.561V142.986H201.707V142.377Z" fill="#DCE0ED"></path> <path d="M201.707 156.515H19.561V157.124H201.707V156.515Z" fill="#DCE0ED"></path> <g opacity="0.2"> <path opacity="0.2" d="M201.707 157.124H19.3379V129.319L36.0633 137.567L53.3729 139.917L68.5609 135.334L86.8846 121.115L96.1013 115.79L102.839 114.491L109.285 114.836L119.885 120.076L134.298 129.262L145.608 130.715L154.573 127.622L173.583 112.047L183.286 108.585L193.44 110.156L201.707 114.933V157.124Z" fill="#B2CE55"></path> </g> <path d="M51.1255 139.909C34.7002 139.909 19.5244 129.859 19.3337 129.729L19.7881 129.055C20.0234 129.213 43.3814 144.675 63.2304 136.93C70.4674 134.088 75.6193 129.713 80.6049 125.463C85.8095 121.026 90.7221 116.837 97.4236 115.019C105.107 112.936 113.504 114.82 119.885 120.068C125.341 124.554 136.205 131.754 147.681 129.603C153.531 128.503 158.46 124.229 163.68 119.703C173.688 111.025 184.041 102.05 201.946 114.925L201.472 115.583C184.085 103.081 173.984 111.845 164.212 120.316C158.906 124.915 153.896 129.246 147.831 130.399C136.026 132.615 124.936 125.268 119.37 120.693C113.192 115.615 105.07 113.793 97.6346 115.802C91.1115 117.572 86.276 121.704 81.1282 126.08C76.0939 130.374 70.8893 134.811 63.5265 137.685C59.5677 139.194 55.3616 139.948 51.1255 139.909Z" fill="#F7A35C"></path> <path d="M107.208 118.968C109.702 118.968 111.723 116.946 111.723 114.45C111.723 111.955 109.702 109.933 107.208 109.933C104.715 109.933 102.693 111.955 102.693 114.45C102.693 116.946 104.715 118.968 107.208 118.968Z" fill="#F7A35C"></path> <g opacity="0.2"> <path opacity="0.2" d="M166.102 54.668H109.147C108.902 54.668 108.667 54.7655 108.493 54.939C108.32 55.1126 108.222 55.348 108.222 55.5934V94.1347C108.223 94.32 108.278 94.501 108.383 94.6542C108.487 94.8074 108.635 94.9257 108.807 94.9939C108.979 95.0622 109.168 95.0771 109.349 95.0368C109.529 94.9965 109.694 94.9028 109.821 94.7679L119.69 84.2345C119.777 84.1422 119.881 84.0686 119.997 84.0183C120.113 83.9681 120.238 83.9422 120.364 83.9422H166.102C166.348 83.9422 166.583 83.8447 166.756 83.6712C166.93 83.4976 167.027 83.2622 167.027 83.0168V55.5853C167.025 55.3413 166.927 55.108 166.753 54.9362C166.58 54.7643 166.346 54.668 166.102 54.668Z" fill="#B2CE55"></path> </g> <path d="M153.839 61.8037H121.406V65.8628H153.839V61.8037Z" fill="#F6F7F9"></path> <path d="M130.311 70.7987H121.406V74.8578H130.311V70.7987Z" fill="#F6F7F9"></path> <g opacity="0.2"> <path opacity="0.2" d="M43.8479 186.171H34.9436V190.23H43.8479V186.171Z" fill="#B2CE55"></path> </g> <g opacity="0.2"> <path opacity="0.2" d="M43.8479 194.017H34.9436V198.076H43.8479V194.017Z" fill="#B2CE55"></path> </g> <g opacity="0.2"> <path opacity="0.2" d="M43.8479 201.864H34.9436V205.923H43.8479V201.864Z" fill="#B2CE55"></path> </g> <g opacity="0.2"> <path opacity="0.2" d="M43.8479 209.714H34.9436V213.773H43.8479V209.714Z" fill="#B2CE55"></path> </g> <g opacity="0.2"> <path opacity="0.2" d="M43.8479 217.56H34.9436V221.619H43.8479V217.56Z" fill="#B2CE55"></path> </g> <g opacity="0.2"> <path opacity="0.2" d="M43.8479 225.406H34.9436V229.465H43.8479V225.406Z" fill="#B2CE55"></path> </g> <g opacity="0.2"> <path opacity="0.2" d="M43.8479 233.257H34.9436V237.316H43.8479V233.257Z" fill="#B2CE55"></path> </g> <g opacity="0.2"> <path opacity="0.2" d="M43.8479 241.103H34.9436V245.162H43.8479V241.103Z" fill="#B2CE55"></path> </g> <g opacity="0.2"> <path opacity="0.2" d="M60.6138 245.162H51.7095V249.221H60.6138V245.162Z" fill="#B2CE55"></path> </g> <g opacity="0.2"> <path opacity="0.2" d="M76.301 245.162H67.3967V249.221H76.301V245.162Z" fill="#B2CE55"></path> </g> <g opacity="0.2"> <path opacity="0.2" d="M91.9878 245.162H83.0835V249.221H91.9878V245.162Z" fill="#B2CE55"></path> </g> <g opacity="0.2"> <path opacity="0.2" d="M107.671 245.162H98.7664V249.221H107.671V245.162Z" fill="#B2CE55"></path> </g> <g opacity="0.2"> <path opacity="0.2" d="M123.358 245.162H114.453V249.221H123.358V245.162Z" fill="#B2CE55"></path> </g> <g opacity="0.2"> <path opacity="0.2" d="M139.045 245.162H130.14V249.221H139.045V245.162Z" fill="#B2CE55"></path> </g> <g opacity="0.2"> <path opacity="0.2" d="M154.727 245.162H145.823V249.221H154.727V245.162Z" fill="#B2CE55"></path> </g> <g opacity="0.2"> <path opacity="0.2" d="M170.415 245.162H161.51V249.221H170.415V245.162Z" fill="#B2CE55"></path> </g> <g opacity="0.2"> <path opacity="0.2" d="M186.101 245.162H177.197V249.221H186.101V245.162Z" fill="#B2CE55"></path> </g> <path d="M153.839 70.7987H140.319V74.8578H153.839V70.7987Z" fill="#F6F7F9"></path> <path d="M60.6138 215.664H51.7095V241.103H60.6138V215.664Z" fill="#2B9E29"></path> <path d="M76.301 203.893H67.3967V241.103H76.301V203.893Z" fill="#2B9E29"></path> <path d="M91.9878 194.017H83.0835V241.103H91.9878V194.017Z" fill="#2B9E29"></path> <path d="M107.671 199.136H98.7664V241.099H107.671V199.136Z" fill="#2B9E29"></path> <path d="M123.358 190.23H114.453V241.103H123.358V190.23Z" fill="#2B9E29"></path> <g opacity="0.2"> <path opacity="0.2" d="M139.045 209.714H130.14V241.103H139.045V209.714Z" fill="#B2CE55"></path> </g> <g opacity="0.2"> <path opacity="0.2" d="M154.727 209.714H145.823V241.103H154.727V209.714Z" fill="#B2CE55"></path> </g> <g opacity="0.2"> <path opacity="0.2" d="M170.415 209.714H161.51V241.103H170.415V209.714Z" fill="#B2CE55"></path> </g> <g opacity="0.2"> <path opacity="0.2" d="M186.101 209.714H177.197V241.103H186.101V209.714Z" fill="#B2CE55"></path> </g> <defs> <linearGradient id="paint0_linear" x1="111.52" y1="295.791" x2="111.52" y2="3.52611e-05" gradientUnits="userSpaceOnUse"> <stop stop-color="#808080" stop-opacity="0.25"></stop> <stop offset="0.54" stop-color="#808080" stop-opacity="0.12"></stop> <stop offset="1" stop-color="#808080" stop-opacity="0.1"></stop> </linearGradient> </defs> </svg> 