<?xml version="1.0" encoding="UTF-8"?> <svg xmlns="http://www.w3.org/2000/svg" width="36" height="36" viewBox="0 0 36 36" fill="none"> <path d="M18 0C8.07475 0 0 8.07475 0 18C0 22.5684 1.71786 26.931 4.83798 30.2855C8.21884 33.8974 12.983 35.9755 17.9196 35.9979C17.9464 35.998 17.973 36 17.9999 36C17.9999 36 17.9999 36 17.9999 36C18 36 18 36 18 36C22.9653 36 27.7625 33.917 31.1631 30.2842C34.2821 26.9305 36 22.5679 36 18C36 8.07475 27.9252 0 18 0ZM18 1.09091C27.3236 1.09091 34.9091 8.6764 34.9091 18C34.9091 21.992 33.5109 25.8161 30.9578 28.8658C29.4235 25.0683 26.3349 22.2061 22.573 20.9088C21.2686 21.7983 19.6944 22.32 18 22.32C16.3055 22.32 14.7313 21.7983 13.4269 20.9087C9.66501 22.206 6.57638 25.0682 5.04206 28.8656C2.48877 25.8155 1.09091 21.992 1.09091 18C1.09091 8.6764 8.6764 1.09091 18 1.09091Z" fill="#308F16"></path> <path d="M17.9999 21.2291C21.892 21.2291 25.0472 18.0739 25.0472 14.1818C25.0472 10.2897 21.892 7.13452 17.9999 7.13452C14.1078 7.13452 10.9526 10.2897 10.9526 14.1818C10.9526 18.0739 14.1078 21.2291 17.9999 21.2291Z" fill="#308F16"></path> </svg> 