<?xml version="1.0" encoding="UTF-8"?> <svg xmlns="http://www.w3.org/2000/svg" width="198" height="33" viewBox="0 0 198 33" fill="none"> <path d="M78.7407 30.7854V0.62793H90.9937C92.2995 0.62793 93.5046 0.942078 94.71 1.46564C95.8148 2.09392 96.8191 2.82692 97.6226 3.76933C98.426 4.71176 99.0287 5.75889 99.5309 7.01546C100.033 8.27202 100.234 9.42387 100.234 10.6804C100.234 11.937 100.033 13.1936 99.6312 14.3454C99.2296 15.4973 98.6269 16.649 97.8234 17.5916C97.02 18.5339 96.1161 19.267 95.0112 19.7905C93.9064 20.314 92.7012 20.6282 91.3955 20.6282H84.5659V30.6807H78.7407V30.7854ZM84.365 15.4973H90.8934C91.8977 15.4973 92.8016 15.0784 93.5046 14.1359C94.2078 13.2983 94.5091 12.0417 94.5091 10.5757C94.5091 9.84271 94.4086 9.10972 94.2078 8.48144C94.0069 7.85316 93.7055 7.32959 93.3039 6.91073C92.9021 6.49188 92.5003 6.17775 92.0986 5.96832C91.5964 5.75889 91.0943 5.65417 90.6925 5.65417H84.4655V15.4973H84.365Z" fill="white"></path> <path d="M111.785 31.2052C110.077 31.2052 108.47 30.891 107.064 30.2628C105.658 29.6344 104.553 28.7967 103.549 27.7497C102.545 26.7024 101.841 25.4459 101.339 24.0847C100.837 22.7234 100.536 21.2573 100.536 19.6866C100.536 18.116 100.837 16.65 101.339 15.2887C101.841 13.9275 102.545 12.6709 103.549 11.6237C104.553 10.5766 105.658 9.73892 107.064 9.11064C108.47 8.48236 109.977 8.16821 111.785 8.16821C113.492 8.16821 115.099 8.48236 116.405 9.11064C117.811 9.73892 118.916 10.5766 119.92 11.6237C120.924 12.6709 121.627 13.9275 122.129 15.2887C122.632 16.65 122.933 18.116 122.933 19.6866C122.933 21.2573 122.632 22.6187 122.129 24.0847C121.627 25.4459 120.924 26.7024 119.92 27.7497C119.016 28.7967 117.811 29.6344 116.405 30.2628C115.099 30.891 113.492 31.2052 111.785 31.2052ZM106.261 19.6866C106.261 20.6291 106.361 21.5715 106.662 22.4092C106.964 23.2469 107.365 23.8751 107.868 24.5035C108.37 25.1317 108.973 25.5507 109.676 25.8647C110.379 26.1789 111.082 26.3884 111.885 26.3884C112.689 26.3884 113.392 26.1789 114.095 25.8647C114.798 25.5507 115.4 25.1317 115.903 24.5035C116.405 23.8751 116.806 23.2469 117.108 22.4092C117.409 21.5715 117.509 20.7338 117.509 19.6866C117.509 18.7442 117.409 17.8018 117.108 16.9641C116.806 16.1264 116.405 15.3934 115.903 14.8699C115.4 14.2417 114.798 13.8227 114.095 13.5086C113.392 13.1945 112.689 12.985 111.885 12.985C111.082 12.985 110.379 13.1945 109.676 13.5086C108.973 13.8227 108.37 14.3463 107.868 14.8699C107.365 15.4982 106.964 16.1264 106.662 16.9641C106.361 17.8018 106.261 18.7442 106.261 19.6866Z" fill="white"></path> <path d="M168.935 31.2039C167.226 31.2039 165.719 30.8897 164.314 30.2615C162.908 29.6332 161.703 28.7954 160.798 27.7484C159.895 26.7012 159.091 25.4446 158.589 24.0834C158.087 22.7221 157.785 21.2561 157.785 19.6855C157.785 18.1148 158.087 16.6487 158.589 15.1828C159.091 13.8215 159.895 12.5649 160.798 11.5178C161.703 10.4707 163.008 9.63296 164.314 9.00468C165.619 8.3764 167.226 8.06226 169.033 8.06226C170.841 8.06226 172.349 8.3764 173.654 9.00468C175.06 9.63296 176.166 10.4707 177.17 11.5178C178.173 12.5649 178.877 13.8215 179.38 15.1828C179.881 16.544 180.082 18.0101 180.082 19.476C180.082 19.8948 180.082 20.209 180.082 20.5232C180.082 20.8372 180.082 21.1514 179.981 21.3609H163.511C163.612 22.1986 163.811 23.0363 164.113 23.6645C164.414 24.2929 164.816 24.9211 165.419 25.4446C166.021 25.9683 166.524 26.2823 167.127 26.5965C167.728 26.9107 168.432 27.0154 169.134 27.0154C170.24 27.0154 171.243 26.7012 172.249 26.1776C173.252 25.6541 173.856 24.9211 174.258 23.9787L178.977 25.3399C178.173 27.0154 176.969 28.3766 175.261 29.5285C173.453 30.6804 171.344 31.2039 168.935 31.2039ZM174.457 17.8006C174.358 16.1252 173.755 14.7639 172.649 13.8215C171.545 12.8791 170.34 12.3555 168.834 12.3555C168.13 12.3555 167.427 12.4602 166.825 12.7744C166.222 13.0885 165.619 13.4026 165.118 13.9262C164.615 14.4497 164.213 14.9733 163.912 15.7063C163.612 16.3347 163.41 17.1724 163.41 17.9053H174.457V17.8006Z" fill="white"></path> <path d="M197.356 13.4039C195.749 13.4039 194.243 13.718 192.936 14.451C191.631 15.0794 190.728 16.0218 190.124 17.2783V30.6816H184.701V8.48234H189.722V13.1945C190.124 12.4615 190.527 11.7285 191.028 11.1002C191.53 10.4719 192.133 9.94833 192.735 9.52948C193.338 9.11063 193.941 8.69177 194.543 8.48234C195.146 8.27292 195.749 8.16821 196.351 8.16821C196.652 8.16821 196.853 8.16821 197.054 8.16821C197.155 8.16821 197.356 8.16821 197.456 8.16821V13.4039H197.356Z" fill="white"></path> <path d="M144.527 29.948L140.409 16.0212L136.291 29.948H130.768L124.741 9.42419H130.064L133.68 23.2464L137.999 9.42419H142.619L146.938 23.2464L150.553 9.42419H155.876L149.85 29.948H144.527Z" fill="white"></path> <path d="M24.3055 26.8067C21.3928 30.2622 17.978 31.9376 14.1614 31.9376C12.1527 31.9376 10.2444 31.5188 8.53703 30.5764C6.82963 29.6338 5.32309 28.4821 4.01744 26.9114C2.81221 25.4453 1.80785 23.6652 1.10479 21.7805C0.401744 19.8955 0 17.9059 0 15.9165C0 13.8222 0.301307 11.8326 1.00436 9.94777C1.70741 8.06292 2.61133 6.38751 3.91699 4.81682C5.12222 3.35083 6.62877 2.19897 8.33618 1.25656C10.0436 0.418854 11.8514 0 13.8601 0C15.3667 0 16.6723 0.209427 17.8776 0.523559C19.0828 0.837707 20.1876 1.36127 21.0916 1.98955C21.9955 2.61783 22.8994 3.35083 23.5019 4.18854C24.205 5.02624 24.8076 5.96866 25.3098 6.91108L23.5019 8.06292C22.4976 5.96866 21.0916 4.50267 19.4846 3.56026C17.7771 2.61783 15.8689 2.19897 13.7597 2.19897C11.9518 2.19897 10.3449 2.61783 8.93878 3.35083C7.53268 4.18854 6.22702 5.23567 5.22267 6.49223C4.21829 7.74879 3.41481 9.21478 2.91264 10.8902C2.41046 12.5656 2.10916 14.2411 2.10916 16.0212C2.10916 17.9059 2.41046 19.6862 3.01307 21.2568C3.61569 22.9322 4.51961 24.3982 5.6244 25.6548C6.7292 26.9114 8.03486 27.9584 9.44096 28.6915C10.9475 29.4245 12.454 29.8433 14.1614 29.8433C15.9693 29.8433 17.7771 29.4245 19.3841 28.4821C20.991 27.6444 22.598 26.1783 24.205 24.2936V18.2201H17.4758V16.44H26.2137V31.7281H24.3055V26.8067Z" fill="white"></path> <path d="M74.8252 2.61749H63.8777V31.5184H61.7686V2.61749H50.9215V0.62793H74.8252V2.61749Z" fill="white"></path> <path d="M52.7282 31.7278L48.9117 27.5392C47.8069 28.9006 46.4008 30.0523 44.8942 30.89C43.3876 31.7278 41.6803 32.1466 39.7719 32.1466C38.5668 32.1466 37.3616 31.9373 36.2568 31.6231C35.1519 31.2042 34.1476 30.6807 33.2437 29.9477C32.3398 29.2146 31.6368 28.3769 31.1345 27.3299C30.6323 26.2827 30.3311 25.1309 30.3311 23.8744C30.3311 22.8272 30.5319 21.8848 30.8332 20.9424C31.1345 19.9999 31.6368 19.267 32.2393 18.4293C32.8419 17.6962 33.545 16.9632 34.3485 16.335C35.1519 15.7066 35.9555 14.9736 36.8594 14.4501C36.0559 13.6124 35.4532 12.7747 34.8507 12.0417C34.3485 11.3087 33.8462 10.6804 33.545 10.0521C33.2437 9.42385 32.9423 8.9003 32.8419 8.37674C32.6411 7.85316 32.6411 7.3296 32.6411 6.80603C32.6411 5.86362 32.8419 5.02591 33.2437 4.1882C33.6453 3.35049 34.1476 2.72221 34.7502 2.09393C35.3528 1.46565 36.1564 1.04678 37.0602 0.627929C37.9641 0.313797 38.9685 0.10437 39.9728 0.10437C40.9773 0.10437 41.7807 0.209091 42.5842 0.523224C43.3876 0.837372 44.0907 1.25623 44.6933 1.77978C45.296 2.30336 45.7982 2.93164 46.0994 3.66463C46.4008 4.39763 46.6016 5.23532 46.6016 6.07303C46.6016 6.91073 46.4008 7.74846 46.0994 8.58616C45.6976 9.31915 45.1955 10.0521 44.593 10.7851C43.9903 11.5181 43.1867 12.1464 42.3833 12.7747C41.5798 13.403 40.6759 14.0312 39.7719 14.6596L48.8112 24.3979C49.4139 23.246 49.916 21.9894 50.2173 20.6282C50.5187 19.267 50.7196 17.8009 50.7196 16.335H52.5274C52.4269 19.8952 51.6235 23.0367 50.0164 25.7591L55.4399 31.6231H52.7282V31.7278ZM39.9728 30.3665C41.5798 30.3665 42.986 29.9477 44.2916 29.2146C45.5973 28.4818 46.7021 27.4345 47.7064 26.178L38.165 15.7066C37.3616 16.335 36.558 16.8585 35.9555 17.4867C35.2525 18.1151 34.6498 18.7433 34.1476 19.3717C33.6453 19.9999 33.2437 20.7329 32.9423 21.4659C32.6411 22.199 32.5407 23.0367 32.5407 23.8744C32.5407 24.9214 32.7416 25.8638 33.2437 26.5968C33.6453 27.4345 34.248 28.0629 34.951 28.5864C35.6541 29.11 36.4576 29.5288 37.3616 29.843C38.165 30.1572 39.0689 30.3665 39.9728 30.3665ZM34.6498 6.70131C34.6498 7.12016 34.6498 7.43431 34.7502 7.85316C34.8507 8.27202 35.0516 8.69087 35.3528 9.21443C35.6541 9.738 36.0559 10.2616 36.558 10.9946C37.0602 11.6228 37.7634 12.4606 38.5668 13.2983C40.3746 12.0417 41.8812 10.8898 43.0864 9.84271C44.1912 8.79558 44.7937 7.53901 44.7937 6.17775C44.7937 4.92119 44.3921 3.97877 43.4882 3.14107C42.5842 2.30336 41.4794 1.88449 40.0734 1.88449C39.2698 1.88449 38.5668 1.98921 37.9641 2.30336C37.3616 2.61749 36.7589 2.93164 36.2568 3.35049C35.7546 3.76935 35.4532 4.29291 35.1519 4.92119C34.7502 5.44476 34.6498 6.07303 34.6498 6.70131Z" fill="white"></path> </svg> 