<?xml version="1.0" encoding="UTF-8"?> <svg xmlns="http://www.w3.org/2000/svg" width="40" height="40" viewBox="0 0 40 40" fill="none"> <rect width="40" height="40" fill="#FAFAFC"></rect> <path d="M17.0904 17.9592C17.0904 18.7609 16.4334 19.4169 15.6304 19.4169C14.8274 19.4169 14.1704 18.7609 14.1704 17.9592C14.1704 17.1574 14.8274 16.5015 15.6304 16.5015C16.4471 16.5015 17.0904 17.1574 17.0904 17.9592Z" fill="#2B2B2B"></path> <path d="M17.0887 22.1579C17.0887 22.9596 16.4317 23.6156 15.6287 23.6156C14.8257 23.6156 14.1687 22.9596 14.1687 22.1579C14.1687 21.3562 14.8257 20.7002 15.6287 20.7002C16.4454 20.6956 17.0887 21.3562 17.0887 22.1579Z" fill="#2B2B2B"></path> <path d="M21.6405 17.9592C21.6405 18.7609 20.9846 19.4169 20.1828 19.4169C19.3811 19.4169 18.7251 18.7609 18.7251 17.9592C18.7251 17.1574 19.3811 16.5015 20.1828 16.5015C20.9982 16.5015 21.6405 17.1574 21.6405 17.9592Z" fill="#2B2B2B"></path> <path d="M21.6451 22.1579C21.6451 22.9596 20.9881 23.6156 20.1851 23.6156C19.3821 23.6156 18.7251 22.9596 18.7251 22.1579C18.7251 21.3561 19.3821 20.7002 20.1851 20.7002C21.0017 20.6956 21.6451 21.3561 21.6451 22.1579Z" fill="#2B2B2B"></path> <path d="M24.7381 23.6157C23.9351 23.6157 23.2781 22.9597 23.2781 22.1579C23.2781 21.3562 23.9351 20.7002 24.7381 20.7002C25.5411 20.7002 26.1981 21.3562 26.1981 22.1579C26.1844 22.9779 25.5411 23.6157 24.7381 23.6157Z" fill="#2B2B2B"></path> </svg> 