<?xml version="1.0" encoding="UTF-8"?> <svg xmlns="http://www.w3.org/2000/svg" width="60" height="60" viewBox="0 0 60 60" fill="none"> <rect y="28.8408" width="60" height="2.31884" fill="#FF8925"></rect> <rect x="31.1594" width="60" height="2.31884" transform="rotate(90 31.1594 0)" fill="#FF8925"></rect> <rect x="28.5967" y="20.3521" width="40.0123" height="2.28327" transform="rotate(75 28.5967 20.3521)" fill="#FF8925"></rect> <rect x="16.0041" y="3.43994" width="60" height="2.31884" transform="rotate(60 16.0041 3.43994)" fill="#FF8925"></rect> <rect x="9.60663" y="7.9668" width="60" height="2.31884" transform="rotate(45 9.60663 7.9668)" fill="#FF8925"></rect> <rect x="4.59894" y="13.9956" width="60" height="2.31884" transform="rotate(30 4.59894 13.9956)" fill="#FF8925"></rect> <rect x="1.32233" y="21.1152" width="60" height="2.31884" transform="rotate(15 1.32233 21.1152)" fill="#FF8925"></rect> <rect x="0.722168" y="36.6445" width="60" height="2.31884" transform="rotate(-15 0.722168 36.6445)" fill="#FF8925"></rect> <rect x="50.1235" y="17.043" width="6.09406" height="2.31884" transform="rotate(-30 50.1235 17.043)" fill="#FF8925"></rect> <rect x="3.43951" y="43.9956" width="39.7101" height="2.31884" transform="rotate(-30 3.43951 43.9956)" fill="#FF8925"></rect> <rect x="7.96692" y="50.3936" width="60" height="2.31884" transform="rotate(-45 7.96692 50.3936)" fill="#FF8925"></rect> <rect x="38.1556" y="13.5552" width="11.6807" height="2.31884" transform="rotate(-60 38.1556 13.5552)" fill="#FF8925"></rect> <rect x="13.9959" y="55.4009" width="39.7101" height="2.31884" transform="rotate(-60 13.9959 55.4009)" fill="#FF8925"></rect> <rect x="21.1155" y="58.6777" width="60" height="2.31884" transform="rotate(-75 21.1155 58.6777)" fill="#FF8925"></rect> </svg> 