<?xml version="1.0" encoding="UTF-8"?> <!-- Generator: Adobe Illustrator 23.0.3, SVG Export Plug-In . SVG Version: 6.00 Build 0) --> <svg xmlns="http://www.w3.org/2000/svg" xmlns:xlink="http://www.w3.org/1999/xlink" id="Слой_1" x="0px" y="0px" viewBox="0 0 164 80" style="enable-background:new 0 0 164 80;" xml:space="preserve"> <style type="text/css"> .st0{clip-path:url(#SVGID_2_);fill:#FF7700;} </style> <g> <defs> <rect id="SVGID_1_" width="164" height="80"></rect> </defs> <clipPath id="SVGID_2_"> <use xlink:href="#SVGID_1_" style="overflow:visible;"></use> </clipPath> <path class="st0" d="M150.8,77.2c-0.8,0.7,2.4,2.9,3.2,2.4c7.9-5.4,9.5-17,9.8-22.7c0.3-6.1-1-25.6-0.9-27.4c0.1-2.1,0.5-5-1.1-5.6 c-0.2,0-1.8-0.6-2.5,0.5c-0.2,0.3-5.9,18.6-6.2,18.9c-0.4,0.4-1-16.3-1.2-17.1c-0.2-0.8-0.9-2.1-1.7-2.2c-1.3-0.1-2.4,0.9-4.1,5.5 c-2.4,6.2-4.9,14.6-5.5,14.7c-1.7,0.2-4.9-6.5-5.6-8.8c4-6.4,8.9-8.9,8.9-8.9c0-1-1.4-2.7-2.8-2.4c-2.3,0.5-5.8,4.8-9.8,11.9 c0.5-4.6,0.9-12.5,0.7-17.3c-0.1-1.6,0.1-4.1-1.9-3.9c-1.8,0.2-2.4,3.1-2.2,5.2c-2.6,4.6-9.5,17.1-9.9,17.4 c-0.7-0.4-2.8-2.4-2.9-4.1c-0.1-1.2,0.5-3.6,2-4.8c2.3-1.9,4.6-2.2,4.6-2.2c0.5-0.5-1.4-2.9-3.4-2.9c-3.5,0.1-7.1,5.8-7.5,8.4 c-0.9,1-6,11.5-6.5,12.2c-1.9-1.1,1.9-16-1.2-17c-2.1-0.7-6.1,6-7.2,7.6c0.2-1.1,1.8-8.3,1.6-9.6c-0.2-0.9-2.1-1.3-3.3-1 c-0.8,0.2-1,5.1-2.6,8.6c-0.6,1.3-7.6,14.4-12.4,12.9c-1.3-0.4-3.2-1.2-2.7-5.5c0,0,3.7-0.9,7.4-3.6c2.9-2.1,5.5-7,3.7-10 c-0.6-0.9-3-3.2-6.6-2.4c-6.6,1.6-8.1,11.4-8.3,12.8c-0.7,0.3-3.1,0.2-3.1,0.2c-0.1,0.6-0.3,2.6,0.5,3.2c0.7,0.5,2.3,0.3,2.3,0.3 c0,3.3,1.2,9.5,7.5,8.7c5.4-0.7,10.6-9.2,12.1-12.1c0,0.5-1,9-0.7,10.1c0.4,1.4,1.7,1.5,3.2,1c0.5-0.3,0.2-9.5,6.7-16.4 c0,0-1.7,8.5-0.4,14.4c0.2,1.1,1.3,3.3,2.5,3.4c3.1,0.3,7.4-13,7.8-14.1c0.6,3.1,3.5,5,4.7,6c-0.9,1.8-4.4,7.4-0.7,9.4 c2.2,1.2,4.4,0.4,5.5-0.8c5-5.6,0.6-9.5-0.6-11.3c0,0,7.4-12.6,7.9-13c-0.3,7.9,0.2,14.4-0.4,22.1c0.2,0.9,0.8,1.5,3,1 c0,0,1.8-8,2.6-8.8c0.2,0.4,3.7,10.8,8.2,9.2c1.7-0.6,2.4-5.3,3.9-9.3c1.4-3.7,3.3-8.7,3.4-8.7c0.4,1.5-0.6,16.6,2.8,17.7 c1.8,0.5,3.4-1.4,4-2.8c1.9-4.5,3.3-12.4,3.9-12.6c0.1,1.5,1.2,17.8-0.2,28.4C157.3,73.5,150.8,77.2,150.8,77.2 M83.9,27.7 c1.3,1.3,0.2,3.7-1.9,5.6c-2.2,2-5.2,2.8-5.2,2.7C77.8,27.5,82.6,26.3,83.9,27.7 M119.2,46.1c-0.4,2-2.2,2.9-2.9,1.9 c-0.5-0.7,1.1-3.8,1.5-4.8C118.5,43.5,119.5,44.8,119.2,46.1"></path> <path class="st0" d="M75.2,26.5c-0.4-1.6-0.5-2.5-1.8-2.7c-6.2,0.5-11.8,1-18.2,0c-0.2,0.7,0.2,2.7,1.1,3.3c3.7,0.9,8,0.8,11.4,0.5 c-2.5,3.2-5.2,7.2-6.7,11.5c-2.2,6-3.5,15.5-0.3,20.9c0.7,1.1,2.2,1.5,4,0.1c0,0,0.2-0.1,0.4-0.4c0.1-0.2,0-0.3,0-0.4 c-0.8-3.1-4.3-9.9,1.6-22.4C69,31.9,75.2,26.5,75.2,26.5"></path> <path class="st0" d="M11,13.1c2.7-1.9,13.3-5.8,24.6-5.4c8.8,0.3,13,3.7,14,5.6c0,0,0.3-0.1,0.5-0.4c0.5-3.2,0-4.2-2.3-6.6 c-7-5.9-20.3-5.1-32.7-0.8C0.8,10.7,0.7,18.2,0.8,19.6c0.2,4.6,1.5,8.4,11.2,12.3c9.3,3.7,15.8,5.6,17.5,8.6 C21.8,44.6,13.2,51,15.2,57.7c1.2,3.9,11.1,3.2,18.8-4.9c4.4-4.6,0.8-11.6,0.7-11.8c0.5-0.4,1.6-0.7,2.2-0.9 c-0.2,1.5,0.5,9.3,7.1,9.3c8,0,15.3-11.1,15.3-17.8c0-1.2-1.8-2.1-3-2.1c0,6.4-7.6,18.6-13.2,15.6c-2-1-2.4-5.2-1.8-6.3 c11.8-4.5,13.6-7.9,12.8-12c-0.6-2.9-4.5-3.7-7-2.8c-5.7,1.7-8.1,7.1-10,12.8c-1.5,0.7-2.6,1-4,1.7c-8.8-10.5-26.1-9.4-26.1-18 C6.5,15.9,9.5,14.1,11,13.1 M48.3,27c1.9-0.6,2.7,0.9,2.5,1.9c-0.3,2.2-2.7,3.6-8.9,6.2C42.9,31.6,45.1,27.9,48.3,27 M32.2,46.8 c-0.7,4.2-4.7,6.6-8.8,8.5c-1.1,0.5-4.3,1.5-4.6,0c-0.7-3.5,9.9-10.9,12.6-12.7c0,0,0.1-0.1,0.1-0.1c0,0,0,0,0.1,0 C32,43.4,32.4,45.8,32.2,46.8"></path> </g> </svg> 