<?xml version="1.0" encoding="UTF-8"?> <svg xmlns="http://www.w3.org/2000/svg" width="164" height="80" viewBox="0 0 164 80" fill="none"> <path d="M150.8 77.2C150 77.9 153.2 80.1 154 79.6C161.9 74.2 163.5 62.6 163.8 56.9C164.1 50.8 162.8 31.3 162.9 29.5C163 27.4 163.4 24.5 161.8 23.9C161.6 23.9 160 23.3 159.3 24.4C159.1 24.7 153.4 43 153.1 43.3C152.7 43.7 152.1 27 151.9 26.2C151.7 25.4 151 24.1 150.2 24C148.9 23.9 147.8 24.9 146.1 29.5C143.7 35.7 141.2 44.1 140.6 44.2C138.9 44.4 135.7 37.7 135 35.4C139 29 143.9 26.5 143.9 26.5C143.9 25.5 142.5 23.8 141.1 24.1C138.8 24.6 135.3 28.9 131.3 36C131.8 31.4 132.2 23.5 132 18.7C131.9 17.1 132.1 14.6 130.1 14.8C128.3 15 127.7 17.9 127.9 20C125.3 24.6 118.4 37.1 118 37.4C117.3 37 115.2 35 115.1 33.3C115 32.1 115.6 29.7 117.1 28.5C119.4 26.6 121.7 26.3 121.7 26.3C122.2 25.8 120.3 23.4 118.3 23.4C114.8 23.5 111.2 29.2 110.8 31.8C109.9 32.8 104.8 43.3 104.3 44C102.4 42.9 106.2 28 103.1 27C101 26.3 97 33 95.9 34.6C96.1 33.5 97.7 26.3 97.5 25C97.3 24.1 95.4 23.7 94.2 24C93.4 24.2 93.2 29.1 91.6 32.6C91 33.9 84 47 79.2 45.5C77.9 45.1 76 44.3 76.5 40C76.5 40 80.2 39.1 83.9 36.4C86.8 34.3 89.4 29.4 87.6 26.4C87 25.5 84.6 23.2 81 24C74.4 25.6 72.9 35.4 72.7 36.8C72 37.1 69.6 37 69.6 37C69.5 37.6 69.3 39.6 70.1 40.2C70.8 40.7 72.4 40.5 72.4 40.5C72.4 43.8 73.6 50 79.9 49.2C85.3 48.5 90.5 40 92 37.1C92 37.6 91 46.1 91.3 47.2C91.7 48.6 93 48.7 94.5 48.2C95 47.9 94.7 38.7 101.2 31.8C101.2 31.8 99.5 40.3 100.8 46.2C101 47.3 102.1 49.5 103.3 49.6C106.4 49.9 110.7 36.6 111.1 35.5C111.7 38.6 114.6 40.5 115.8 41.5C114.9 43.3 111.4 48.9 115.1 50.9C117.3 52.1 119.5 51.3 120.6 50.1C125.6 44.5 121.2 40.6 120 38.8C120 38.8 127.4 26.2 127.9 25.8C127.6 33.7 128.1 40.2 127.5 47.9C127.7 48.8 128.3 49.4 130.5 48.9C130.5 48.9 132.3 40.9 133.1 40.1C133.3 40.5 136.8 50.9 141.3 49.3C143 48.7 143.7 44 145.2 40C146.6 36.3 148.5 31.3 148.6 31.3C149 32.8 148 47.9 151.4 49C153.2 49.5 154.8 47.6 155.4 46.2C157.3 41.7 158.7 33.8 159.3 33.6C159.4 35.1 160.5 51.4 159.1 62C157.3 73.5 150.8 77.2 150.8 77.2ZM83.9 27.7C85.2 29 84.1 31.4 82 33.3C79.8 35.3 76.8 36.1 76.8 36C77.8 27.5 82.6 26.3 83.9 27.7ZM119.2 46.1C118.8 48.1 117 49 116.3 48C115.8 47.3 117.4 44.2 117.8 43.2C118.5 43.5 119.5 44.8 119.2 46.1Z" fill="white"></path> <path d="M75.2 26.4999C74.8 24.8999 74.7 23.9999 73.4 23.7999C67.2 24.2999 61.6 24.7999 55.2 23.7999C55 24.4999 55.4 26.4999 56.3 27.0999C60 27.9999 64.3 27.8999 67.7 27.5999C65.2 30.7999 62.5 34.7999 61 39.0999C58.8 45.0999 57.5 54.5999 60.7 59.9999C61.4 61.0999 62.9 61.4999 64.7 60.0999C64.7 60.0999 64.9 59.9999 65.1 59.6999C65.2 59.4999 65.1 59.3999 65.1 59.2999C64.3 56.1999 60.8 49.3999 66.7 36.8999C69 31.8999 75.2 26.4999 75.2 26.4999Z" fill="white"></path> <path d="M11 13.1C13.7 11.2 24.3 7.29995 35.6 7.69995C44.4 7.99995 48.6 11.4 49.6 13.3C49.6 13.3 49.9 13.2 50.1 12.9C50.6 9.69995 50.1 8.69995 47.8 6.29995C40.8 0.399951 27.5 1.19995 15.1 5.49995C0.800009 10.7 0.700008 18.2 0.800008 19.6C1.00001 24.2 2.30001 27.9999 12 31.9C21.3 35.6 27.8 37.5 29.5 40.5C21.8 44.6 13.2 51 15.2 57.7C16.4 61.6 26.3 60.9 34 52.7999C38.4 48.1999 34.8 41.2 34.7 41C35.2 40.6 36.3 40.2999 36.9 40.0999C36.7 41.5999 37.4 49.4 44 49.4C52 49.4 59.3 38.3 59.3 31.6C59.3 30.4 57.5 29.5 56.3 29.5C56.3 35.9 48.7 48.0999 43.1 45.0999C41.1 44.0999 40.7 39.8999 41.3 38.7999C53.1 34.2999 54.9 30.8999 54.1 26.7999C53.5 23.8999 49.6 23.1 47.1 24C41.4 25.7 39 31.0999 37.1 36.7999C35.6 37.4999 34.5 37.8 33.1 38.5C24.3 28 7.00001 29.1 7.00001 20.5C6.50001 15.9 9.50001 14.1 11 13.1ZM48.3 27C50.2 26.4 51 27.9 50.8 28.9C50.5 31.1 48.1 32.4999 41.9 35.0999C42.9 31.5999 45.1 27.9 48.3 27ZM32.2 46.7999C31.5 50.9999 27.5 53.3999 23.4 55.2999C22.3 55.7999 19.1 56.7999 18.8 55.2999C18.1 51.7999 28.7 44.3999 31.4 42.5999L31.5 42.5C31.5 42.5 31.5 42.5 31.6 42.5C32 43.4 32.4 45.7999 32.2 46.7999Z" fill="white"></path> </svg> 