<?xml version="1.0" encoding="UTF-8"?> <svg xmlns="http://www.w3.org/2000/svg" width="400" height="400" viewBox="0 0 400 400" fill="none"> <rect y="192.271" width="400" height="15.4589" fill="white"></rect> <rect x="207.729" width="400" height="15.4589" transform="rotate(90 207.729 0)" fill="white"></rect> <rect x="190.645" y="135.68" width="266.748" height="15.2218" transform="rotate(75 190.645 135.68)" fill="white"></rect> <rect x="106.694" y="22.9302" width="400" height="15.4589" transform="rotate(60 106.694 22.9302)" fill="white"></rect> <rect x="64.0442" y="53.1131" width="400" height="15.4589" transform="rotate(45 64.0442 53.1131)" fill="white"></rect> <rect x="30.6595" y="93.306" width="400" height="15.4589" transform="rotate(30 30.6595 93.306)" fill="white"></rect> <rect x="8.81543" y="140.77" width="400" height="15.4589" transform="rotate(15 8.81543 140.77)" fill="white"></rect> <rect x="4.81433" y="244.298" width="400" height="15.4589" transform="rotate(-15 4.81433 244.298)" fill="white"></rect> <rect x="334.156" y="113.62" width="40.6271" height="15.4589" transform="rotate(-30 334.156 113.62)" fill="white"></rect> <rect x="22.9301" y="293.306" width="264.734" height="15.4589" transform="rotate(-30 22.9301 293.306)" fill="white"></rect> <rect x="53.113" y="335.956" width="400" height="15.4589" transform="rotate(-45 53.113 335.956)" fill="white"></rect> <rect x="254.37" y="90.3687" width="77.8713" height="15.4589" transform="rotate(-60 254.37 90.3687)" fill="white"></rect> <rect x="93.306" y="369.34" width="264.734" height="15.4589" transform="rotate(-60 93.306 369.34)" fill="white"></rect> <rect x="140.77" y="391.185" width="400" height="15.4589" transform="rotate(-75 140.77 391.185)" fill="white"></rect> </svg> 