<?xml version="1.0" encoding="UTF-8"?> <svg xmlns="http://www.w3.org/2000/svg" width="331" height="32" viewBox="0 0 331 32" fill="none"> <path d="M0 14.2494C19.564 8.61141 43.441 12.0434 65.641 11.6444C68.679 11.5884 71.897 11.4244 74.337 10.4454C76.777 9.46643 77.974 7.88842 79.647 6.53842C85.868 1.50842 98.617 -0.109583 109.757 0.745417C120.897 1.60042 131.118 4.42443 141.635 6.57443C159.81 10.2934 180.589 11.9874 198.516 7.93243C200.161 7.56143 201.894 7.13343 203.659 7.28143C207.588 7.61343 208.758 10.3094 211.509 11.8524C216.472 14.6484 227.248 13.8774 229.428 17.5454C230.706 19.6944 227.767 21.8994 224.565 23.3664C212.315 28.9794 194.787 29.9064 178.748 29.0394C162.709 28.1724 146.946 25.7874 130.835 25.7754C110.751 25.7754 91.346 29.4384 71.458 30.9454C57.683 31.9834 42.65 31.8564 29.734 28.7874C15.731 25.4754 12.645 18.0324 0 14.2494Z" fill="#63AF4F"></path> <path d="M293.898 9.54901C295.435 6.30413 298.587 5.26035 301.341 5.81191C304.095 6.36348 306.622 8.18526 309.221 9.57224C313.714 11.9714 318.851 13.0642 323.283 10.4483C323.689 10.209 324.118 9.93286 324.554 10.0283C325.525 10.2425 325.815 11.9817 326.495 12.9771C327.722 14.7808 330.385 14.2834 330.924 16.6497C331.24 18.036 330.514 19.4585 329.722 20.4049C326.694 24.0258 322.361 24.6238 318.396 24.0645C314.431 23.5052 310.534 21.9667 306.552 21.9589C301.587 21.9589 296.79 24.3219 291.873 25.2941C288.468 25.9637 284.752 25.8818 281.559 23.902C262.362 12.0534 291.143 15.3495 293.898 9.54901Z" fill="#63AF4F"></path> </svg> 