<?xml version="1.0" encoding="UTF-8"?> <svg xmlns="http://www.w3.org/2000/svg" width="277" height="33" viewBox="0 0 277 33" fill="none"> <path d="M276.363 17.8099C256.799 23.4479 232.922 20.0159 210.722 20.4149C207.684 20.4709 204.466 20.6349 202.026 21.6139C199.586 22.5929 198.389 24.1709 196.716 25.5209C190.495 30.5509 177.746 32.1689 166.606 31.3139C155.466 30.4589 145.245 27.6349 134.728 25.4849C116.553 21.7659 104.427 27.2589 86.5 31.3139C75.5 33.8021 66.265 29.148 64.5 29C60.571 28.668 44.751 32.8569 42 31.3139C37.037 28.5179 4.17999 30.668 2 27C0.721985 24.851 -1.202 21.6739 2 20.2069C14.25 14.5939 81.576 2.1529 97.615 3.0199C113.654 3.8869 129.417 6.27191 145.528 6.28391C165.612 6.28391 185.017 2.6209 204.905 1.1139C218.68 0.075898 233.713 0.202918 246.629 3.27192C260.632 6.58392 263.718 14.0269 276.363 17.8099Z" fill="#63AF4F"></path> </svg> 