<?xml version="1.0" encoding="UTF-8"?> <svg xmlns="http://www.w3.org/2000/svg" width="230" height="32" viewBox="0 0 230 32" fill="none"> <path d="M0 14.5773C19.564 8.93929 43.441 12.3713 65.641 11.9723C68.679 11.9163 71.897 11.7523 74.337 10.7733C76.777 9.79431 77.974 8.2163 79.647 6.8663C85.868 1.8363 98.617 0.218298 109.757 1.0733C120.897 1.9283 131.118 4.75231 141.635 6.90231C159.81 10.6213 180.589 12.3153 198.516 8.26031C200.161 7.88931 201.894 7.46131 203.659 7.60931C207.588 7.94131 208.758 10.6373 211.509 12.1803C216.472 14.9763 227.248 14.2053 229.428 17.8733C230.706 20.0223 227.767 22.2273 224.565 23.6943C212.315 29.3073 194.787 30.2343 178.748 29.3673C162.709 28.5003 146.946 26.1153 130.835 26.1033C110.751 26.1033 91.346 29.7663 71.458 31.2733C57.683 32.3113 42.65 32.1843 29.734 29.1153C15.731 25.8033 12.645 18.3603 0 14.5773Z" fill="#63AF4F"></path> </svg> 