<?xml version="1.0" encoding="UTF-8"?> <svg xmlns="http://www.w3.org/2000/svg" width="231" height="32" viewBox="0 0 231 32" fill="none"> <path d="M230.363 17.8099C210.799 23.4479 186.922 20.0159 164.722 20.4149C161.684 20.4709 158.466 20.6349 156.026 21.6139C153.586 22.5929 152.389 24.1709 150.716 25.5209C144.495 30.5509 131.746 32.1689 120.606 31.3139C109.466 30.4589 99.245 27.6349 88.728 25.4849C70.553 21.7659 49.774 20.0719 31.847 24.1269C30.202 24.4979 28.469 24.9259 26.704 24.7779C22.775 24.4459 21.605 21.7499 18.854 20.2069C13.891 17.4109 3.11502 18.1819 0.935028 14.5139C-0.342972 12.3649 2.59604 10.1599 5.79803 8.69291C18.048 3.07991 35.576 2.1529 51.615 3.0199C67.654 3.8869 83.4171 6.27191 99.528 6.28391C119.612 6.28391 139.017 2.6209 158.905 1.1139C172.68 0.075898 187.713 0.202918 200.629 3.27192C214.632 6.58392 217.718 14.0269 230.363 17.8099Z" fill="#63AF4F"></path> </svg> 