<?xml version="1.0" encoding="UTF-8"?> <svg xmlns="http://www.w3.org/2000/svg" width="349" height="48" viewBox="0 0 349 48" fill="none"> <path d="M348.427 26.527C356.218 35.9112 282.542 29.8713 248.872 30.4762C244.265 30.5611 239.384 30.8097 235.684 32.2938C231.983 33.778 230.167 36.1703 227.63 38.2169C218.195 45.8423 198.859 48.2952 181.964 46.999C165.068 45.7029 149.566 41.4217 133.616 38.1623C106.051 32.5243 74.5359 29.9562 47.3469 36.1035C44.852 36.666 42.2237 37.3148 39.5468 37.0905C33.5878 36.5871 31.8133 32.5 27.641 30.1608C20.1139 25.9221 3.77036 27.091 0.46405 21.5303C-1.47424 18.2724 2.98322 14.9296 7.83957 12.7056C26.4186 4.19633 53.0025 2.79099 77.3281 4.10536C101.654 5.41973 125.561 9.0354 149.996 9.05359C180.456 9.05359 209.887 3.50047 240.05 1.21586C260.942 -0.357747 283.742 -0.165184 303.331 4.48742C324.569 9.5084 323.61 12.9317 348.427 26.527Z" fill="#3F3D56"></path> </svg> 